<svg aria-roledescription="er" role="graphics-document document" viewBox="-9.335567474365234 0 1319.4761962890625 1165" style="max-width: 1319.48px; background-color: white;" xmlns:xlink="http://www.w3.org/1999/xlink" xmlns="http://www.w3.org/2000/svg" width="100%" id="mermaid-0"><style>#mermaid-0{font-family:"trebuchet ms",verdana,arial,sans-serif;font-size:16px;fill:#333;}#mermaid-0 .error-icon{fill:#552222;}#mermaid-0 .error-text{fill:#552222;stroke:#552222;}#mermaid-0 .edge-thickness-normal{stroke-width:2px;}#mermaid-0 .edge-thickness-thick{stroke-width:3.5px;}#mermaid-0 .edge-pattern-solid{stroke-dasharray:0;}#mermaid-0 .edge-pattern-dashed{stroke-dasharray:3;}#mermaid-0 .edge-pattern-dotted{stroke-dasharray:2;}#mermaid-0 .marker{fill:#333333;stroke:#333333;}#mermaid-0 .marker.cross{stroke:#333333;}#mermaid-0 svg{font-family:"trebuchet ms",verdana,arial,sans-serif;font-size:16px;}#mermaid-0 .entityBox{fill:#ECECFF;stroke:#9370DB;}#mermaid-0 .attributeBoxOdd{fill:#ffffff;stroke:#9370DB;}#mermaid-0 .attributeBoxEven{fill:#f2f2f2;stroke:#9370DB;}#mermaid-0 .relationshipLabelBox{fill:hsl(80, 100%, 96.2745098039%);opacity:0.7;background-color:hsl(80, 100%, 96.2745098039%);}#mermaid-0 .relationshipLabelBox rect{opacity:0.5;}#mermaid-0 .relationshipLine{stroke:#333333;}#mermaid-0 .entityTitleText{text-anchor:middle;font-size:18px;fill:#333;}#mermaid-0 :root{--mermaid-font-family:"trebuchet ms",verdana,arial,sans-serif;}</style><g/><defs><marker orient="auto" markerHeight="18" markerWidth="18" refY="9" refX="0" id="ONLY_ONE_START"><path d="M9,0 L9,18 M15,0 L15,18" fill="none" stroke="gray"/></marker></defs><defs><marker orient="auto" markerHeight="18" markerWidth="18" refY="9" refX="18" id="ONLY_ONE_END"><path d="M3,0 L3,18 M9,0 L9,18" fill="none" stroke="gray"/></marker></defs><defs><marker orient="auto" markerHeight="18" markerWidth="30" refY="9" refX="0" id="ZERO_OR_ONE_START"><circle r="6" cy="9" cx="21" fill="white" stroke="gray"/><path d="M9,0 L9,18" fill="none" stroke="gray"/></marker></defs><defs><marker orient="auto" markerHeight="18" markerWidth="30" refY="9" refX="30" id="ZERO_OR_ONE_END"><circle r="6" cy="9" cx="9" fill="white" stroke="gray"/><path d="M21,0 L21,18" fill="none" stroke="gray"/></marker></defs><defs><marker orient="auto" markerHeight="36" markerWidth="45" refY="18" refX="18" id="ONE_OR_MORE_START"><path d="M0,18 Q 18,0 36,18 Q 18,36 0,18 M42,9 L42,27" fill="none" stroke="gray"/></marker></defs><defs><marker orient="auto" markerHeight="36" markerWidth="45" refY="18" refX="27" id="ONE_OR_MORE_END"><path d="M3,9 L3,27 M9,18 Q27,0 45,18 Q27,36 9,18" fill="none" stroke="gray"/></marker></defs><defs><marker orient="auto" markerHeight="36" markerWidth="57" refY="18" refX="18" id="ZERO_OR_MORE_START"><circle r="6" cy="18" cx="48" fill="white" stroke="gray"/><path d="M0,18 Q18,0 36,18 Q18,36 0,18" fill="none" stroke="gray"/></marker></defs><defs><marker orient="auto" markerHeight="36" markerWidth="57" refY="18" refX="39" id="ZERO_OR_MORE_END"><circle r="6" cy="18" cx="9" fill="white" stroke="gray"/><path d="M21,18 Q39,0 57,18 Q39,36 21,18" fill="none" stroke="gray"/></marker></defs><path style="stroke: gray; fill: none;" marker-start="url(#ZERO_OR_MORE_START)" marker-end="url(#ZERO_OR_MORE_END)" d="M48.57142857142857,95L43.8095238095238,103.33333333333333C39.047619047619044,111.66666666666667,29.523809523809522,128.33333333333334,29.52380952380952,145C29.523809523809522,161.66666666666666,39.047619047619044,178.33333333333334,43.8095238095238,186.66666666666666L48.57142857142857,195" class="er relationshipLine"/><path style="stroke: gray; fill: none;" marker-start="url(#ZERO_OR_MORE_START)" marker-end="url(#ZERO_OR_MORE_END)" d="M622.166015625,71.97879567445979L580.1383463541666,84.14899639538315C538.1106770833334,96.31919711630651,454.0553385416667,120.65959855815326,454.0553385416667,145C454.0553385416667,169.34040144184675,538.1106770833334,193.68080288369347,580.1383463541666,205.85100360461684L622.166015625,218.0212043255402" class="er relationshipLine"/><path style="stroke: gray; fill: none;" marker-start="url(#ZERO_OR_MORE_START)" marker-end="url(#ZERO_OR_MORE_END)" d="M622.166015625,67.74191962836463L559.3050130208334,80.61826635697052C496.4440104166667,93.49461308557642,370.7220052083333,119.2473065427882,307.8610026041667,146.70698660472743C245,174.16666666666666,245,203.33333333333334,245,232.5C245,261.6666666666667,245,290.8333333333333,245,320C245,349.1666666666667,245,378.3333333333333,245,407.5C245,436.6666666666667,245,465.8333333333333,245,495C245,524.1666666666666,245,553.3333333333334,245,582.5C245,611.6666666666666,245,640.8333333333334,245,670C245,699.1666666666666,245,728.3333333333334,245,757.5C245,786.6666666666666,245,815.8333333333334,328.6943359375,843.6794430551085C412.388671875,871.5255527768836,579.77734375,898.0511055537672,663.4716796875,911.3138819422092L747.166015625,924.576658330651" class="er relationshipLine"/><path style="stroke: gray; fill: none;" marker-start="url(#ZERO_OR_MORE_START)" marker-end="url(#ZERO_OR_MORE_END)" d="M566.4285714285714,370L571.1904761904763,361.6666666666667C575.952380952381,353.3333333333333,585.4761904761905,336.6666666666667,597.5872395833334,320C609.6982886904761,303.3333333333333,624.3965773809524,286.6666666666667,631.7457217261905,278.3333333333333L639.0948660714286,270" class="er relationshipLine"/><path style="stroke: gray; fill: none;" marker-start="url(#ZERO_OR_MORE_START)" marker-end="url(#ZERO_OR_MORE_END)" d="M545,445L545,453.3333333333333C545,461.6666666666667,545,478.3333333333333,557.1389973958334,495.01923057232233C569.2779947916666,511.7051278113113,593.5559895833334,528.4102556226226,605.6949869791666,536.7628195282782L617.833984375,545.1153834339339" class="er relationshipLine"/><path style="stroke: gray; fill: none;" marker-start="url(#ZERO_OR_MORE_START)" marker-end="url(#ZERO_OR_MORE_END)" d="M818.5945870535714,1070L823.3564918154761,1061.6666666666667C828.1183965773811,1053.3333333333333,837.6422061011905,1036.6666666666667,837.6422061011905,1020C837.6422061011905,1003.3333333333334,828.1183965773811,986.6666666666666,823.3564918154763,978.3333333333334L818.5945870535714,970" class="er relationshipLine"/><path style="stroke: gray; fill: none;" marker-start="url(#ZERO_OR_ONE_START)" marker-end="url(#ZERO_OR_ONE_END)" d="M622.166015625,257.19435226934485L600.9716796875,267.66196022445405C579.77734375,278.12956817956325,537.388671875,299.0647840897816,520.9562406994047,317.8657253782241C504.52380952380946,336.6666666666667,514.047619047619,353.3333333333333,518.8095238095237,361.6666666666667L523.5714285714286,370" class="er relationshipLine"/><path style="stroke: gray; fill: none;" marker-start="url(#ZERO_OR_ONE_START)" marker-end="url(#ZERO_OR_ONE_END)" d="M722.166015625,220.83333333333334L776.3326822916666,208.19444444444446C830.4993489583334,195.55555555555557,938.8326822916666,170.2777777777778,938.8326822916666,145C938.8326822916666,119.72222222222223,830.4993489583334,94.44444444444446,776.3326822916666,81.80555555555556L722.166015625,69.16666666666667" class="er relationshipLine"/><path style="stroke: gray; fill: none;" marker-start="url(#ZERO_OR_MORE_START)" marker-end="url(#ZERO_OR_MORE_END)" d="M622.166015625,246.9787956744598L580.1383463541666,259.14899639538316C538.1106770833334,271.3191971163065,454.0553385416667,295.6595985581533,412.0276692708333,322.41313261241C370,349.1666666666667,370,378.3333333333333,370,407.5C370,436.6666666666667,370,465.8333333333333,370,495C370,524.1666666666666,370,553.3333333333334,370,582.5C370,611.6666666666666,370,640.8333333333334,424.5276692708333,668.066722248402C479.0553385416667,695.3001111634707,588.1106770833334,720.6002223269414,642.6383463541666,733.2502779086767L697.166015625,745.9003334904121" class="er relationshipLine"/><path style="stroke: gray; fill: none;" marker-start="url(#ZERO_OR_ONE_START)" marker-end="url(#ONLY_ONE_END)" d="M672.166015625,620L672.166015625,628.3333333333334C672.166015625,636.6666666666666,672.166015625,653.3333333333334,679.3088727678572,670C686.4517299107143,686.6666666666666,700.7374441964286,703.3333333333334,707.8803013392858,711.6666666666666L715.0231584821429,720" class="er relationshipLine"/><path style="stroke: gray; fill: none;" marker-start="url(#ZERO_OR_ONE_START)" marker-end="url(#ONLY_ONE_END)" d="M692.6662946428571,545L697.2219122023808,536.6666666666666C701.7775297619047,528.3333333333334,710.8887648809523,511.6666666666667,715.4443824404761,488.75C720,465.8333333333333,720,436.6666666666667,720,407.5C720,378.3333333333333,720,349.1666666666667,715.4443824404761,326.25C710.8887648809523,303.3333333333333,701.7775297619047,286.6666666666667,697.2219122023808,278.3333333333333L692.6662946428571,270" class="er relationshipLine"/><path style="stroke: gray; fill: none;" marker-start="url(#ZERO_OR_ONE_START)" marker-end="url(#ONLY_ONE_END)" d="M726.498046875,550.3419495052252L742.0817057291666,541.1182912543544C757.6653645833334,531.8946330034835,788.8326822916666,513.4473165017417,766.9163411458334,492.29184006905274C745,471.1363636363637,670,447.2727272727273,632.5,435.3409090909092L595,423.40909090909093" class="er relationshipLine"/><path style="stroke: gray; fill: none;" marker-start="url(#ZERO_OR_ONE_START)" marker-end="url(#ONLY_ONE_END)" d="M617.833984375,590.7368895701992L530.6949869791666,603.947407975166C443.5559895833333,617.1579263801328,269.2779947916667,643.5789631900665,182.13899739583334,665.1228149283666C95,686.6666666666666,95,703.3333333333334,95,711.6666666666666L95,720" class="er relationshipLine"/><path style="stroke: gray; fill: none;" marker-start="url(#ZERO_OR_ONE_START)" marker-end="url(#ONLY_ONE_END)" d="M847.166015625,903.3333333333334L863.8326822916666,893.6111111111112C880.4993489583334,883.888888888889,913.8326822916666,864.4444444444445,905.4993489583334,843.7847222222222C897.166015625,823.125,847.166015625,801.25,822.166015625,790.3125L797.166015625,779.375" class="er relationshipLine"/><path style="stroke: gray; fill: none;" marker-start="url(#ZERO_OR_ONE_START)" marker-end="url(#ONLY_ONE_END)" d="M847.166015625,920.8333333333334L901.3326822916666,908.1944444444445C955.4993489583334,895.5555555555557,1063.8326822916667,870.2777777777778,1117.9993489583333,843.0555555555555C1172.166015625,815.8333333333334,1172.166015625,786.6666666666666,1172.166015625,757.5C1172.166015625,728.3333333333334,1172.166015625,699.1666666666666,1172.166015625,670C1172.166015625,640.8333333333334,1172.166015625,611.6666666666666,1172.166015625,582.5C1172.166015625,553.3333333333334,1172.166015625,524.1666666666666,1172.166015625,495C1172.166015625,465.8333333333333,1172.166015625,436.6666666666667,1172.166015625,407.5C1172.166015625,378.3333333333333,1172.166015625,349.1666666666667,1097.166015625,321.4583333333333C1022.166015625,293.75,872.166015625,267.5,797.166015625,254.375L722.166015625,241.25" class="er relationshipLine"/><path style="stroke: gray; fill: none;" marker-start="url(#ZERO_OR_ONE_START)" marker-end="url(#ZERO_OR_ONE_END)" d="M847.166015625,923.2894736842105L917.9993489583334,910.2412280701755C988.8326822916666,897.1929824561403,1130.4993489583333,871.0964912280701,1201.3326822916667,843.4649122807018C1272.166015625,815.8333333333334,1272.166015625,786.6666666666666,1272.166015625,757.5C1272.166015625,728.3333333333334,1272.166015625,699.1666666666666,1272.166015625,670C1272.166015625,640.8333333333334,1272.166015625,611.6666666666666,1272.166015625,582.5C1272.166015625,553.3333333333334,1272.166015625,524.1666666666666,1272.166015625,495C1272.166015625,465.8333333333333,1272.166015625,436.6666666666667,1272.166015625,407.5C1272.166015625,378.3333333333333,1272.166015625,349.1666666666667,1272.166015625,320C1272.166015625,290.8333333333333,1272.166015625,261.6666666666667,1272.166015625,232.5C1272.166015625,203.33333333333334,1272.166015625,174.16666666666666,1180.4993489583333,146.21527777777777C1088.8326822916667,118.2638888888889,905.4993489583334,91.52777777777779,813.8326822916666,78.15972222222223L722.166015625,64.79166666666667" class="er relationshipLine"/><path style="stroke: gray; fill: none;" marker-start="url(#ZERO_OR_ONE_START)" marker-end="url(#ZERO_OR_ONE_END)" d="M775.7374441964286,970L770.9755394345239,978.3333333333334C766.2136346726189,986.6666666666666,756.6898251488095,1003.3333333333334,756.6898251488095,1020C756.6898251488095,1036.6666666666667,766.2136346726189,1053.3333333333333,770.9755394345239,1061.6666666666667L775.7374441964286,1070" class="er relationshipLine"/><path style="stroke: gray; fill: none;" marker-start="url(#ZERO_OR_ONE_START)" marker-end="url(#ONLY_ONE_END)" d="M797.166015625,735.625L822.166015625,724.6875C847.166015625,713.75,897.166015625,691.875,922.166015625,666.3541666666666C947.166015625,640.8333333333334,947.166015625,611.6666666666666,947.166015625,582.5C947.166015625,553.3333333333334,947.166015625,524.1666666666666,947.166015625,495C947.166015625,465.8333333333333,947.166015625,436.6666666666667,947.166015625,407.5C947.166015625,378.3333333333333,947.166015625,349.1666666666667,909.666015625,322.6515151515152C872.166015625,296.1363636363636,797.166015625,272.27272727272725,759.666015625,260.34090909090907L722.166015625,248.4090909090909" class="er relationshipLine"/><path style="stroke: gray; fill: none;" marker-start="url(#ZERO_OR_MORE_START)" marker-end="url(#ZERO_OR_MORE_END)" d="M797.166015625,742.9166666666666L838.8326822916666,730.7638888888888C880.4993489583334,718.611111111111,963.8326822916666,694.3055555555555,952.0546875,669.6823567708333C940.2766927083334,645.0591579861111,833.3873697916666,620.1183159722221,779.9427083333334,607.6478949652777L726.498046875,595.1774739583333" class="er relationshipLine"/><path style="stroke: gray; fill: none;" marker-start="url(#ZERO_OR_MORE_START)" marker-end="url(#ZERO_OR_MORE_END)" d="M697.166015625,769.0996665095879L642.6383463541666,781.7497220913233C588.1106770833334,794.3997776730586,479.0553385416667,819.6998888365293,487.388671875,845.2262911468706C495.7220052083333,870.7526934572119,621.4440104166666,896.5053869144236,684.3050130208334,909.3817336430296L747.166015625,922.2580803716354" class="er relationshipLine"/><path style="stroke: gray; fill: none;" marker-start="url(#ZERO_OR_ONE_START)" marker-end="url(#ONLY_ONE_END)" d="M91.42857142857143,195L96.19047619047619,186.66666666666666C100.95238095238096,178.33333333333334,110.47619047619048,161.66666666666666,110.47619047619048,145C110.47619047619048,128.33333333333334,100.95238095238096,111.66666666666667,96.19047619047619,103.33333333333333L91.42857142857143,95" class="er relationshipLine"/><path style="stroke: gray; fill: none;" marker-start="url(#ZERO_OR_ONE_START)" marker-end="url(#ONLY_ONE_END)" d="M70,270L70,278.3333333333333C70,286.6666666666667,70,303.3333333333333,70,320C70,336.6666666666667,70,353.3333333333333,70,361.6666666666667L70,370" class="er relationshipLine"/><g transform="translate(20,20 )" id="entity-users-33ae1e26-be31-5c1d-bf65-e859e9d0308e"><rect height="75" width="100" y="0" x="0" class="er entityBox"/><text style="dominant-baseline: middle; text-anchor: middle; font-size: 12px;" transform="translate(50,37.5)" y="0" x="0" id="text-entity-users-33ae1e26-be31-5c1d-bf65-e859e9d0308e" class="er entityLabel">users</text></g><g transform="translate(20,370 )" id="entity-PDF-e8f61c78-2189-58dd-8f90-49b30f3acc57"><rect height="75" width="100" y="0" x="0" class="er entityBox"/><text style="dominant-baseline: middle; text-anchor: middle; font-size: 12px;" transform="translate(50,37.5)" y="0" x="0" id="text-entity-PDF-e8f61c78-2189-58dd-8f90-49b30f3acc57" class="er entityLabel">PDF</text></g><g transform="translate(622.166015625,20 )" id="entity-Author-17acff7c-e0a9-5e68-a8c8-82d7688f389c"><rect height="75" width="100" y="0" x="0" class="er entityBox"/><text style="dominant-baseline: middle; text-anchor: middle; font-size: 12px;" transform="translate(50,37.5)" y="0" x="0" id="text-entity-Author-17acff7c-e0a9-5e68-a8c8-82d7688f389c" class="er entityLabel">Author</text></g><g transform="translate(495,370 )" id="entity-Artist-57a72993-74d6-5d47-9b6a-c32ca1bc9c44"><rect height="75" width="100" y="0" x="0" class="er entityBox"/><text style="dominant-baseline: middle; text-anchor: middle; font-size: 12px;" transform="translate(50,37.5)" y="0" x="0" id="text-entity-Artist-57a72993-74d6-5d47-9b6a-c32ca1bc9c44" class="er entityLabel">Artist</text></g><g transform="translate(747.166015625,1070 )" id="entity-Translator-4ca5e3d1-183a-5457-a07c-c5989bb83097"><rect height="75" width="100" y="0" x="0" class="er entityBox"/><text style="dominant-baseline: middle; text-anchor: middle; font-size: 12px;" transform="translate(50,37.5)" y="0" x="0" id="text-entity-Translator-4ca5e3d1-183a-5457-a07c-c5989bb83097" class="er entityLabel">Translator</text></g><g transform="translate(45,720 )" id="entity-Photo-3dbe787e-c345-53b6-8b90-9020690543b3"><rect height="75" width="100" y="0" x="0" class="er entityBox"/><text style="dominant-baseline: middle; text-anchor: middle; font-size: 12px;" transform="translate(50,37.5)" y="0" x="0" id="text-entity-Photo-3dbe787e-c345-53b6-8b90-9020690543b3" class="er entityLabel">Photo</text></g><g transform="translate(622.166015625,195 )" id="entity-stories-2809256d-c184-5d2c-bc20-1bbabab3f3b6"><rect height="75" width="100" y="0" x="0" class="er entityBox"/><text style="dominant-baseline: middle; text-anchor: middle; font-size: 12px;" transform="translate(50,37.5)" y="0" x="0" id="text-entity-stories-2809256d-c184-5d2c-bc20-1bbabab3f3b6" class="er entityLabel">stories</text></g><g transform="translate(617.833984375,545 )" id="entity-pageartworks-a7eab14e-b22e-5c9b-8324-e39e37602eee"><rect height="75" width="108.6640625" y="0" x="0" class="er entityBox"/><text style="dominant-baseline: middle; text-anchor: middle; font-size: 12px;" transform="translate(54.33203125,37.5)" y="0" x="0" id="text-entity-pageartworks-a7eab14e-b22e-5c9b-8324-e39e37602eee" class="er entityLabel">page_artworks</text></g><g transform="translate(747.166015625,895 )" id="entity-pagetexts-32c866fa-30da-552d-8244-754db7f80206"><rect height="75" width="100" y="0" x="0" class="er entityBox"/><text style="dominant-baseline: middle; text-anchor: middle; font-size: 12px;" transform="translate(50,37.5)" y="0" x="0" id="text-entity-pagetexts-32c866fa-30da-552d-8244-754db7f80206" class="er entityLabel">page_texts</text></g><g transform="translate(697.166015625,720 )" id="entity-pages-39cce197-6933-52c8-bffd-261df920aba6"><rect height="75" width="100" y="0" x="0" class="er entityBox"/><text style="dominant-baseline: middle; text-anchor: middle; font-size: 12px;" transform="translate(50,37.5)" y="0" x="0" id="text-entity-pages-39cce197-6933-52c8-bffd-261df920aba6" class="er entityLabel">pages</text></g><g transform="translate(20,195 )" id="entity-editions-ec9a561b-7f02-57e4-a4dc-d5ffa7296067"><rect height="75" width="100" y="0" x="0" class="er entityBox"/><text style="dominant-baseline: middle; text-anchor: middle; font-size: 12px;" transform="translate(50,37.5)" y="0" x="0" id="text-entity-editions-ec9a561b-7f02-57e4-a4dc-d5ffa7296067" class="er entityLabel">editions</text></g><g transform="translate(822.166015625,20 )" id="entity-predictions-1893ac28-1bf0-5313-b476-d32c8a0be2a7"><rect height="75" width="100" y="0" x="0" class="er entityBox"/><text style="dominant-baseline: middle; text-anchor: middle; font-size: 12px;" transform="translate(50,37.5)" y="0" x="0" id="text-entity-predictions-1893ac28-1bf0-5313-b476-d32c8a0be2a7" class="er entityLabel">predictions</text></g><rect height="14" width="37.71875" y="138" x="10.664434432983398" class="er relationshipLabelBox"/><text style="text-anchor: middle; dominant-baseline: middle; font-size: 12px;" y="145" x="29.5238094329834" id="rel1" class="er relationshipLabel">Edition</text><rect height="14" width="35.685546875" y="138" x="436.2125549316406" class="er relationshipLabelBox"/><text style="text-anchor: middle; dominant-baseline: middle; font-size: 12px;" y="145" x="454.0553283691406" id="rel2" class="er relationshipLabel">stories</text><rect height="14" width="53.345703125" y="547.1801147460938" x="218.3271484375" class="er relationshipLabelBox"/><text style="text-anchor: middle; dominant-baseline: middle; font-size: 12px;" y="554.1801147460938" x="245" id="rel3" class="er relationshipLabel">pageTexts</text><rect height="14" width="35.685546875" y="310.556884765625" x="581.5380249023438" class="er relationshipLabelBox"/><text style="text-anchor: middle; dominant-baseline: middle; font-size: 12px;" y="317.556884765625" x="599.3807983398438" id="rel4" class="er relationshipLabel">stories</text><rect height="14" width="73.14453125" y="498.047119140625" x="529.1921997070312" class="er relationshipLabelBox"/><text style="text-anchor: middle; dominant-baseline: middle; font-size: 12px;" y="505.047119140625" x="565.7644653320312" id="rel5" class="er relationshipLabel">pageArtworks</text><rect height="14" width="53.345703125" y="1013" x="810.9693603515625" class="er relationshipLabelBox"/><text style="text-anchor: middle; dominant-baseline: middle; font-size: 12px;" y="1020" x="837.6422119140625" id="rel6" class="er relationshipLabel">pageTexts</text><rect height="14" width="29.005859375" y="291.5617980957031" x="530.183837890625" class="er relationshipLabelBox"/><text style="text-anchor: middle; dominant-baseline: middle; font-size: 12px;" y="298.5617980957031" x="544.686767578125" id="rel7" class="er relationshipLabel">artist</text><rect height="14" width="35.615234375" y="138.0000457763672" x="921.0250854492188" class="er relationshipLabelBox"/><text style="text-anchor: middle; dominant-baseline: middle; font-size: 12px;" y="145.0000457763672" x="938.8327026367188" id="rel8" class="er relationshipLabel">author</text><rect height="14" width="30.55859375" y="522.3980712890625" x="354.720703125" class="er relationshipLabelBox"/><text style="text-anchor: middle; dominant-baseline: middle; font-size: 12px;" y="529.3980712890625" x="370" id="rel9" class="er relationshipLabel">pages</text><rect height="14" width="26.013671875" y="667.874267578125" x="668.585693359375" class="er relationshipLabelBox"/><text style="text-anchor: middle; dominant-baseline: middle; font-size: 12px;" y="674.874267578125" x="681.592529296875" id="rel10" class="er relationshipLabel">page</text><rect height="14" width="26.71875" y="400.5" x="706.640625" class="er relationshipLabelBox"/><text style="text-anchor: middle; dominant-baseline: middle; font-size: 12px;" y="407.5" x="720" id="rel11" class="er relationshipLabel">story</text><rect height="14" width="29.005859375" y="460.2969665527344" x="708.2139892578125" class="er relationshipLabelBox"/><text style="text-anchor: middle; dominant-baseline: middle; font-size: 12px;" y="467.2969665527344" x="722.7169189453125" id="rel12" class="er relationshipLabel">artist</text><rect height="14" width="31.439453125" y="626.5162963867188" x="328.2043762207031" class="er relationshipLabelBox"/><text style="text-anchor: middle; dominant-baseline: middle; font-size: 12px;" y="633.5162963867188" x="343.9241027832031" id="rel13" class="er relationshipLabel">photo</text><rect height="14" width="26.013671875" y="822.0250854492188" x="880.4000854492188" class="er relationshipLabelBox"/><text style="text-anchor: middle; dominant-baseline: middle; font-size: 12px;" y="829.0250854492188" x="893.4069213867188" id="rel14" class="er relationshipLabel">page</text><rect height="14" width="26.71875" y="516.834228515625" x="1158.806640625" class="er relationshipLabelBox"/><text style="text-anchor: middle; dominant-baseline: middle; font-size: 12px;" y="523.834228515625" x="1172.166015625" id="rel15" class="er relationshipLabel">story</text><rect height="14" width="35.615234375" y="428.43878173828125" x="1254.3583984375" class="er relationshipLabelBox"/><text style="text-anchor: middle; dominant-baseline: middle; font-size: 12px;" y="435.43878173828125" x="1272.166015625" id="rel16" class="er relationshipLabel">author</text><rect height="14" width="53.181640625" y="1013" x="730.0989990234375" class="er relationshipLabelBox"/><text style="text-anchor: middle; dominant-baseline: middle; font-size: 12px;" y="1020" x="756.6898193359375" id="rel17" class="er relationshipLabel">translator</text><rect height="14" width="26.71875" y="454.961181640625" x="933.806640625" class="er relationshipLabelBox"/><text style="text-anchor: middle; dominant-baseline: middle; font-size: 12px;" y="461.961181640625" x="947.166015625" id="rel18" class="er relationshipLabel">story</text><rect height="14" width="46.8125" y="644.6801147460938" x="904.9765014648438" class="er relationshipLabelBox"/><text style="text-anchor: middle; dominant-baseline: middle; font-size: 12px;" y="651.6801147460938" x="928.3827514648438" id="rel19" class="er relationshipLabel">artworks</text><rect height="14" width="27.072265625" y="852.6300048828125" x="489.9311218261719" class="er relationshipLabelBox"/><text style="text-anchor: middle; dominant-baseline: middle; font-size: 12px;" y="859.6300048828125" x="503.4672546386719" id="rel20" class="er relationshipLabel">texts</text><rect height="14" width="22.958984375" y="138" x="98.99669647216797" class="er relationshipLabelBox"/><text style="text-anchor: middle; dominant-baseline: middle; font-size: 12px;" y="145" x="110.47618865966797" id="rel21" class="er relationshipLabel">user</text><rect height="14" width="18.37109375" y="313" x="60.814453125" class="er relationshipLabelBox"/><text style="text-anchor: middle; dominant-baseline: middle; font-size: 12px;" y="320" x="70" id="rel22" class="er relationshipLabel">pdf</text></svg>