<svg aria-roledescription="er" role="graphics-document document" viewBox="0 0 1061.81396484375 640" style="max-width: 1061.81px; background-color: white;" xmlns:xlink="http://www.w3.org/1999/xlink" xmlns="http://www.w3.org/2000/svg" width="100%" id="mermaid-0"><style>#mermaid-0{font-family:"trebuchet ms",verdana,arial,sans-serif;font-size:16px;fill:#333;}#mermaid-0 .error-icon{fill:#552222;}#mermaid-0 .error-text{fill:#552222;stroke:#552222;}#mermaid-0 .edge-thickness-normal{stroke-width:2px;}#mermaid-0 .edge-thickness-thick{stroke-width:3.5px;}#mermaid-0 .edge-pattern-solid{stroke-dasharray:0;}#mermaid-0 .edge-pattern-dashed{stroke-dasharray:3;}#mermaid-0 .edge-pattern-dotted{stroke-dasharray:2;}#mermaid-0 .marker{fill:#333333;stroke:#333333;}#mermaid-0 .marker.cross{stroke:#333333;}#mermaid-0 svg{font-family:"trebuchet ms",verdana,arial,sans-serif;font-size:16px;}#mermaid-0 .entityBox{fill:#ECECFF;stroke:#9370DB;}#mermaid-0 .attributeBoxOdd{fill:#ffffff;stroke:#9370DB;}#mermaid-0 .attributeBoxEven{fill:#f2f2f2;stroke:#9370DB;}#mermaid-0 .relationshipLabelBox{fill:hsl(80, 100%, 96.2745098039%);opacity:0.7;background-color:hsl(80, 100%, 96.2745098039%);}#mermaid-0 .relationshipLabelBox rect{opacity:0.5;}#mermaid-0 .relationshipLine{stroke:#333333;}#mermaid-0 .entityTitleText{text-anchor:middle;font-size:18px;fill:#333;}#mermaid-0 :root{--mermaid-font-family:"trebuchet ms",verdana,arial,sans-serif;}</style><g/><defs><marker orient="auto" markerHeight="18" markerWidth="18" refY="9" refX="0" id="ONLY_ONE_START"><path d="M9,0 L9,18 M15,0 L15,18" fill="none" stroke="gray"/></marker></defs><defs><marker orient="auto" markerHeight="18" markerWidth="18" refY="9" refX="18" id="ONLY_ONE_END"><path d="M3,0 L3,18 M9,0 L9,18" fill="none" stroke="gray"/></marker></defs><defs><marker orient="auto" markerHeight="18" markerWidth="30" refY="9" refX="0" id="ZERO_OR_ONE_START"><circle r="6" cy="9" cx="21" fill="white" stroke="gray"/><path d="M9,0 L9,18" fill="none" stroke="gray"/></marker></defs><defs><marker orient="auto" markerHeight="18" markerWidth="30" refY="9" refX="30" id="ZERO_OR_ONE_END"><circle r="6" cy="9" cx="9" fill="white" stroke="gray"/><path d="M21,0 L21,18" fill="none" stroke="gray"/></marker></defs><defs><marker orient="auto" markerHeight="36" markerWidth="45" refY="18" refX="18" id="ONE_OR_MORE_START"><path d="M0,18 Q 18,0 36,18 Q 18,36 0,18 M42,9 L42,27" fill="none" stroke="gray"/></marker></defs><defs><marker orient="auto" markerHeight="36" markerWidth="45" refY="18" refX="27" id="ONE_OR_MORE_END"><path d="M3,9 L3,27 M9,18 Q27,0 45,18 Q27,36 9,18" fill="none" stroke="gray"/></marker></defs><defs><marker orient="auto" markerHeight="36" markerWidth="57" refY="18" refX="18" id="ZERO_OR_MORE_START"><circle r="6" cy="18" cx="48" fill="white" stroke="gray"/><path d="M0,18 Q18,0 36,18 Q18,36 0,18" fill="none" stroke="gray"/></marker></defs><defs><marker orient="auto" markerHeight="36" markerWidth="57" refY="18" refX="39" id="ZERO_OR_MORE_END"><circle r="6" cy="18" cx="9" fill="white" stroke="gray"/><path d="M21,18 Q39,0 57,18 Q39,36 21,18" fill="none" stroke="gray"/></marker></defs><path style="stroke: gray; fill: none;" marker-start="url(#ZERO_OR_MORE_START)" marker-end="url(#ZERO_OR_MORE_END)" d="M319.27420479910717,95L309.75039527529765,103.33333333333333C300.22658575148813,111.66666666666667,281.17896670386904,128.33333333333334,281.17896670386904,145C281.17896670386904,161.66666666666666,300.22658575148813,178.33333333333334,309.75039527529765,186.66666666666666L319.27420479910717,195" class="er relationshipLine"/><path style="stroke: gray; fill: none;" marker-start="url(#ZERO_OR_ONE_START)" marker-end="url(#ONLY_ONE_END)" d="M733.6715262276786,95L721.7481631324405,103.33333333333333C709.8248000372023,111.66666666666667,685.9780738467261,128.33333333333334,685.9780738467261,145C685.9780738467261,161.66666666666666,709.8248000372023,178.33333333333334,721.7481631324405,186.66666666666666L733.6715262276786,195" class="er relationshipLine"/><path style="stroke: gray; fill: none;" marker-start="url(#ZERO_OR_ONE_START)" marker-end="url(#ONLY_ONE_END)" d="M96.07700892857143,370L100.83891369047619,361.6666666666667C105.60081845238096,353.3333333333333,115.12462797619048,336.6666666666667,151.13368443080358,316.82039637583574C187.14274088541666,296.97412608500474,249.63704427083334,273.9482521700095,280.8841959635417,262.43531521251185L312.13134765625,250.92237825501422" class="er relationshipLine"/><path style="stroke: gray; fill: none;" marker-start="url(#ZERO_OR_ONE_START)" marker-end="url(#ONLY_ONE_END)" d="M317.5962611607143,545L323.32566034226187,536.6666666666666C329.0550595238095,528.3333333333334,340.51385788690476,511.6666666666667,346.24325706845235,488.75C351.97265625,465.8333333333333,351.97265625,436.6666666666667,351.97265625,407.5C351.97265625,378.3333333333333,351.97265625,349.1666666666667,352.9401506696429,326.25C353.9076450892857,303.3333333333333,355.8426339285714,286.6666666666667,356.8101283482143,278.3333333333333L357.77762276785717,270" class="er relationshipLine"/><path style="stroke: gray; fill: none;" marker-start="url(#ZERO_OR_ONE_START)" marker-end="url(#ONLY_ONE_END)" d="M343.60400390625,558.025705093551L365.8321126302083,547.5214209112925C388.0602213541667,537.017136729034,432.5164388020833,516.008568364517,459.5064522879464,497.1709508489252C486.49646577380946,478.3333333333333,496.02027529761904,461.6666666666667,500.7821800595238,453.3333333333333L505.54408482142856,445" class="er relationshipLine"/><path style="stroke: gray; fill: none;" marker-start="url(#ZERO_OR_ONE_START)" marker-end="url(#ONLY_ONE_END)" d="M767.5962611607143,545L773.3256603422619,536.6666666666666C779.0550595238095,528.3333333333334,790.5138578869047,511.6666666666667,796.2432570684523,488.75C801.97265625,465.8333333333333,801.97265625,436.6666666666667,801.97265625,407.5C801.97265625,378.3333333333333,801.97265625,349.1666666666667,736.9991048177084,321.6577948737874C672.0255533854166,294.14892308090816,542.0784505208334,268.2978461618163,477.1048990885417,255.3723077022704L412.13134765625,242.44676924272449" class="er relationshipLine"/><path style="stroke: gray; fill: none;" marker-start="url(#ZERO_OR_ONE_START)" marker-end="url(#ONLY_ONE_END)" d="M793.63427734375,554.1888462066127L811.690673828125,544.3240385055105C829.7470703125,534.4592308044084,865.85986328125,514.7296154022042,829.7495930989584,492.2259188122132C793.6393229166666,469.72222222222223,685.3059895833334,444.4444444444445,631.1393229166666,431.8055555555556L576.97265625,419.1666666666667" class="er relationshipLine"/><path style="stroke: gray; fill: none;" marker-start="url(#ZERO_OR_MORE_START)" marker-end="url(#ZERO_OR_MORE_END)" d="M548.4012276785714,370L553.1631324404763,361.6666666666667C557.925037202381,353.3333333333333,567.4488467261905,336.6666666666667,544.7372000558036,317.1439779618708C522.0255533854166,297.6212892570749,467.0784505208333,275.2425785141498,439.6048990885417,264.0532231426873L412.13134765625,252.86386777122468" class="er relationshipLine"/><path style="stroke: gray; fill: none;" marker-start="url(#ZERO_OR_MORE_START)" marker-end="url(#ZERO_OR_MORE_END)" d="M476.97265625,419.1666666666667L422.8059895833333,431.8055555555556C368.6393229166667,444.4444444444445,260.3059895833333,469.72222222222223,220.81453450520834,491.54352671426994C181.32307942708334,513.3648312063176,210.67350260416666,531.7296624126352,225.34871419270834,540.912078015794L240.02392578125,550.0944936189528" class="er relationshipLine"/><path style="stroke: gray; fill: none;" marker-start="url(#ZERO_OR_MORE_START)" marker-end="url(#ZERO_OR_MORE_END)" d="M548.4012276785714,445L553.1631324404763,453.3333333333333C557.925037202381,461.6666666666667,567.4488467261905,478.3333333333333,591.0475841703869,496.66551267050755C614.6463216145834,514.9976920076818,652.3199869791666,534.9953840153636,671.1568196614584,544.9942300192045L689.99365234375,554.9930760230453" class="er relationshipLine"/><path style="stroke: gray; fill: none;" marker-start="url(#ZERO_OR_ONE_START)" marker-end="url(#ZERO_OR_ONE_END)" d="M362.13134765625,195L362.13134765625,186.66666666666666C362.13134765625,178.33333333333334,362.13134765625,161.66666666666666,362.13134765625,145C362.13134765625,128.33333333333334,362.13134765625,111.66666666666667,362.13134765625,103.33333333333333L362.13134765625,95" class="er relationshipLine"/><path style="stroke: gray; fill: none;" marker-start="url(#ZERO_OR_MORE_START)" marker-end="url(#ZERO_OR_MORE_END)" d="M411.3490513392857,270L422.28631882440476,278.3333333333333C433.22358630952385,286.6666666666667,455.0981212797619,303.3333333333333,470.7972935267857,320C486.49646577380946,336.6666666666667,496.02027529761904,353.3333333333333,500.7821800595238,361.6666666666667L505.54408482142856,370" class="er relationshipLine"/><path style="stroke: gray; fill: none;" marker-start="url(#ZERO_OR_MORE_START)" marker-end="url(#ZERO_OR_MORE_END)" d="M312.13134765625,245.4636193962368L264.217529296875,257.886349496864C216.3037109375,270.30907959749123,120.47607421875,295.1545397987456,77.32416062127976,315.91060323270614C34.172247023809526,336.6666666666667,43.696056547619044,353.3333333333333,48.4579613095238,361.6666666666667L53.21986607142857,370" class="er relationshipLine"/><path style="stroke: gray; fill: none;" marker-start="url(#ZERO_OR_MORE_START)" marker-end="url(#ZERO_OR_MORE_END)" d="M314.9204799107143,270L304.42917596726187,278.3333333333333C293.9378720238095,286.6666666666667,272.95526413690476,303.3333333333333,262.46396019345235,326.25C251.97265625,349.1666666666667,251.97265625,378.3333333333333,251.97265625,407.5C251.97265625,436.6666666666667,251.97265625,465.8333333333333,255.76706659226193,488.75C259.5614769345238,511.6666666666667,267.15029761904765,528.3333333333334,270.9447079613096,536.6666666666666L274.73911830357144,545" class="er relationshipLine"/><path style="stroke: gray; fill: none;" marker-start="url(#ZERO_OR_MORE_START)" marker-end="url(#ZERO_OR_MORE_END)" d="M412.13134765625,245.37365570154958L460.438232421875,257.8113797512913C508.7451171875,270.2491038010331,605.35888671875,295.1245519005165,653.665771484375,322.14560928359157C701.97265625,349.1666666666667,701.97265625,378.3333333333333,701.97265625,407.5C701.97265625,436.6666666666667,701.97265625,465.8333333333333,705.7670665922619,488.75C709.5614769345239,511.6666666666667,717.1502976190477,528.3333333333334,720.9447079613095,536.6666666666666L724.7391183035714,545" class="er relationshipLine"/><path style="stroke: gray; fill: none;" marker-start="url(#ZERO_OR_MORE_START)" marker-end="url(#ZERO_OR_MORE_END)" d="M519.2742047991071,95L509.75039527529754,103.33333333333333C500.2265857514881,111.66666666666667,481.17896670386904,128.33333333333334,481.178966703869,145C481.17896670386904,161.66666666666666,500.2265857514881,178.33333333333334,509.75039527529754,186.66666666666666L519.2742047991071,195" class="er relationshipLine"/><path style="stroke: gray; fill: none;" marker-start="url(#ZERO_OR_ONE_START)" marker-end="url(#ONLY_ONE_END)" d="M562.13134765625,195L562.13134765625,186.66666666666666C562.13134765625,178.33333333333334,562.13134765625,161.66666666666666,562.13134765625,145C562.13134765625,128.33333333333334,562.13134765625,111.66666666666667,562.13134765625,103.33333333333333L562.13134765625,95" class="er relationshipLine"/><path style="stroke: gray; fill: none;" marker-start="url(#ZERO_OR_MORE_START)" marker-end="url(#ZERO_OR_MORE_END)" d="M787.32666015625,195L787.32666015625,186.66666666666666C787.32666015625,178.33333333333334,787.32666015625,161.66666666666666,787.32666015625,145C787.32666015625,128.33333333333334,787.32666015625,111.66666666666667,787.32666015625,103.33333333333333L787.32666015625,95" class="er relationshipLine"/><g transform="translate(312.13134765625,20 )" id="entity-FaceMesh-d8cf0b35-820d-560e-b344-c9d4d704452d"><rect height="75" width="100" y="0" x="0" class="er entityBox"/><text style="dominant-baseline: middle; text-anchor: middle; font-size: 12px;" transform="translate(50,37.5)" y="0" x="0" id="text-entity-FaceMesh-d8cf0b35-820d-560e-b344-c9d4d704452d" class="er entityLabel">FaceMesh</text></g><g transform="translate(732.83935546875,20 )" id="entity-ConceptTensor-9ea9fd0b-e9b1-51dc-80ce-c2ef2b20af3d"><rect height="75" width="108.974609375" y="0" x="0" class="er entityBox"/><text style="dominant-baseline: middle; text-anchor: middle; font-size: 12px;" transform="translate(54.4873046875,37.5)" y="0" x="0" id="text-entity-ConceptTensor-9ea9fd0b-e9b1-51dc-80ce-c2ef2b20af3d" class="er entityLabel">ConceptTensor</text></g><g transform="translate(20,370 )" id="entity-ConceptPerson-5bc76740-cf43-5d85-b395-ccd2059701ab"><rect height="75" width="109.296875" y="0" x="0" class="er entityBox"/><text style="dominant-baseline: middle; text-anchor: middle; font-size: 12px;" transform="translate(54.6484375,37.5)" y="0" x="0" id="text-entity-ConceptPerson-5bc76740-cf43-5d85-b395-ccd2059701ab" class="er entityLabel">ConceptPerson</text></g><g transform="translate(240.02392578125,545 )" id="entity-ConceptPlace-c8036425-51e1-55cc-94ba-a22c2cf48824"><rect height="75" width="103.580078125" y="0" x="0" class="er entityBox"/><text style="dominant-baseline: middle; text-anchor: middle; font-size: 12px;" transform="translate(51.7900390625,37.5)" y="0" x="0" id="text-entity-ConceptPlace-c8036425-51e1-55cc-94ba-a22c2cf48824" class="er entityLabel">ConceptPlace</text></g><g transform="translate(689.99365234375,545 )" id="entity-ConceptThing-6191e464-904d-5019-a6fa-5f7650be7eb0"><rect height="75" width="103.640625" y="0" x="0" class="er entityBox"/><text style="dominant-baseline: middle; text-anchor: middle; font-size: 12px;" transform="translate(51.8203125,37.5)" y="0" x="0" id="text-entity-ConceptThing-6191e464-904d-5019-a6fa-5f7650be7eb0" class="er entityLabel">ConceptThing</text></g><g transform="translate(476.97265625,370 )" id="entity-Family-b71e47d6-2741-521b-ad9b-b0a9aa269138"><rect height="75" width="100" y="0" x="0" class="er entityBox"/><text style="dominant-baseline: middle; text-anchor: middle; font-size: 12px;" transform="translate(50,37.5)" y="0" x="0" id="text-entity-Family-b71e47d6-2741-521b-ad9b-b0a9aa269138" class="er entityLabel">Family</text></g><g transform="translate(312.13134765625,195 )" id="entity-User-818c511a-4a32-5484-ba70-875d765a9175"><rect height="75" width="100" y="0" x="0" class="er entityBox"/><text style="dominant-baseline: middle; text-anchor: middle; font-size: 12px;" transform="translate(50,37.5)" y="0" x="0" id="text-entity-User-818c511a-4a32-5484-ba70-875d765a9175" class="er entityLabel">User</text></g><g transform="translate(512.13134765625,20 )" id="entity-Story-452b83c9-4f74-54d5-8215-e858d1ce0bcf"><rect height="75" width="100" y="0" x="0" class="er entityBox"/><text style="dominant-baseline: middle; text-anchor: middle; font-size: 12px;" transform="translate(50,37.5)" y="0" x="0" id="text-entity-Story-452b83c9-4f74-54d5-8215-e858d1ce0bcf" class="er entityLabel">Story</text></g><g transform="translate(512.13134765625,195 )" id="entity-UserStory-922a1317-8672-5689-b2f0-6fdfb36d9fec"><rect height="75" width="100" y="0" x="0" class="er entityBox"/><text style="dominant-baseline: middle; text-anchor: middle; font-size: 12px;" transform="translate(50,37.5)" y="0" x="0" id="text-entity-UserStory-922a1317-8672-5689-b2f0-6fdfb36d9fec" class="er entityLabel">UserStory</text></g><g transform="translate(941.81396484375,20 )" id="entity-Prediction-ff5be444-aeff-5109-b2b7-78a931851610"><rect height="75" width="100" y="0" x="0" class="er entityBox"/><text style="dominant-baseline: middle; text-anchor: middle; font-size: 12px;" transform="translate(50,37.5)" y="0" x="0" id="text-entity-Prediction-ff5be444-aeff-5109-b2b7-78a931851610" class="er entityLabel">Prediction</text></g><g transform="translate(712.13134765625,195 )" id="entity-DreamBoothPrediction-5da406a3-0b22-5728-a92f-981490637c08"><rect height="75" width="150.390625" y="0" x="0" class="er entityBox"/><text style="dominant-baseline: middle; text-anchor: middle; font-size: 12px;" transform="translate(75.1953125,37.5)" y="0" x="0" id="text-entity-DreamBoothPrediction-5da406a3-0b22-5728-a92f-981490637c08" class="er entityLabel">DreamBoothPrediction</text></g><rect height="14" width="24.18359375" y="138.00001525878906" x="269.087158203125" class="er relationshipLabelBox"/><text style="text-anchor: middle; dominant-baseline: middle; font-size: 12px;" y="145.00001525878906" x="281.178955078125" id="rel1" class="er relationshipLabel">User</text><rect height="14" width="55.125" y="138" x="658.4155883789062" class="er relationshipLabelBox"/><text style="text-anchor: middle; dominant-baseline: middle; font-size: 12px;" y="145" x="685.9780883789062" id="rel2" class="er relationshipLabel">prediction</text><rect height="14" width="22.958984375" y="289.15545654296875" x="183.0602569580078" class="er relationshipLabelBox"/><text style="text-anchor: middle; dominant-baseline: middle; font-size: 12px;" y="296.15545654296875" x="194.5397491455078" id="rel3" class="er relationshipLabel">user</text><rect height="14" width="22.958984375" y="404.2239990234375" x="340.4922180175781" class="er relationshipLabelBox"/><text style="text-anchor: middle; dominant-baseline: middle; font-size: 12px;" y="411.2239990234375" x="351.9717102050781" id="rel4" class="er relationshipLabel">user</text><rect height="14" width="35.525390625" y="506.1522216796875" x="415.96649169921875" class="er relationshipLabelBox"/><text style="text-anchor: middle; dominant-baseline: middle; font-size: 12px;" y="513.1522216796875" x="433.72918701171875" id="rel5" class="er relationshipLabel">Family</text><rect height="14" width="22.958984375" y="302.1310119628906" x="691.422607421875" class="er relationshipLabelBox"/><text style="text-anchor: middle; dominant-baseline: middle; font-size: 12px;" y="309.1310119628906" x="702.902099609375" id="rel6" class="er relationshipLabel">user</text><rect height="14" width="35.525390625" y="455.30615234375" x="733.4241943359375" class="er relationshipLabelBox"/><text style="text-anchor: middle; dominant-baseline: middle; font-size: 12px;" y="462.30615234375" x="751.1868896484375" id="rel7" class="er relationshipLabel">Family</text><rect height="14" width="22.958984375" y="287.0988464355469" x="496.04315185546875" class="er relationshipLabelBox"/><text style="text-anchor: middle; dominant-baseline: middle; font-size: 12px;" y="294.0988464355469" x="507.52264404296875" id="rel8" class="er relationshipLabel">user</text><rect height="14" width="34.015625" y="454.2174377441406" x="288.5611267089844" class="er relationshipLabelBox"/><text style="text-anchor: middle; dominant-baseline: middle; font-size: 12px;" y="461.2174377441406" x="305.5689392089844" id="rel9" class="er relationshipLabel">places</text><rect height="14" width="32.31640625" y="503.27423095703125" x="594.2958374023438" class="er relationshipLabelBox"/><text style="text-anchor: middle; dominant-baseline: middle; font-size: 12px;" y="510.27423095703125" x="610.4540405273438" id="rel10" class="er relationshipLabel">things</text><rect height="14" width="23.681640625" y="138" x="350.29052734375" class="er relationshipLabelBox"/><text style="text-anchor: middle; dominant-baseline: middle; font-size: 12px;" y="145" x="362.13134765625" id="rel11" class="er relationshipLabel">face</text><rect height="14" width="42.62890625" y="307.045654296875" x="443.6250305175781" class="er relationshipLabelBox"/><text style="text-anchor: middle; dominant-baseline: middle; font-size: 12px;" y="314.045654296875" x="464.9394836425781" id="rel12" class="er relationshipLabel">families</text><rect height="14" width="35.75" y="279.8138732910156" x="140.8607635498047" class="er relationshipLabelBox"/><text style="text-anchor: middle; dominant-baseline: middle; font-size: 12px;" y="286.8138732910156" x="158.7357635498047" id="rel13" class="er relationshipLabel">person</text><rect height="14" width="34.015625" y="390.8714599609375" x="234.97970581054688" class="er relationshipLabelBox"/><text style="text-anchor: middle; dominant-baseline: middle; font-size: 12px;" y="397.8714599609375" x="251.98751831054688" id="rel14" class="er relationshipLabel">places</text><rect height="14" width="32.31640625" y="313.1993713378906" x="633.9384155273438" class="er relationshipLabelBox"/><text style="text-anchor: middle; dominant-baseline: middle; font-size: 12px;" y="320.1993713378906" x="650.0966186523438" id="rel15" class="er relationshipLabel">things</text><rect height="14" width="51.48046875" y="138.00001525878906" x="455.438720703125" class="er relationshipLabelBox"/><text style="text-anchor: middle; dominant-baseline: middle; font-size: 12px;" y="145.00001525878906" x="481.178955078125" id="rel16" class="er relationshipLabel">UserStory</text><rect height="14" width="26.71875" y="138" x="548.77197265625" class="er relationshipLabelBox"/><text style="text-anchor: middle; dominant-baseline: middle; font-size: 12px;" y="145" x="562.13134765625" id="rel17" class="er relationshipLabel">story</text><rect height="14" width="78.974609375" y="138" x="747.83935546875" class="er relationshipLabelBox"/><text style="text-anchor: middle; dominant-baseline: middle; font-size: 12px;" y="145" x="787.32666015625" id="rel18" class="er relationshipLabel">ConceptTensor</text></svg>