<svg aria-roledescription="er" role="graphics-document document" viewBox="-121.19331359863281 0 1853.0452880859375 1340" style="max-width: 1853.05px; background-color: white;" xmlns:xlink="http://www.w3.org/1999/xlink" xmlns="http://www.w3.org/2000/svg" width="100%" id="mermaid-0"><style>#mermaid-0{font-family:"trebuchet ms",verdana,arial,sans-serif;font-size:16px;fill:#333;}#mermaid-0 .error-icon{fill:#552222;}#mermaid-0 .error-text{fill:#552222;stroke:#552222;}#mermaid-0 .edge-thickness-normal{stroke-width:2px;}#mermaid-0 .edge-thickness-thick{stroke-width:3.5px;}#mermaid-0 .edge-pattern-solid{stroke-dasharray:0;}#mermaid-0 .edge-pattern-dashed{stroke-dasharray:3;}#mermaid-0 .edge-pattern-dotted{stroke-dasharray:2;}#mermaid-0 .marker{fill:#333333;stroke:#333333;}#mermaid-0 .marker.cross{stroke:#333333;}#mermaid-0 svg{font-family:"trebuchet ms",verdana,arial,sans-serif;font-size:16px;}#mermaid-0 .entityBox{fill:#ECECFF;stroke:#9370DB;}#mermaid-0 .attributeBoxOdd{fill:#ffffff;stroke:#9370DB;}#mermaid-0 .attributeBoxEven{fill:#f2f2f2;stroke:#9370DB;}#mermaid-0 .relationshipLabelBox{fill:hsl(80, 100%, 96.2745098039%);opacity:0.7;background-color:hsl(80, 100%, 96.2745098039%);}#mermaid-0 .relationshipLabelBox rect{opacity:0.5;}#mermaid-0 .relationshipLine{stroke:#333333;}#mermaid-0 .entityTitleText{text-anchor:middle;font-size:18px;fill:#333;}#mermaid-0 :root{--mermaid-font-family:"trebuchet ms",verdana,arial,sans-serif;}</style><g/><defs><marker orient="auto" markerHeight="18" markerWidth="18" refY="9" refX="0" id="ONLY_ONE_START"><path d="M9,0 L9,18 M15,0 L15,18" fill="none" stroke="gray"/></marker></defs><defs><marker orient="auto" markerHeight="18" markerWidth="18" refY="9" refX="18" id="ONLY_ONE_END"><path d="M3,0 L3,18 M9,0 L9,18" fill="none" stroke="gray"/></marker></defs><defs><marker orient="auto" markerHeight="18" markerWidth="30" refY="9" refX="0" id="ZERO_OR_ONE_START"><circle r="6" cy="9" cx="21" fill="white" stroke="gray"/><path d="M9,0 L9,18" fill="none" stroke="gray"/></marker></defs><defs><marker orient="auto" markerHeight="18" markerWidth="30" refY="9" refX="30" id="ZERO_OR_ONE_END"><circle r="6" cy="9" cx="9" fill="white" stroke="gray"/><path d="M21,0 L21,18" fill="none" stroke="gray"/></marker></defs><defs><marker orient="auto" markerHeight="36" markerWidth="45" refY="18" refX="18" id="ONE_OR_MORE_START"><path d="M0,18 Q 18,0 36,18 Q 18,36 0,18 M42,9 L42,27" fill="none" stroke="gray"/></marker></defs><defs><marker orient="auto" markerHeight="36" markerWidth="45" refY="18" refX="27" id="ONE_OR_MORE_END"><path d="M3,9 L3,27 M9,18 Q27,0 45,18 Q27,36 9,18" fill="none" stroke="gray"/></marker></defs><defs><marker orient="auto" markerHeight="36" markerWidth="57" refY="18" refX="18" id="ZERO_OR_MORE_START"><circle r="6" cy="18" cx="48" fill="white" stroke="gray"/><path d="M0,18 Q18,0 36,18 Q18,36 0,18" fill="none" stroke="gray"/></marker></defs><defs><marker orient="auto" markerHeight="36" markerWidth="57" refY="18" refX="39" id="ZERO_OR_MORE_END"><circle r="6" cy="18" cx="9" fill="white" stroke="gray"/><path d="M21,18 Q39,0 57,18 Q39,36 21,18" fill="none" stroke="gray"/></marker></defs><path style="stroke: gray; fill: none;" marker-start="url(#ZERO_OR_MORE_START)" marker-end="url(#ZERO_OR_MORE_END)" d="M345,66.25L420,79.375C495,92.5,645,118.75,710.4761904761905,140.20833333333334C775.9523809523811,161.66666666666666,756.9047619047619,178.33333333333334,747.3809523809524,186.66666666666666L737.8571428571429,195" class="er relationshipLine"/><path style="stroke: gray; fill: none;" marker-start="url(#ZERO_OR_MORE_START)" marker-end="url(#ZERO_OR_MORE_END)" d="M295,95L295,103.33333333333333C295,111.66666666666667,295,128.33333333333334,295,151.25C295,174.16666666666666,295,203.33333333333334,295,232.5C295,261.6666666666667,295,290.8333333333333,295,320C295,349.1666666666667,295,378.3333333333333,295,407.5C295,436.6666666666667,295,465.8333333333333,295,495C295,524.1666666666666,295,553.3333333333334,295,582.5C295,611.6666666666666,295,640.8333333333334,295,670C295,699.1666666666666,295,728.3333333333334,295,757.5C295,786.6666666666666,295,815.8333333333334,265.8333333333333,841.7592592592592C236.66666666666666,867.6851851851852,178.33333333333334,890.3703703703704,149.16666666666666,901.712962962963L120,913.0555555555555" class="er relationshipLine"/><path style="stroke: gray; fill: none;" marker-start="url(#ZERO_OR_ONE_START)" marker-end="url(#ONLY_ONE_END)" d="M645,213.05555555555554L615.8333333333334,201.71296296296296C586.6666666666666,190.37037037037035,528.3333333333334,167.6851851851852,478.3333333333333,145.92592592592592C428.3333333333333,124.16666666666667,386.6666666666667,103.33333333333333,365.8333333333333,92.91666666666667L345,82.5" class="er relationshipLine"/><path style="stroke: gray; fill: none;" marker-start="url(#ZERO_OR_MORE_START)" marker-end="url(#ZERO_OR_MORE_END)" d="M745,245.96153846153845L790.8333333333334,258.30128205128204C836.6666666666666,270.64102564102564,928.3333333333334,295.3205128205128,969.4047619047619,315.9935897435898C1010.4761904761905,336.6666666666667,1000.9523809523811,353.3333333333333,996.1904761904763,361.6666666666667L991.4285714285714,370" class="er relationshipLine"/><path style="stroke: gray; fill: none;" marker-start="url(#ZERO_OR_MORE_START)" marker-end="url(#ZERO_OR_MORE_END)" d="M645,241.25L570,254.375C495,267.5,345,293.75,260.4761904761905,315.2083333333333C175.95238095238096,336.6666666666667,156.9047619047619,353.3333333333333,147.38095238095238,361.6666666666667L137.85714285714286,370" class="er relationshipLine"/><path style="stroke: gray; fill: none;" marker-start="url(#ZERO_OR_ONE_START)" marker-end="url(#ONLY_ONE_END)" d="M20,897.5L7.5,888.75C-5,880,-30,862.5,-42.5,839.1666666666666C-55,815.8333333333334,-55,786.6666666666666,-55,757.5C-55,728.3333333333334,-55,699.1666666666666,-55,670C-55,640.8333333333334,-55,611.6666666666666,-55,582.5C-55,553.3333333333334,-55,524.1666666666666,-55,495C-55,465.8333333333333,-55,436.6666666666667,-55,407.5C-55,378.3333333333333,-55,349.1666666666667,-55,320C-55,290.8333333333333,-55,261.6666666666667,-55,232.5C-55,203.33333333333334,-55,174.16666666666666,-5,147.08333333333334C45,120,145,95,195,82.5L245,70" class="er relationshipLine"/><path style="stroke: gray; fill: none;" marker-start="url(#ZERO_OR_MORE_START)" marker-end="url(#ZERO_OR_MORE_END)" d="M20,913.0555555555555L-9.166666666666666,901.7129629629629C-38.333333333333336,890.3703703703704,-96.66666666666667,867.6851851851852,-92.5,844.675925925926C-88.33333333333333,821.6666666666666,-21.666666666666668,798.3333333333334,11.666666666666666,786.6666666666666L45,775" class="er relationshipLine"/><path style="stroke: gray; fill: none;" marker-start="url(#ZERO_OR_MORE_START)" marker-end="url(#ZERO_OR_MORE_END)" d="M137.85714285714286,620L147.38095238095238,628.3333333333334C156.9047619047619,636.6666666666666,175.95238095238096,653.3333333333334,175.95238095238096,670C175.95238095238096,686.6666666666666,156.9047619047619,703.3333333333334,147.38095238095238,711.6666666666666L137.85714285714286,720" class="er relationshipLine"/><path style="stroke: gray; fill: none;" marker-start="url(#ZERO_OR_MORE_START)" marker-end="url(#ZERO_OR_MORE_END)" d="M95,545L95,536.6666666666666C95,528.3333333333334,95,511.6666666666667,95,495C95,478.3333333333333,95,461.6666666666667,95,453.3333333333333L95,445" class="er relationshipLine"/><path style="stroke: gray; fill: none;" marker-start="url(#ZERO_OR_MORE_START)" marker-end="url(#ZERO_OR_MORE_END)" d="M1412.857142857143,895L1405.7142857142856,886.6666666666666C1398.5714285714287,878.3333333333334,1384.2857142857144,861.6666666666666,1318.8095238095239,840.5729166666666C1253.3333333333333,819.4791666666666,1136.6666666666667,793.9583333333334,1078.3333333333333,781.1979166666666L1020,768.4375" class="er relationshipLine"/><path style="stroke: gray; fill: none;" marker-start="url(#ZERO_OR_MORE_START)" marker-end="url(#ZERO_OR_MORE_END)" d="M1495,945L1545,957.5C1595,970,1695,995,1690.8333333333333,1020.1388888888888C1686.6666666666667,1045.2777777777776,1578.3333333333333,1070.5555555555554,1524.1666666666667,1083.1944444444443L1470,1095.8333333333333" class="er relationshipLine"/><path style="stroke: gray; fill: none;" marker-start="url(#ZERO_OR_MORE_START)" marker-end="url(#ZERO_OR_MORE_END)" d="M648.5714285714286,895L643.8095238095237,886.6666666666666C639.047619047619,878.3333333333334,629.5238095238095,861.6666666666666,674.7619047619047,840.8333333333334C720,820,820,795,870,782.5L920,770" class="er relationshipLine"/><path style="stroke: gray; fill: none;" marker-start="url(#ZERO_OR_MORE_START)" marker-end="url(#ZERO_OR_MORE_END)" d="M620,903.3333333333334L603.3333333333334,893.6111111111112C586.6666666666666,883.888888888889,553.3333333333334,864.4444444444445,536.6666666666666,840.1388888888888C520,815.8333333333334,520,786.6666666666666,520,757.5C520,728.3333333333334,520,699.1666666666666,520,670C520,640.8333333333334,520,611.6666666666666,520,582.5C520,553.3333333333334,520,524.1666666666666,585.9446614583334,496.7607602719907C651.8893229166666,469.3548538773148,783.7786458333334,443.7097077546296,849.7233072916666,430.887134693287L915.66796875,418.06456163194446" class="er relationshipLine"/><path style="stroke: gray; fill: none;" marker-start="url(#ZERO_OR_MORE_START)" marker-end="url(#ZERO_OR_MORE_END)" d="M1398.5714285714287,1245L1393.8095238095239,1236.6666666666667C1389.047619047619,1228.3333333333333,1379.5238095238094,1211.6666666666667,1379.5238095238094,1195C1379.5238095238094,1178.3333333333333,1389.047619047619,1161.6666666666667,1393.8095238095239,1153.3333333333333L1398.5714285714287,1145" class="er relationshipLine"/><path style="stroke: gray; fill: none;" marker-start="url(#ZERO_OR_ONE_START)" marker-end="url(#ZERO_OR_ONE_END)" d="M970,795L970,803.3333333333334C970,811.6666666666666,970,828.3333333333334,928.3333333333334,848.8194444444445C886.6666666666666,869.3055555555555,803.3333333333334,893.611111111111,761.6666666666666,905.7638888888888L720,917.9166666666666" class="er relationshipLine"/><path style="stroke: gray; fill: none;" marker-start="url(#ZERO_OR_ONE_START)" marker-end="url(#ZERO_OR_ONE_END)" d="M1020,766.25L1095,779.375C1170,792.5,1320,818.75,1392.6190476190477,840.2083333333334C1465.2380952380954,861.6666666666666,1460.4761904761906,878.3333333333334,1458.0952380952383,886.6666666666666L1455.7142857142858,895" class="er relationshipLine"/><path style="stroke: gray; fill: none;" marker-start="url(#ZERO_OR_MORE_START)" marker-end="url(#ZERO_OR_MORE_END)" d="M948.5714285714286,720L943.8095238095239,711.6666666666666C939.0476190476189,703.3333333333334,929.5238095238095,686.6666666666666,978.9285714285714,665.6944444444445C1028.3333333333333,644.7222222222222,1136.6666666666667,619.4444444444445,1190.8333333333333,606.8055555555555L1245,594.1666666666666" class="er relationshipLine"/><path style="stroke: gray; fill: none;" marker-start="url(#ZERO_OR_MORE_START)" marker-end="url(#ZERO_OR_MORE_END)" d="M920,728.3333333333334L903.3333333333334,718.6111111111112C886.6666666666666,708.888888888889,853.3333333333334,689.4444444444445,836.6666666666666,665.1388888888889C820,640.8333333333334,820,611.6666666666666,820,582.5C820,553.3333333333334,820,524.1666666666666,835.9446614583334,500.28228081597223C851.8893229166666,476.39789496527777,883.7786458333334,457.7957899305555,899.7233072916666,448.4947374131944L915.66796875,439.1936848958333" class="er relationshipLine"/><path style="stroke: gray; fill: none;" marker-start="url(#ZERO_OR_MORE_START)" marker-end="url(#ZERO_OR_MORE_END)" d="M1020,763.5344827586207L1132.5,777.1120689655172C1245,790.6896551724138,1470,817.8448275862069,1582.5,846.0057471264367C1695,874.1666666666666,1695,903.3333333333334,1695,932.5C1695,961.6666666666666,1695,990.8333333333334,1657.5,1017.3484848484849C1620,1043.8636363636363,1545,1067.7272727272727,1507.5,1079.6590909090908L1470,1091.590909090909" class="er relationshipLine"/><path style="stroke: gray; fill: none;" marker-start="url(#ZERO_OR_ONE_START)" marker-end="url(#ONLY_ONE_END)" d="M1024.33203125,418.68600643382354L1086.1100260416667,431.4050053615196C1147.8880208333333,444.1240042892157,1271.4440104166667,469.5620021446078,1323.6981956845239,490.61433440563724C1375.952380952381,511.6666666666667,1356.904761904762,528.3333333333334,1347.3809523809525,536.6666666666666L1337.857142857143,545" class="er relationshipLine"/><path style="stroke: gray; fill: none;" marker-start="url(#ZERO_OR_ONE_START)" marker-end="url(#ONLY_ONE_END)" d="M1024.33203125,439.1936848958333L1040.2766927083333,448.4947374131944C1056.2213541666667,457.7957899305555,1088.1106770833333,476.39789496527777,1104.0553385416667,500.28228081597223C1120,524.1666666666666,1120,553.3333333333334,1120,582.5C1120,611.6666666666666,1120,640.8333333333334,1103.3333333333333,665.1388888888889C1086.6666666666667,689.4444444444445,1053.3333333333333,708.888888888889,1036.6666666666667,718.6111111111112L1020,728.3333333333334" class="er relationshipLine"/><path style="stroke: gray; fill: none;" marker-start="url(#ZERO_OR_ONE_START)" marker-end="url(#ONLY_ONE_END)" d="M915.66796875,426.5162109375L883.056640625,437.93017578125C850.4453125,449.34414062499997,785.22265625,472.1720703125,752.611328125,498.16936848958335C720,524.1666666666666,720,553.3333333333334,720,582.5C720,611.6666666666666,720,640.8333333333334,720,670C720,699.1666666666666,720,728.3333333333334,720,757.5C720,786.6666666666666,720,815.8333333333334,715.2380952380953,838.75C710.4761904761905,861.6666666666666,700.9523809523811,878.3333333333334,696.1904761904761,886.6666666666666L691.4285714285714,895" class="er relationshipLine"/><path style="stroke: gray; fill: none;" marker-start="url(#ZERO_OR_ONE_START)" marker-end="url(#ONLY_ONE_END)" d="M915.66796875,397.99189453125L841.3899739583334,384.9932454427083C767.1119791666666,371.9945963541666,618.5559895833334,345.99729817708334,573.4446614583334,321.6560564959491C528.3333333333334,297.31481481481484,586.6666666666666,274.6296296296296,615.8333333333334,263.287037037037L645,251.94444444444446" class="er relationshipLine"/><path style="stroke: gray; fill: none;" marker-start="url(#ZERO_OR_ONE_START)" marker-end="url(#ONLY_ONE_END)" d="M1370,1082.5L1349.1666666666667,1072.0833333333333C1328.3333333333333,1061.6666666666667,1286.6666666666667,1040.8333333333333,1265.8333333333333,1015.8333333333334C1245,990.8333333333334,1245,961.6666666666666,1245,932.5C1245,903.3333333333334,1245,874.1666666666666,1245,845C1245,815.8333333333334,1245,786.6666666666666,1245,757.5C1245,728.3333333333334,1245,699.1666666666666,1249.7619047619048,676.25C1254.5238095238094,653.3333333333334,1264.047619047619,636.6666666666666,1268.8095238095239,628.3333333333334L1273.5714285714287,620" class="er relationshipLine"/><path style="stroke: gray; fill: none;" marker-start="url(#ZERO_OR_ONE_START)" marker-end="url(#ONLY_ONE_END)" d="M1370,1103.2317073170732L1207.5,1089.359756097561C1045,1075.4878048780488,720,1047.7439024390244,557.5,1019.2886178861789C395,990.8333333333334,395,961.6666666666666,395,932.5C395,903.3333333333334,395,874.1666666666666,482.5,846.268115942029C570,818.3695652173914,745,791.7391304347826,832.5,778.4239130434781L920,765.1086956521739" class="er relationshipLine"/><path style="stroke: gray; fill: none;" marker-start="url(#ZERO_OR_ONE_START)" marker-end="url(#ZERO_OR_ONE_END)" d="M1370,1103.695652173913L1186.6666666666667,1089.7463768115942C1003.3333333333334,1075.7971014492753,636.6666666666666,1047.8985507246377,640.8333333333334,1019.986509404872C645,992.0744680851063,1020,964.1489361702128,1207.5,950.1861702127659L1395,936.2234042553191" class="er relationshipLine"/><path style="stroke: gray; fill: none;" marker-start="url(#ZERO_OR_ONE_START)" marker-end="url(#ZERO_OR_ONE_END)" d="M1441.4285714285713,1145L1446.1904761904761,1153.3333333333333C1450.952380952381,1161.6666666666667,1460.4761904761906,1178.3333333333333,1460.4761904761906,1195C1460.4761904761906,1211.6666666666667,1450.952380952381,1228.3333333333333,1446.1904761904761,1236.6666666666667L1441.4285714285713,1245" class="er relationshipLine"/><path style="stroke: gray; fill: none;" marker-start="url(#ZERO_OR_ONE_START)" marker-end="url(#ONLY_ONE_END)" d="M1245,598.4090909090909L1207.5,610.3409090909091C1170,622.2727272727273,1095,646.1363636363636,1052.7380952380952,666.4015151515151C1010.4761904761905,686.6666666666666,1000.9523809523811,703.3333333333334,996.1904761904763,711.6666666666666L991.4285714285714,720" class="er relationshipLine"/><path style="stroke: gray; fill: none;" marker-start="url(#ZERO_OR_MORE_START)" marker-end="url(#ZERO_OR_MORE_END)" d="M1273.5714285714287,545L1268.8095238095239,536.6666666666666C1264.047619047619,528.3333333333334,1254.5238095238094,511.6666666666667,1212.983909970238,491.63124408143943C1171.4440104166667,471.5958214962122,1097.8880208333333,448.19164299242425,1061.1100260416667,436.4895537405303L1024.33203125,424.7874644886364" class="er relationshipLine"/><path style="stroke: gray; fill: none;" marker-start="url(#ZERO_OR_MORE_START)" marker-end="url(#ZERO_OR_MORE_END)" d="M1345,597.0833333333334L1386.6666666666667,609.2361111111112C1428.3333333333333,621.3888888888889,1511.6666666666667,645.6944444444445,1553.3333333333333,672.4305555555555C1595,699.1666666666666,1595,728.3333333333334,1595,757.5C1595,786.6666666666666,1595,815.8333333333334,1595,845C1595,874.1666666666666,1595,903.3333333333334,1595,932.5C1595,961.6666666666666,1595,990.8333333333334,1574.1666666666667,1015.8333333333334C1553.3333333333333,1040.8333333333333,1511.6666666666667,1061.6666666666667,1490.8333333333333,1072.0833333333333L1470,1082.5" class="er relationshipLine"/><path style="stroke: gray; fill: none;" marker-start="url(#ZERO_OR_ONE_START)" marker-end="url(#ONLY_ONE_END)" d="M95,720L95,711.6666666666666C95,703.3333333333334,95,686.6666666666666,95,670C95,653.3333333333334,95,636.6666666666666,95,628.3333333333334L95,620" class="er relationshipLine"/><path style="stroke: gray; fill: none;" marker-start="url(#ZERO_OR_ONE_START)" marker-end="url(#ONLY_ONE_END)" d="M95,795L95,803.3333333333334C95,811.6666666666666,95,828.3333333333334,92.6190476190476,845C90.23809523809524,861.6666666666666,85.47619047619048,878.3333333333334,83.09523809523809,886.6666666666666L80.71428571428571,895" class="er relationshipLine"/><path style="stroke: gray; fill: none;" marker-start="url(#ZERO_OR_ONE_START)" marker-end="url(#ZERO_OR_ONE_END)" d="M137.85714285714286,445L147.38095238095238,453.3333333333333C156.9047619047619,461.6666666666667,175.95238095238096,478.3333333333333,175.95238095238096,495C175.95238095238096,511.6666666666667,156.9047619047619,528.3333333333334,147.38095238095238,536.6666666666666L137.85714285714286,545" class="er relationshipLine"/><path style="stroke: gray; fill: none;" marker-start="url(#ZERO_OR_MORE_START)" marker-end="url(#ZERO_OR_MORE_END)" d="M95,370L95,361.6666666666667C95,353.3333333333333,95,336.6666666666667,186.66666666666666,314.96527777777777C278.3333333333333,293.26388888888886,461.6666666666667,266.52777777777777,553.3333333333334,253.1597222222222L645,239.79166666666666" class="er relationshipLine"/><g transform="translate(245,20 )" id="entity-cloudfiles-bec280a5-4255-5a75-a844-10b0df5ee92d"><rect height="75" width="100" y="0" x="0" class="er entityBox"/><text style="dominant-baseline: middle; text-anchor: middle; font-size: 12px;" transform="translate(50,37.5)" y="0" x="0" id="text-entity-cloudfiles-bec280a5-4255-5a75-a844-10b0df5ee92d" class="er entityLabel">cloud_files</text></g><g transform="translate(645,195 )" id="entity-photos-5fc1034e-7064-5039-8fdd-86c2671473f3"><rect height="75" width="100" y="0" x="0" class="er entityBox"/><text style="dominant-baseline: middle; text-anchor: middle; font-size: 12px;" transform="translate(50,37.5)" y="0" x="0" id="text-entity-photos-5fc1034e-7064-5039-8fdd-86c2671473f3" class="er entityLabel">photos</text></g><g transform="translate(20,895 )" id="entity-pdfs-684f5ce7-c15f-5cc4-b990-b87235db5ed3"><rect height="75" width="100" y="0" x="0" class="er entityBox"/><text style="dominant-baseline: middle; text-anchor: middle; font-size: 12px;" transform="translate(50,37.5)" y="0" x="0" id="text-entity-pdfs-684f5ce7-c15f-5cc4-b990-b87235db5ed3" class="er entityLabel">pdfs</text></g><g transform="translate(45,545 )" id="entity-users-33ae1e26-be31-5c1d-bf65-e859e9d0308e"><rect height="75" width="100" y="0" x="0" class="er entityBox"/><text style="dominant-baseline: middle; text-anchor: middle; font-size: 12px;" transform="translate(50,37.5)" y="0" x="0" id="text-entity-users-33ae1e26-be31-5c1d-bf65-e859e9d0308e" class="er entityLabel">users</text></g><g transform="translate(1395,895 )" id="entity-Author-17acff7c-e0a9-5e68-a8c8-82d7688f389c"><rect height="75" width="100" y="0" x="0" class="er entityBox"/><text style="dominant-baseline: middle; text-anchor: middle; font-size: 12px;" transform="translate(50,37.5)" y="0" x="0" id="text-entity-Author-17acff7c-e0a9-5e68-a8c8-82d7688f389c" class="er entityLabel">Author</text></g><g transform="translate(620,895 )" id="entity-Artist-57a72993-74d6-5d47-9b6a-c32ca1bc9c44"><rect height="75" width="100" y="0" x="0" class="er entityBox"/><text style="dominant-baseline: middle; text-anchor: middle; font-size: 12px;" transform="translate(50,37.5)" y="0" x="0" id="text-entity-Artist-57a72993-74d6-5d47-9b6a-c32ca1bc9c44" class="er entityLabel">Artist</text></g><g transform="translate(1370,1245 )" id="entity-Translator-4ca5e3d1-183a-5457-a07c-c5989bb83097"><rect height="75" width="100" y="0" x="0" class="er entityBox"/><text style="dominant-baseline: middle; text-anchor: middle; font-size: 12px;" transform="translate(50,37.5)" y="0" x="0" id="text-entity-Translator-4ca5e3d1-183a-5457-a07c-c5989bb83097" class="er entityLabel">Translator</text></g><g transform="translate(920,720 )" id="entity-stories-2809256d-c184-5d2c-bc20-1bbabab3f3b6"><rect height="75" width="100" y="0" x="0" class="er entityBox"/><text style="dominant-baseline: middle; text-anchor: middle; font-size: 12px;" transform="translate(50,37.5)" y="0" x="0" id="text-entity-stories-2809256d-c184-5d2c-bc20-1bbabab3f3b6" class="er entityLabel">stories</text></g><g transform="translate(915.66796875,370 )" id="entity-pageartworks-a7eab14e-b22e-5c9b-8324-e39e37602eee"><rect height="75" width="108.6640625" y="0" x="0" class="er entityBox"/><text style="dominant-baseline: middle; text-anchor: middle; font-size: 12px;" transform="translate(54.33203125,37.5)" y="0" x="0" id="text-entity-pageartworks-a7eab14e-b22e-5c9b-8324-e39e37602eee" class="er entityLabel">page_artworks</text></g><g transform="translate(1370,1070 )" id="entity-pagetexts-32c866fa-30da-552d-8244-754db7f80206"><rect height="75" width="100" y="0" x="0" class="er entityBox"/><text style="dominant-baseline: middle; text-anchor: middle; font-size: 12px;" transform="translate(50,37.5)" y="0" x="0" id="text-entity-pagetexts-32c866fa-30da-552d-8244-754db7f80206" class="er entityLabel">page_texts</text></g><g transform="translate(1245,545 )" id="entity-pages-39cce197-6933-52c8-bffd-261df920aba6"><rect height="75" width="100" y="0" x="0" class="er entityBox"/><text style="dominant-baseline: middle; text-anchor: middle; font-size: 12px;" transform="translate(50,37.5)" y="0" x="0" id="text-entity-pages-39cce197-6933-52c8-bffd-261df920aba6" class="er entityLabel">pages</text></g><g transform="translate(45,720 )" id="entity-editions-ec9a561b-7f02-57e4-a4dc-d5ffa7296067"><rect height="75" width="100" y="0" x="0" class="er entityBox"/><text style="dominant-baseline: middle; text-anchor: middle; font-size: 12px;" transform="translate(50,37.5)" y="0" x="0" id="text-entity-editions-ec9a561b-7f02-57e4-a4dc-d5ffa7296067" class="er entityLabel">editions</text></g><g transform="translate(45,370 )" id="entity-concepts-e5c30013-81a7-5b12-b32b-265112a68fc8"><rect height="75" width="100" y="0" x="0" class="er entityBox"/><text style="dominant-baseline: middle; text-anchor: middle; font-size: 12px;" transform="translate(50,37.5)" y="0" x="0" id="text-entity-concepts-e5c30013-81a7-5b12-b32b-265112a68fc8" class="er entityLabel">concepts</text></g><g transform="translate(445,20 )" id="entity-predictions-1893ac28-1bf0-5313-b476-d32c8a0be2a7"><rect height="75" width="100" y="0" x="0" class="er entityBox"/><text style="dominant-baseline: middle; text-anchor: middle; font-size: 12px;" transform="translate(50,37.5)" y="0" x="0" id="text-entity-predictions-1893ac28-1bf0-5313-b476-d32c8a0be2a7" class="er entityLabel">predictions</text></g><rect height="14" width="30.8828125" y="100.51980590820312" x="557.6673583984375" class="er relationshipLabelBox"/><text style="text-anchor: middle; dominant-baseline: middle; font-size: 12px;" y="107.51980590820312" x="573.1087646484375" id="rel1" class="er relationshipLabel">Photo</text><rect height="14" width="21.05078125" y="547.07470703125" x="284.474609375" class="er relationshipLabelBox"/><text style="text-anchor: middle; dominant-baseline: middle; font-size: 12px;" y="554.07470703125" x="295" id="rel2" class="er relationshipLabel">PDF</text><rect height="14" width="18.396484375" y="145.25308227539062" x="483.8410949707031" class="er relationshipLabelBox"/><text style="text-anchor: middle; dominant-baseline: middle; font-size: 12px;" y="152.25308227539062" x="493.0393371582031" id="rel3" class="er relationshipLabel">file</text><rect height="14" width="73.14453125" y="280.2817077636719" x="855.8847045898438" class="er relationshipLabelBox"/><text style="text-anchor: middle; dominant-baseline: middle; font-size: 12px;" y="287.2817077636719" x="892.4569702148438" id="rel4" class="er relationshipLabel">pageArtworks</text><rect height="14" width="47.8671875" y="281.0980529785156" x="361.468505859375" class="er relationshipLabelBox"/><text style="text-anchor: middle; dominant-baseline: middle; font-size: 12px;" y="288.0980529785156" x="385.402099609375" id="rel5" class="er relationshipLabel">concepts</text><rect height="14" width="18.396484375" y="388.8216552734375" x="-64.19823837280273" class="er relationshipLabelBox"/><text style="text-anchor: middle; dominant-baseline: middle; font-size: 12px;" y="395.8216552734375" x="-54.999996185302734" id="rel6" class="er relationshipLabel">file</text><rect height="14" width="26.564453125" y="828.705810546875" x="-101.19331359863281" class="er relationshipLabelBox"/><text style="text-anchor: middle; dominant-baseline: middle; font-size: 12px;" y="835.705810546875" x="-87.91108703613281" id="rel7" class="er relationshipLabel">book</text><rect height="14" width="37.71875" y="663" x="157.09300231933594" class="er relationshipLabelBox"/><text style="text-anchor: middle; dominant-baseline: middle; font-size: 12px;" y="670" x="175.95237731933594" id="rel8" class="er relationshipLabel">Edition</text><rect height="14" width="44.345703125" y="488" x="72.8271484375" class="er relationshipLabelBox"/><text style="text-anchor: middle; dominant-baseline: middle; font-size: 12px;" y="495" x="95" id="rel9" class="er relationshipLabel">Concept</text><rect height="14" width="35.685546875" y="807.5308837890625" x="1206.0208740234375" class="er relationshipLabelBox"/><text style="text-anchor: middle; dominant-baseline: middle; font-size: 12px;" y="814.5308837890625" x="1223.8636474609375" id="rel10" class="er relationshipLabel">stories</text><rect height="14" width="53.345703125" y="1022.1715087890625" x="1658.4349365234375" class="er relationshipLabelBox"/><text style="text-anchor: middle; dominant-baseline: middle; font-size: 12px;" y="1029.1715087890625" x="1685.1077880859375" id="rel11" class="er relationshipLabel">pageTexts</text><rect height="14" width="35.685546875" y="804.3828125" x="742.7966918945312" class="er relationshipLabelBox"/><text style="text-anchor: middle; dominant-baseline: middle; font-size: 12px;" y="811.3828125" x="760.6394653320312" id="rel12" class="er relationshipLabel">stories</text><rect height="14" width="73.14453125" y="531.4808959960938" x="491.95513916015625" class="er relationshipLabelBox"/><text style="text-anchor: middle; dominant-baseline: middle; font-size: 12px;" y="538.4808959960938" x="528.5274047851562" id="rel13" class="er relationshipLabel">pageArtworks</text><rect height="14" width="53.345703125" y="1188" x="1352.8509521484375" class="er relationshipLabelBox"/><text style="text-anchor: middle; dominant-baseline: middle; font-size: 12px;" y="1195" x="1379.5238037109375" id="rel14" class="er relationshipLabel">pageTexts</text><rect height="14" width="29.005859375" y="868.3451538085938" x="845.8221435546875" class="er relationshipLabelBox"/><text style="text-anchor: middle; dominant-baseline: middle; font-size: 12px;" y="875.3451538085938" x="860.3250732421875" id="rel15" class="er relationshipLabel">artist</text><rect height="14" width="35.615234375" y="801.56396484375" x="1236.583984375" class="er relationshipLabelBox"/><text style="text-anchor: middle; dominant-baseline: middle; font-size: 12px;" y="808.56396484375" x="1254.3916015625" id="rel16" class="er relationshipLabel">author</text><rect height="14" width="30.55859375" y="628.6189575195312" x="1058.41748046875" class="er relationshipLabelBox"/><text style="text-anchor: middle; dominant-baseline: middle; font-size: 12px;" y="635.6189575195312" x="1073.69677734375" id="rel17" class="er relationshipLabel">pages</text><rect height="14" width="73.14453125" y="577.8815307617188" x="783.4295043945312" class="er relationshipLabelBox"/><text style="text-anchor: middle; dominant-baseline: middle; font-size: 12px;" y="584.8815307617188" x="820.0017700195312" id="rel18" class="er relationshipLabel">pageArtworks</text><rect height="14" width="53.345703125" y="826.8922729492188" x="1500.6517333984375" class="er relationshipLabelBox"/><text style="text-anchor: middle; dominant-baseline: middle; font-size: 12px;" y="833.8922729492188" x="1527.3245849609375" id="rel19" class="er relationshipLabel">pageTexts</text><rect height="14" width="26.013671875" y="452.3913879394531" x="1201.85400390625" class="er relationshipLabelBox"/><text style="text-anchor: middle; dominant-baseline: middle; font-size: 12px;" y="459.3913879394531" x="1214.86083984375" id="rel20" class="er relationshipLabel">page</text><rect height="14" width="26.71875" y="577.881591796875" x="1106.638916015625" class="er relationshipLabelBox"/><text style="text-anchor: middle; dominant-baseline: middle; font-size: 12px;" y="584.881591796875" x="1119.998291015625" id="rel21" class="er relationshipLabel">story</text><rect height="14" width="29.005859375" y="597.8197021484375" x="705.4970703125" class="er relationshipLabelBox"/><text style="text-anchor: middle; dominant-baseline: middle; font-size: 12px;" y="604.8197021484375" x="720" id="rel22" class="er relationshipLabel">artist</text><rect height="14" width="31.439453125" y="346.62750244140625" x="662.7854614257812" class="er relationshipLabelBox"/><text style="text-anchor: middle; dominant-baseline: middle; font-size: 12px;" y="353.62750244140625" x="678.5051879882812" id="rel23" class="er relationshipLabel">photo</text><rect height="14" width="26.013671875" y="872.746826171875" x="1231.9931640625" class="er relationshipLabelBox"/><text style="text-anchor: middle; dominant-baseline: middle; font-size: 12px;" y="879.746826171875" x="1245" id="rel24" class="er relationshipLabel">page</text><rect height="14.00006103515625" width="26.71875" y="1015.3458557128906" x="562.2373657226562" class="er relationshipLabelBox"/><text style="text-anchor: middle; dominant-baseline: middle; font-size: 12px;" y="1022.3458862304688" x="575.5967407226562" id="rel25" class="er relationshipLabel">story</text><rect height="14" width="35.615234375" y="1005.7440795898438" x="632.0889282226562" class="er relationshipLabelBox"/><text style="text-anchor: middle; dominant-baseline: middle; font-size: 12px;" y="1012.7440795898438" x="649.8965454101562" id="rel26" class="er relationshipLabel">author</text><rect height="14" width="53.181640625" y="1188" x="1433.8853759765625" class="er relationshipLabelBox"/><text style="text-anchor: middle; dominant-baseline: middle; font-size: 12px;" y="1195" x="1460.4761962890625" id="rel27" class="er relationshipLabel">translator</text><rect height="14" width="26.71875" y="636.5421142578125" x="1095.2886962890625" class="er relationshipLabelBox"/><text style="text-anchor: middle; dominant-baseline: middle; font-size: 12px;" y="643.5421142578125" x="1108.6480712890625" id="rel28" class="er relationshipLabel">story</text><rect height="14" width="46.8125" y="462.2570495605469" x="1135.123779296875" class="er relationshipLabelBox"/><text style="text-anchor: middle; dominant-baseline: middle; font-size: 12px;" y="469.2570495605469" x="1158.530029296875" id="rel29" class="er relationshipLabel">artworks</text><rect height="14" width="27.072265625" y="782.9556884765625" x="1581.4638671875" class="er relationshipLabelBox"/><text style="text-anchor: middle; dominant-baseline: middle; font-size: 12px;" y="789.9556884765625" x="1595" id="rel30" class="er relationshipLabel">texts</text><rect height="14" width="22.958984375" y="663" x="83.5205078125" class="er relationshipLabelBox"/><text style="text-anchor: middle; dominant-baseline: middle; font-size: 12px;" y="670" x="95" id="rel31" class="er relationshipLabel">user</text><rect height="14" width="18.37109375" y="838.6619262695312" x="83.33748626708984" class="er relationshipLabelBox"/><text style="text-anchor: middle; dominant-baseline: middle; font-size: 12px;" y="845.6619262695312" x="92.52303314208984" id="rel32" class="er relationshipLabel">pdf</text><rect height="14" width="22.958984375" y="488" x="164.47288513183594" class="er relationshipLabelBox"/><text style="text-anchor: middle; dominant-baseline: middle; font-size: 12px;" y="495" x="175.95237731933594" id="rel33" class="er relationshipLabel">user</text><rect height="14" width="35.87890625" y="275.9300231933594" x="339.7559814453125" class="er relationshipLabelBox"/><text style="text-anchor: middle; dominant-baseline: middle; font-size: 12px;" y="282.9300231933594" x="357.6954345703125" id="rel34" class="er relationshipLabel">photos</text></svg>