<svg aria-roledescription="er" role="graphics-document document" viewBox="0 0 2190.30078125 1865" style="max-width: 2190.3px; background-color: white;" xmlns:xlink="http://www.w3.org/1999/xlink" xmlns="http://www.w3.org/2000/svg" width="100%" id="my-svg"><style>#my-svg{font-family:"trebuchet ms",verdana,arial,sans-serif;font-size:16px;fill:#333;}#my-svg .error-icon{fill:#552222;}#my-svg .error-text{fill:#552222;stroke:#552222;}#my-svg .edge-thickness-normal{stroke-width:2px;}#my-svg .edge-thickness-thick{stroke-width:3.5px;}#my-svg .edge-pattern-solid{stroke-dasharray:0;}#my-svg .edge-pattern-dashed{stroke-dasharray:3;}#my-svg .edge-pattern-dotted{stroke-dasharray:2;}#my-svg .marker{fill:#333333;stroke:#333333;}#my-svg .marker.cross{stroke:#333333;}#my-svg svg{font-family:"trebuchet ms",verdana,arial,sans-serif;font-size:16px;}#my-svg .entityBox{fill:#ECECFF;stroke:#9370DB;}#my-svg .attributeBoxOdd{fill:#ffffff;stroke:#9370DB;}#my-svg .attributeBoxEven{fill:#f2f2f2;stroke:#9370DB;}#my-svg .relationshipLabelBox{fill:hsl(80, 100%, 96.2745098039%);opacity:0.7;background-color:hsl(80, 100%, 96.2745098039%);}#my-svg .relationshipLabelBox rect{opacity:0.5;}#my-svg .relationshipLine{stroke:#333333;}#my-svg .entityTitleText{text-anchor:middle;font-size:18px;fill:#333;}#my-svg #MD_PARENT_START{fill:#f5f5f5!important;stroke:#333333!important;stroke-width:1;}#my-svg #MD_PARENT_END{fill:#f5f5f5!important;stroke:#333333!important;stroke-width:1;}#my-svg :root{--mermaid-font-family:"trebuchet ms",verdana,arial,sans-serif;}</style><g/><defs><marker orient="auto" markerHeight="240" markerWidth="190" refY="7" refX="0" id="MD_PARENT_START"><path d="M 18,7 L9,13 L1,7 L9,1 Z"/></marker></defs><defs><marker orient="auto" markerHeight="28" markerWidth="20" refY="7" refX="19" id="MD_PARENT_END"><path d="M 18,7 L9,13 L1,7 L9,1 Z"/></marker></defs><defs><marker orient="auto" markerHeight="18" markerWidth="18" refY="9" refX="0" id="ONLY_ONE_START"><path d="M9,0 L9,18 M15,0 L15,18" fill="none" stroke="gray"/></marker></defs><defs><marker orient="auto" markerHeight="18" markerWidth="18" refY="9" refX="18" id="ONLY_ONE_END"><path d="M3,0 L3,18 M9,0 L9,18" fill="none" stroke="gray"/></marker></defs><defs><marker orient="auto" markerHeight="18" markerWidth="30" refY="9" refX="0" id="ZERO_OR_ONE_START"><circle r="6" cy="9" cx="21" fill="white" stroke="gray"/><path d="M9,0 L9,18" fill="none" stroke="gray"/></marker></defs><defs><marker orient="auto" markerHeight="18" markerWidth="30" refY="9" refX="30" id="ZERO_OR_ONE_END"><circle r="6" cy="9" cx="9" fill="white" stroke="gray"/><path d="M21,0 L21,18" fill="none" stroke="gray"/></marker></defs><defs><marker orient="auto" markerHeight="36" markerWidth="45" refY="18" refX="18" id="ONE_OR_MORE_START"><path d="M0,18 Q 18,0 36,18 Q 18,36 0,18 M42,9 L42,27" fill="none" stroke="gray"/></marker></defs><defs><marker orient="auto" markerHeight="36" markerWidth="45" refY="18" refX="27" id="ONE_OR_MORE_END"><path d="M3,9 L3,27 M9,18 Q27,0 45,18 Q27,36 9,18" fill="none" stroke="gray"/></marker></defs><defs><marker orient="auto" markerHeight="36" markerWidth="57" refY="18" refX="18" id="ZERO_OR_MORE_START"><circle r="6" cy="18" cx="48" fill="white" stroke="gray"/><path d="M0,18 Q18,0 36,18 Q18,36 0,18" fill="none" stroke="gray"/></marker></defs><defs><marker orient="auto" markerHeight="36" markerWidth="57" refY="18" refX="39" id="ZERO_OR_MORE_END"><circle r="6" cy="18" cx="9" fill="white" stroke="gray"/><path d="M21,18 Q39,0 57,18 Q39,36 21,18" fill="none" stroke="gray"/></marker></defs><path style="stroke: gray; fill: none;" marker-start="url(#ZERO_OR_MORE_START)" marker-end="url(#ZERO_OR_MORE_END)" d="M1150.982421875,62.81698991908206L1279.7880859375,76.51415826590171C1408.59375,90.21132661272138,1666.205078125,117.60566330636068,1703.705078125,144.66648412907804C1741.205078125,171.7273049517954,1558.59375,198.45460990359075,1467.2880859375,211.81826237948846L1375.982421875,225.18191485538614" class="er relationshipLine"/><path style="stroke: gray; fill: none;" marker-start="url(#ZERO_OR_MORE_START)" marker-end="url(#ZERO_OR_MORE_END)" d="M1050.982421875,91.90384585848346L1038.1214192708333,100.75320488206955C1025.2604166666667,109.60256390565564,999.5384114583334,127.30128195282782,986.6774088541666,150.73397430974725C973.81640625,174.16666666666666,973.81640625,203.33333333333334,973.81640625,232.5C973.81640625,261.6666666666667,973.81640625,290.8333333333333,973.81640625,320C973.81640625,349.1666666666667,973.81640625,378.3333333333333,973.81640625,407.5C973.81640625,436.6666666666667,973.81640625,465.8333333333333,964.2925967261905,488.75C954.7687872023811,511.6666666666667,935.7211681547619,528.3333333333334,926.1973586309524,536.6666666666666L916.6735491071429,545" class="er relationshipLine"/><path style="stroke: gray; fill: none;" marker-start="url(#ZERO_OR_MORE_START)" marker-end="url(#ZERO_OR_MORE_END)" d="M1150.982421875,61.67527973442239L1317.2880859375,75.56273311201865C1483.59375,89.45018648961492,1816.205078125,117.22509324480745,1982.5107421875,145.69587995573707C2148.81640625,174.16666666666666,2148.81640625,203.33333333333334,2148.81640625,232.5C2148.81640625,261.6666666666667,2148.81640625,290.8333333333333,2148.81640625,320C2148.81640625,349.1666666666667,2148.81640625,378.3333333333333,2148.81640625,407.5C2148.81640625,436.6666666666667,2148.81640625,465.8333333333333,2148.81640625,495C2148.81640625,524.1666666666666,2148.81640625,553.3333333333334,2148.81640625,582.5C2148.81640625,611.6666666666666,2148.81640625,640.8333333333334,2148.81640625,670C2148.81640625,699.1666666666666,2148.81640625,728.3333333333334,2148.81640625,757.5C2148.81640625,786.6666666666666,2148.81640625,815.8333333333334,2148.81640625,845C2148.81640625,874.1666666666666,2148.81640625,903.3333333333334,2148.81640625,932.5C2148.81640625,961.6666666666666,2148.81640625,990.8333333333334,2148.81640625,1020C2148.81640625,1049.1666666666667,2148.81640625,1078.3333333333333,2148.81640625,1107.5C2148.81640625,1136.6666666666667,2148.81640625,1165.8333333333333,2148.81640625,1195C2148.81640625,1224.1666666666667,2148.81640625,1253.3333333333333,2148.81640625,1282.5C2148.81640625,1311.6666666666667,2148.81640625,1340.8333333333333,2148.81640625,1370C2148.81640625,1399.1666666666667,2148.81640625,1428.3333333333333,2148.81640625,1457.5C2148.81640625,1486.6666666666667,2148.81640625,1515.8333333333333,2148.81640625,1545C2148.81640625,1574.1666666666667,2148.81640625,1603.3333333333333,2148.81640625,1632.5C2148.81640625,1661.6666666666667,2148.81640625,1690.8333333333333,1952.9830729166667,1719.4047619047617C1757.1497395833333,1747.9761904761906,1365.4830729166667,1775.952380952381,1169.6497395833333,1789.9404761904761L973.81640625,1803.9285714285713" class="er relationshipLine"/><path style="stroke: gray; fill: none;" marker-start="url(#ZERO_OR_MORE_START)" marker-end="url(#ZERO_OR_MORE_END)" d="M830.9592633928571,545L821.4354538690476,536.6666666666666C811.9116443452381,528.3333333333334,792.8640252976189,511.6666666666667,867.0345517113095,490.0705569448915C941.205078125,468.4744472231164,1108.59375,441.9488944462327,1192.2880859375,428.6861180577909L1275.982421875,415.42334166934904" class="er relationshipLine"/><path style="stroke: gray; fill: none;" marker-start="url(#ZERO_OR_MORE_START)" marker-end="url(#ZERO_OR_MORE_END)" d="M923.81640625,595L973.81640625,607.5C1023.81640625,620,1123.81640625,645,1115.8440755208333,670.2504917579405C1107.8717447916667,695.5009835158811,991.9270833333334,721.0019670317621,933.9547526041666,733.7524587897027L875.982421875,746.5029505476432" class="er relationshipLine"/><path style="stroke: gray; fill: none;" marker-start="url(#ZERO_OR_ONE_START)" marker-end="url(#ONLY_ONE_END)" d="M823.81640625,560.625L798.81640625,549.6875C773.81640625,538.75,723.81640625,516.875,698.81640625,491.3541666666667C673.81640625,465.8333333333333,673.81640625,436.6666666666667,673.81640625,407.5C673.81640625,378.3333333333333,673.81640625,349.1666666666667,673.81640625,320C673.81640625,290.8333333333333,673.81640625,261.6666666666667,673.81640625,232.5C673.81640625,203.33333333333334,673.81640625,174.16666666666666,736.6774088541666,146.70698660472743C799.5384114583334,119.2473065427882,925.2604166666666,93.49461308557642,988.1214192708334,80.61826635697052L1050.982421875,67.74191962836463" class="er relationshipLine"/><path style="stroke: gray; fill: none;" marker-start="url(#ZERO_OR_MORE_START)" marker-end="url(#ZERO_OR_MORE_END)" d="M1375.982421875,241.75271901888132L1446.4547526041667,254.79393251573444C1516.9270833333333,267.83514601258753,1657.8717447916667,293.91757300629376,1657.8717447916667,320C1657.8717447916667,346.0824269937062,1516.9270833333333,372.1648539874124,1446.4547526041667,385.20606748426553L1375.982421875,398.24728098111865" class="er relationshipLine"/><path style="stroke: gray; fill: none;" marker-start="url(#ZERO_OR_MORE_START)" marker-end="url(#ZERO_OR_MORE_END)" d="M1375.982421875,239.25327337793308L1475.6214192708333,252.7110611482776C1575.2604166666667,266.168848918622,1774.5384114583333,293.08442445931104,1874.1774088541667,321.12554556298886C1973.81640625,349.1666666666667,1973.81640625,378.3333333333333,1973.81640625,407.5C1973.81640625,436.6666666666667,1973.81640625,465.8333333333333,1973.81640625,495C1973.81640625,524.1666666666666,1973.81640625,553.3333333333334,1973.81640625,582.5C1973.81640625,611.6666666666666,1973.81640625,640.8333333333334,1973.81640625,670C1973.81640625,699.1666666666666,1973.81640625,728.3333333333334,1973.81640625,757.5C1973.81640625,786.6666666666666,1973.81640625,815.8333333333334,1973.81640625,845C1973.81640625,874.1666666666666,1973.81640625,903.3333333333334,1973.81640625,932.5C1973.81640625,961.6666666666666,1973.81640625,990.8333333333334,1912.0384114583333,1018.1356655943628C1850.2604166666667,1045.4379978553923,1726.7044270833333,1070.8759957107843,1664.9264322916667,1083.5949946384806L1603.1484375,1096.3139935661766" class="er relationshipLine"/><path style="stroke: gray; fill: none;" marker-start="url(#ZERO_OR_ONE_START)" marker-end="url(#ONLY_ONE_END)" d="M1275.982421875,213.24095727759675L1246.4547526041667,201.8674643979973C1216.9270833333333,190.49397151839784,1157.8717447916667,167.7469857591989,1128.5503627232144,148.04015954626612C1099.228980654762,128.33333333333334,1099.6415550595239,111.66666666666667,1099.8478422619048,103.33333333333333L1100.0541294642858,95" class="er relationshipLine"/><path style="stroke: gray; fill: none;" marker-start="url(#ZERO_OR_MORE_START)" marker-end="url(#ZERO_OR_MORE_END)" d="M77.38783482142857,895L72.62593005952381,886.6666666666666C67.86402529761905,878.3333333333334,58.34021577380952,861.6666666666666,174.77264694940473,839.6882379723337C291.205078125,817.7098092780008,533.59375,790.4196185560016,654.7880859375,776.774523195002L775.982421875,763.1294278340023" class="er relationshipLine"/><path style="stroke: gray; fill: none;" marker-start="url(#ZERO_OR_ONE_START)" marker-end="url(#ZERO_OR_ONE_END)" d="M110.63950892857143,1495L115.40141369047619,1503.3333333333333C120.16331845238096,1511.6666666666667,129.68712797619048,1528.3333333333333,129.68712797619048,1545C129.68712797619048,1561.6666666666667,120.16331845238096,1578.3333333333333,115.4014136904762,1586.6666666666667L110.63950892857143,1595" class="er relationshipLine"/><path style="stroke: gray; fill: none;" marker-start="url(#ZERO_OR_MORE_START)" marker-end="url(#ZERO_OR_MORE_END)" d="M67.78236607142857,1420L63.0204613095238,1411.6666666666667C58.258556547619044,1403.3333333333333,48.73474702380952,1386.6666666666667,287.24042038690476,1364.233018034686C525.74609375,1341.7993694027052,1012.28125,1313.5987388054102,1255.548828125,1299.4984235067627L1498.81640625,1285.3981082081152" class="er relationshipLine"/><path style="stroke: gray; fill: none;" marker-start="url(#ZERO_OR_MORE_START)" marker-end="url(#ZERO_OR_MORE_END)" d="M67.78236607142857,1595L63.0204613095238,1586.6666666666667C58.258556547619044,1578.3333333333333,48.73474702380952,1561.6666666666667,48.73474702380952,1545C48.73474702380952,1528.3333333333333,58.258556547619044,1511.6666666666667,63.0204613095238,1503.3333333333333L67.78236607142857,1495" class="er relationshipLine"/><path style="stroke: gray; fill: none;" marker-start="url(#ZERO_OR_ONE_START)" marker-end="url(#ONLY_ONE_END)" d="M873.81640625,1800.7692307692307L773.81640625,1787.3076923076924C673.81640625,1773.8461538461536,473.81640625,1746.923076923077,373.81640625,1718.878205128205C273.81640625,1690.8333333333333,273.81640625,1661.6666666666667,273.81640625,1632.5C273.81640625,1603.3333333333333,273.81640625,1574.1666666666667,273.81640625,1545C273.81640625,1515.8333333333333,273.81640625,1486.6666666666667,273.81640625,1457.5C273.81640625,1428.3333333333333,273.81640625,1399.1666666666667,273.81640625,1370C273.81640625,1340.8333333333333,273.81640625,1311.6666666666667,273.81640625,1282.5C273.81640625,1253.3333333333333,273.81640625,1224.1666666666667,273.81640625,1195C273.81640625,1165.8333333333333,273.81640625,1136.6666666666667,273.81640625,1107.5C273.81640625,1078.3333333333333,273.81640625,1049.1666666666667,273.81640625,1020C273.81640625,990.8333333333334,273.81640625,961.6666666666666,273.81640625,932.5C273.81640625,903.3333333333334,273.81640625,874.1666666666666,273.81640625,845C273.81640625,815.8333333333334,273.81640625,786.6666666666666,273.81640625,757.5C273.81640625,728.3333333333334,273.81640625,699.1666666666666,273.81640625,670C273.81640625,640.8333333333334,273.81640625,611.6666666666666,273.81640625,582.5C273.81640625,553.3333333333334,273.81640625,524.1666666666666,273.81640625,495C273.81640625,465.8333333333333,273.81640625,436.6666666666667,273.81640625,407.5C273.81640625,378.3333333333333,273.81640625,349.1666666666667,273.81640625,320C273.81640625,290.8333333333333,273.81640625,261.6666666666667,273.81640625,232.5C273.81640625,203.33333333333334,273.81640625,174.16666666666666,403.3440755208333,145.88152396603928C532.8717447916666,117.59638126541192,791.9270833333334,90.19276253082383,921.4547526041666,76.49095316352978L1050.982421875,62.789143796235734" class="er relationshipLine"/><path style="stroke: gray; fill: none;" marker-start="url(#ZERO_OR_ONE_START)" marker-end="url(#ONLY_ONE_END)" d="M873.81640625,1801.6666666666667L757.1497395833334,1788.0555555555557C640.4830729166666,1774.4444444444446,407.1497395833333,1747.2222222222224,511.31640625,1719.5580808080806C615.4830729166666,1691.8939393939393,1057.1497395833333,1663.7878787878788,1277.9830729166667,1649.7348484848483L1498.81640625,1635.6818181818182" class="er relationshipLine"/><path style="stroke: gray; fill: none;" marker-start="url(#ZERO_OR_MORE_START)" marker-end="url(#ZERO_OR_MORE_END)" d="M1498.81640625,1447.7307548050294L1432.5107421875,1434.7756290041914C1366.205078125,1421.820503203353,1233.59375,1395.9102516016765,1233.59375,1370C1233.59375,1344.0897483983235,1366.205078125,1318.179496796647,1432.5107421875,1305.2243709958088L1498.81640625,1292.2692451949706" class="er relationshipLine"/><path style="stroke: gray; fill: none;" marker-start="url(#ZERO_OR_MORE_START)" marker-end="url(#ZERO_OR_MORE_END)" d="M1598.81640625,1466.7105263157894L1669.6497395833333,1479.7587719298244C1740.4830729166667,1492.8070175438595,1882.1497395833333,1518.9035087719296,1882.1497395833333,1545C1882.1497395833333,1571.0964912280704,1740.4830729166667,1597.1929824561405,1669.6497395833333,1610.2412280701756L1598.81640625,1623.2894736842106" class="er relationshipLine"/><path style="stroke: gray; fill: none;" marker-start="url(#ZERO_OR_ONE_START)" marker-end="url(#ONLY_ONE_END)" d="M1598.81640625,1291.7105263157894L1669.6497395833333,1304.7587719298244C1740.4830729166667,1317.8070175438595,1882.1497395833333,1343.9035087719296,1882.1497395833333,1370C1882.1497395833333,1396.0964912280704,1740.4830729166667,1422.1929824561405,1669.6497395833333,1435.2412280701756L1598.81640625,1448.2894736842106" class="er relationshipLine"/><path style="stroke: gray; fill: none;" marker-start="url(#ZERO_OR_MORE_START)" marker-end="url(#ZERO_OR_MORE_END)" d="M1498.81640625,1278.6884731942466L1315.8440755208333,1264.7403943285387C1132.8717447916667,1250.792315462831,766.9270833333334,1222.8961577314155,766.205078125,1195.055038844109C765.4830729166666,1167.2139199568028,1129.9837239583333,1139.4278399136053,1312.2340494791667,1125.5347998920067L1494.484375,1111.6417598704081" class="er relationshipLine"/><path style="stroke: gray; fill: none;" marker-start="url(#ZERO_OR_MORE_START)" marker-end="url(#ZERO_OR_MORE_END)" d="M1498.81640625,1285.6037053253488L1272.2154947916667,1299.6697544377905C1045.6145833333333,1313.7358035502325,592.4127604166666,1341.8679017751163,361.0499441964286,1364.2672842208915C129.68712797619048,1386.6666666666667,120.16331845238096,1403.3333333333333,115.4014136904762,1411.6666666666667L110.63950892857143,1420" class="er relationshipLine"/><path style="stroke: gray; fill: none;" marker-start="url(#ZERO_OR_ONE_START)" marker-end="url(#ONLY_ONE_END)" d="M1498.81640625,1628.6884731942466L1315.8440755208333,1614.740394328539C1132.8717447916667,1600.7923154628309,766.9270833333334,1572.8961577314155,766.9270833333334,1545C766.9270833333334,1517.1038422685845,1132.8717447916667,1489.2076845371691,1315.8440755208333,1475.259605671461L1498.81640625,1461.3115268057534" class="er relationshipLine"/><path style="stroke: gray; fill: none;" marker-start="url(#ZERO_OR_MORE_START)" marker-end="url(#ZERO_OR_MORE_END)" d="M1548.81640625,1670L1548.81640625,1678.3333333333333C1548.81640625,1686.6666666666667,1548.81640625,1703.3333333333333,1452.9830729166667,1725.0833333333333C1357.1497395833333,1746.8333333333333,1165.4830729166667,1773.6666666666667,1069.6497395833333,1787.0833333333333L973.81640625,1800.5" class="er relationshipLine"/><path style="stroke: gray; fill: none;" marker-start="url(#ZERO_OR_ONE_START)" marker-end="url(#ZERO_OR_ONE_END)" d="M1275.982421875,388.24095727759675L1246.4547526041667,376.8674643979973C1216.9270833333333,365.4939715183978,1157.8717447916667,342.74698575919894,1157.8717447916667,320C1157.8717447916667,297.25301424080106,1216.9270833333333,274.5060284816022,1246.4547526041667,263.1325356020027L1275.982421875,251.75904272240325" class="er relationshipLine"/><path style="stroke: gray; fill: none;" marker-start="url(#ZERO_OR_ONE_START)" marker-end="url(#ZERO_OR_ONE_END)" d="M1275.982421875,417.17564975875666L1208.9547526041667,430.1463747989639C1141.9270833333333,443.1170998391711,1007.8717447916666,469.0585499195856,940.8440755208334,490.36260829312613C873.81640625,511.6666666666667,873.81640625,528.3333333333334,873.81640625,536.6666666666666L873.81640625,545" class="er relationshipLine"/><path style="stroke: gray; fill: none;" marker-start="url(#ZERO_OR_MORE_START)" marker-end="url(#ZERO_OR_MORE_END)" d="M1375.982421875,417.8468504464389L1438.1214192708333,430.7057087053658C1500.2604166666667,443.5645669642926,1624.5384114583333,469.28228348214634,1686.6774088541667,496.7244750744065C1748.81640625,524.1666666666666,1748.81640625,553.3333333333334,1748.81640625,582.5C1748.81640625,611.6666666666666,1748.81640625,640.8333333333334,1748.81640625,670C1748.81640625,699.1666666666666,1748.81640625,728.3333333333334,1748.81640625,757.5C1748.81640625,786.6666666666666,1748.81640625,815.8333333333334,1739.2925967261906,838.75C1729.768787202381,861.6666666666666,1710.7211681547622,878.3333333333334,1701.1973586309525,886.6666666666666L1691.673549107143,895" class="er relationshipLine"/><path style="stroke: gray; fill: none;" marker-start="url(#ZERO_OR_MORE_START)" marker-end="url(#ZERO_OR_MORE_END)" d="M1375.982421875,415.48599598561094L1458.9547526041667,428.7383299880091C1541.9270833333333,441.9906639904073,1707.8717447916667,468.4953319952037,1790.8440755208333,496.33099933093513C1873.81640625,524.1666666666666,1873.81640625,553.3333333333334,1873.81640625,582.5C1873.81640625,611.6666666666666,1873.81640625,640.8333333333334,1873.81640625,670C1873.81640625,699.1666666666666,1873.81640625,728.3333333333334,1873.81640625,757.5C1873.81640625,786.6666666666666,1873.81640625,815.8333333333334,1873.81640625,845C1873.81640625,874.1666666666666,1873.81640625,903.3333333333334,1873.81640625,932.5C1873.81640625,961.6666666666666,1873.81640625,990.8333333333334,1828.705078125,1017.5620242387821C1783.59375,1044.2907151442307,1693.37109375,1068.5814302884617,1648.259765625,1080.726787860577L1603.1484375,1092.8721454326924" class="er relationshipLine"/><path style="stroke: gray; fill: none;" marker-start="url(#ZERO_OR_MORE_START)" marker-end="url(#ZERO_OR_MORE_END)" d="M1275.982421875,429.140630283357L1250.6214192708333,440.11719190279746C1225.2604166666667,451.09375352223805,1174.5384114583333,473.046876761119,1149.1774088541667,498.60677171389284C1123.81640625,524.1666666666666,1123.81640625,553.3333333333334,1123.81640625,582.5C1123.81640625,611.6666666666666,1123.81640625,640.8333333333334,1082.5107421875,667.5517680824879C1041.205078125,694.2702028316426,958.59375,718.5404056632851,917.2880859375,730.6755070791063L875.982421875,742.8106084949276" class="er relationshipLine"/><path style="stroke: gray; fill: none;" marker-start="url(#ZERO_OR_ONE_START)" marker-end="url(#ONLY_ONE_END)" d="M1527.3878348214287,1070L1522.6259300595239,1061.6666666666667C1517.864025297619,1053.3333333333333,1508.3402157738094,1036.6666666666667,1520.2449776785713,1018.6111111111112C1532.1497395833333,1000.5555555555555,1565.4830729166667,981.111111111111,1582.1497395833333,971.3888888888888L1598.81640625,961.6666666666666" class="er relationshipLine"/><path style="stroke: gray; fill: none;" marker-start="url(#ZERO_OR_ONE_START)" marker-end="url(#ONLY_ONE_END)" d="M1494.484375,1083.729736328125L1470.2063802083333,1073.1081136067708C1445.9283854166667,1062.4864908854167,1397.3723958333333,1041.2432454427083,1373.0944010416667,1016.0382893880209C1348.81640625,990.8333333333334,1348.81640625,961.6666666666666,1348.81640625,932.5C1348.81640625,903.3333333333334,1348.81640625,874.1666666666666,1348.81640625,845C1348.81640625,815.8333333333334,1348.81640625,786.6666666666666,1348.81640625,757.5C1348.81640625,728.3333333333334,1348.81640625,699.1666666666666,1348.81640625,670C1348.81640625,640.8333333333334,1348.81640625,611.6666666666666,1348.81640625,582.5C1348.81640625,553.3333333333334,1348.81640625,524.1666666666666,1346.6417410714287,501.25C1344.467075892857,478.3333333333333,1340.1177455357142,461.6666666666667,1337.943080357143,453.3333333333333L1335.7684151785713,445" class="er relationshipLine"/><path style="stroke: gray; fill: none;" marker-start="url(#ZERO_OR_ONE_START)" marker-end="url(#ONLY_ONE_END)" d="M1494.484375,1103.4539976728724L1307.7063802083333,1089.544998060727C1120.9283854166667,1075.6359984485816,747.3723958333334,1047.8179992242908,560.5944010416666,1019.325666278812C373.81640625,990.8333333333334,373.81640625,961.6666666666666,373.81640625,932.5C373.81640625,903.3333333333334,373.81640625,874.1666666666666,373.81640625,845C373.81640625,815.8333333333334,373.81640625,786.6666666666666,373.81640625,757.5C373.81640625,728.3333333333334,373.81640625,699.1666666666666,373.81640625,670C373.81640625,640.8333333333334,373.81640625,611.6666666666666,373.81640625,582.5C373.81640625,553.3333333333334,373.81640625,524.1666666666666,373.81640625,495C373.81640625,465.8333333333333,373.81640625,436.6666666666667,373.81640625,407.5C373.81640625,378.3333333333333,373.81640625,349.1666666666667,524.1774088541666,320.7657978280059C674.5384114583334,292.3649289893452,975.2604166666666,264.7298579786903,1125.6214192708333,250.91232247336288L1275.982421875,237.09478696803546" class="er relationshipLine"/><path style="stroke: gray; fill: none;" marker-start="url(#ZERO_OR_ONE_START)" marker-end="url(#ONLY_ONE_END)" d="M1603.1484375,1118.6860064338234L1664.9264322916667,1131.4050053615194C1726.7044270833333,1144.1240042892157,1850.2604166666667,1169.5620021446077,1849.5384114583333,1195.1486481311274C1848.81640625,1220.735294117647,1723.81640625,1246.4705882352941,1661.31640625,1259.3382352941178L1598.81640625,1272.2058823529412" class="er relationshipLine"/><path style="stroke: gray; fill: none;" marker-start="url(#ZERO_OR_ONE_START)" marker-end="url(#ONLY_ONE_END)" d="M875.982421875,762.8169899190821L1004.7880859375,776.5141582659016C1133.59375,790.2113266127213,1391.205078125,817.6056633063607,1520.0107421875,839.6361649865136C1648.81640625,861.6666666666666,1648.81640625,878.3333333333334,1648.81640625,886.6666666666666L1648.81640625,895" class="er relationshipLine"/><path style="stroke: gray; fill: none;" marker-start="url(#ZERO_OR_ONE_START)" marker-end="url(#ONLY_ONE_END)" d="M775.982421875,740.1503187229396L742.2880859375,728.4585989357829C708.59375,716.7668791486263,641.205078125,693.3834395743132,607.5107421875,667.1083864538233C573.81640625,640.8333333333334,573.81640625,611.6666666666666,573.81640625,582.5C573.81640625,553.3333333333334,573.81640625,524.1666666666666,690.8440755208334,495.96942250981755C807.8717447916666,467.77217835296847,1041.9270833333333,440.54435670593693,1158.9547526041667,426.9304458824211L1275.982421875,413.3165350589054" class="er relationshipLine"/><path style="stroke: gray; fill: none;" marker-start="url(#ZERO_OR_ONE_START)" marker-end="url(#ZERO_OR_ONE_END)" d="M775.982421875,745.0768819082797L725.6214192708334,732.5640682568998C675.2604166666666,720.0512546055197,574.5384114583334,695.0256273027599,582.5107421875,669.7523969847133C590.4830729166666,644.4791666666666,707.1497395833334,618.9583333333334,765.4830729166666,606.1979166666666L823.81640625,593.4375" class="er relationshipLine"/><path style="stroke: gray; fill: none;" marker-start="url(#ZERO_OR_ONE_START)" marker-end="url(#ZERO_OR_ONE_END)" d="M775.982421875,763.9607495046278L671.4547526041666,777.4672912538564C566.9270833333334,790.9738330030851,357.8717447916667,817.9869165015425,248.58217075892856,839.8267915841046C139.29259672619048,861.6666666666666,129.76878720238096,878.3333333333334,125.0068824404762,886.6666666666666L120.24497767857143,895" class="er relationshipLine"/><path style="stroke: gray; fill: none;" marker-start="url(#ZERO_OR_ONE_START)" marker-end="url(#ONLY_ONE_END)" d="M1605.959263392857,895L1596.4354538690477,886.6666666666666C1586.9116443452378,878.3333333333334,1567.864025297619,861.6666666666666,1558.3402157738094,838.75C1548.81640625,815.8333333333334,1548.81640625,786.6666666666666,1548.81640625,757.5C1548.81640625,728.3333333333334,1548.81640625,699.1666666666666,1548.81640625,670C1548.81640625,640.8333333333334,1548.81640625,611.6666666666666,1548.81640625,582.5C1548.81640625,553.3333333333334,1548.81640625,524.1666666666666,1520.0107421875,498.2722417485458C1491.205078125,472.3778168304248,1433.59375,449.7556336608497,1404.7880859375,438.44454207606213L1375.982421875,427.1334504912745" class="er relationshipLine"/><path style="stroke: gray; fill: none;" marker-start="url(#ZERO_OR_MORE_START)" marker-end="url(#ZERO_OR_MORE_END)" d="M1691.673549107143,970L1701.1973586309523,978.3333333333334C1710.7211681547622,986.6666666666666,1729.768787202381,1003.3333333333334,1715.0146019345239,1022.2882893880209C1700.2604166666667,1041.2432454427083,1651.7044270833333,1062.4864908854167,1627.4264322916667,1073.1081136067708L1603.1484375,1083.729736328125" class="er relationshipLine"/><path style="stroke: gray; fill: none;" marker-start="url(#ZERO_OR_MORE_START)" marker-end="url(#ZERO_OR_MORE_END)" d="M1598.81640625,910.625L1573.81640625,899.6875C1548.81640625,888.75,1498.81640625,866.875,1378.3440755208333,842.5248906235464C1257.8717447916667,818.1747812470927,1066.9270833333333,791.3495624941855,971.4547526041666,777.9369531177321L875.982421875,764.5243437412784" class="er relationshipLine"/><g transform="translate(1050.982421875,20 )" id="entity-users-33ae1e26-be31-5c1d-bf65-e859e9d0308e"><rect height="75" width="100" y="0" x="0" class="er entityBox"/><text style="dominant-baseline: middle; text-anchor: middle; font-size: 12px;" transform="translate(50,37.5)" y="0" x="0" id="text-entity-users-33ae1e26-be31-5c1d-bf65-e859e9d0308e" class="er entityLabel">users</text></g><g transform="translate(823.81640625,545 )" id="entity-Author-17acff7c-e0a9-5e68-a8c8-82d7688f389c"><rect height="75" width="100" y="0" x="0" class="er entityBox"/><text style="dominant-baseline: middle; text-anchor: middle; font-size: 12px;" transform="translate(50,37.5)" y="0" x="0" id="text-entity-Author-17acff7c-e0a9-5e68-a8c8-82d7688f389c" class="er entityLabel">Author</text></g><g transform="translate(1275.982421875,195 )" id="entity-Artist-57a72993-74d6-5d47-9b6a-c32ca1bc9c44"><rect height="75" width="100" y="0" x="0" class="er entityBox"/><text style="dominant-baseline: middle; text-anchor: middle; font-size: 12px;" transform="translate(50,37.5)" y="0" x="0" id="text-entity-Artist-57a72993-74d6-5d47-9b6a-c32ca1bc9c44" class="er entityLabel">Artist</text></g><g transform="translate(48.81640625,895 )" id="entity-Translator-4ca5e3d1-183a-5457-a07c-c5989bb83097"><rect height="75" width="100" y="0" x="0" class="er entityBox"/><text style="dominant-baseline: middle; text-anchor: middle; font-size: 12px;" transform="translate(50,37.5)" y="0" x="0" id="text-entity-Translator-4ca5e3d1-183a-5457-a07c-c5989bb83097" class="er entityLabel">Translator</text></g><g transform="translate(39.2109375,1420 )" id="entity-concepts-e5c30013-81a7-5b12-b32b-265112a68fc8"><rect height="75" width="100" y="0" x="0" class="er entityBox"/><text style="dominant-baseline: middle; text-anchor: middle; font-size: 12px;" transform="translate(50,37.5)" y="0" x="0" id="text-entity-concepts-e5c30013-81a7-5b12-b32b-265112a68fc8" class="er entityLabel">concepts</text></g><g transform="translate(1250.982421875,20 )" id="entity-predictions-1893ac28-1bf0-5313-b476-d32c8a0be2a7"><rect height="75" width="100" y="0" x="0" class="er entityBox"/><text style="dominant-baseline: middle; text-anchor: middle; font-size: 12px;" transform="translate(50,37.5)" y="0" x="0" id="text-entity-predictions-1893ac28-1bf0-5313-b476-d32c8a0be2a7" class="er entityLabel">predictions</text></g><g transform="translate(20,1595 )" id="entity-DreamBoothTraining-4430ac17-2208-57b9-966f-4b6b27de35a1"><rect height="75" width="138.421875" y="0" x="0" class="er entityBox"/><text style="dominant-baseline: middle; text-anchor: middle; font-size: 12px;" transform="translate(69.2109375,37.5)" y="0" x="0" id="text-entity-DreamBoothTraining-4430ac17-2208-57b9-966f-4b6b27de35a1" class="er entityLabel">DreamBoothTraining</text></g><g transform="translate(873.81640625,1770 )" id="entity-editions-ec9a561b-7f02-57e4-a4dc-d5ffa7296067"><rect height="75" width="100" y="0" x="0" class="er entityBox"/><text style="dominant-baseline: middle; text-anchor: middle; font-size: 12px;" transform="translate(50,37.5)" y="0" x="0" id="text-entity-editions-ec9a561b-7f02-57e4-a4dc-d5ffa7296067" class="er entityLabel">editions</text></g><g transform="translate(1498.81640625,1420 )" id="entity-cloudfiles-bec280a5-4255-5a75-a844-10b0df5ee92d"><rect height="75" width="100" y="0" x="0" class="er entityBox"/><text style="dominant-baseline: middle; text-anchor: middle; font-size: 12px;" transform="translate(50,37.5)" y="0" x="0" id="text-entity-cloudfiles-bec280a5-4255-5a75-a844-10b0df5ee92d" class="er entityLabel">cloud_files</text></g><g transform="translate(1498.81640625,1245 )" id="entity-photos-5fc1034e-7064-5039-8fdd-86c2671473f3"><rect height="75" width="100" y="0" x="0" class="er entityBox"/><text style="dominant-baseline: middle; text-anchor: middle; font-size: 12px;" transform="translate(50,37.5)" y="0" x="0" id="text-entity-photos-5fc1034e-7064-5039-8fdd-86c2671473f3" class="er entityLabel">photos</text></g><g transform="translate(1498.81640625,1595 )" id="entity-pdfs-684f5ce7-c15f-5cc4-b990-b87235db5ed3"><rect height="75" width="100" y="0" x="0" class="er entityBox"/><text style="dominant-baseline: middle; text-anchor: middle; font-size: 12px;" transform="translate(50,37.5)" y="0" x="0" id="text-entity-pdfs-684f5ce7-c15f-5cc4-b990-b87235db5ed3" class="er entityLabel">pdfs</text></g><g transform="translate(1275.982421875,370 )" id="entity-stories-2809256d-c184-5d2c-bc20-1bbabab3f3b6"><rect height="75" width="100" y="0" x="0" class="er entityBox"/><text style="dominant-baseline: middle; text-anchor: middle; font-size: 12px;" transform="translate(50,37.5)" y="0" x="0" id="text-entity-stories-2809256d-c184-5d2c-bc20-1bbabab3f3b6" class="er entityLabel">stories</text></g><g transform="translate(1494.484375,1070 )" id="entity-pageartworks-a7eab14e-b22e-5c9b-8324-e39e37602eee"><rect height="75" width="108.6640625" y="0" x="0" class="er entityBox"/><text style="dominant-baseline: middle; text-anchor: middle; font-size: 12px;" transform="translate(54.33203125,37.5)" y="0" x="0" id="text-entity-pageartworks-a7eab14e-b22e-5c9b-8324-e39e37602eee" class="er entityLabel">page_artworks</text></g><g transform="translate(775.982421875,720 )" id="entity-pagetexts-32c866fa-30da-552d-8244-754db7f80206"><rect height="75" width="100" y="0" x="0" class="er entityBox"/><text style="dominant-baseline: middle; text-anchor: middle; font-size: 12px;" transform="translate(50,37.5)" y="0" x="0" id="text-entity-pagetexts-32c866fa-30da-552d-8244-754db7f80206" class="er entityLabel">page_texts</text></g><g transform="translate(1598.81640625,895 )" id="entity-pages-39cce197-6933-52c8-bffd-261df920aba6"><rect height="75" width="100" y="0" x="0" class="er entityBox"/><text style="dominant-baseline: middle; text-anchor: middle; font-size: 12px;" transform="translate(50,37.5)" y="0" x="0" id="text-entity-pages-39cce197-6933-52c8-bffd-261df920aba6" class="er entityLabel">pages</text></g><rect height="14" width="29.005859375" y="110.83602905273438" x="1590.244384765625" class="er relationshipLabelBox"/><text style="text-anchor: middle; dominant-baseline: middle; font-size: 12px;" y="117.83602905273438" x="1604.747314453125" id="rel1" class="er relationshipLabel">artist</text><rect height="14" width="35.615234375" y="305.54876708984375" x="956.0087890625" class="er relationshipLabelBox"/><text style="text-anchor: middle; dominant-baseline: middle; font-size: 12px;" y="312.54876708984375" x="973.81640625" id="rel2" class="er relationshipLabel">author</text><rect height="14" width="42.828125" y="1012.601318359375" x="2127.40234375" class="er relationshipLabelBox"/><text style="text-anchor: middle; dominant-baseline: middle; font-size: 12px;" y="1019.601318359375" x="2148.81640625" id="rel3" class="er relationshipLabel">editions</text><rect height="14" width="35.685546875" y="449.81475830078125" x="1005.1123046875" class="er relationshipLabelBox"/><text style="text-anchor: middle; dominant-baseline: middle; font-size: 12px;" y="456.81475830078125" x="1022.955078125" id="rel4" class="er relationshipLabel">stories</text><rect height="14" width="53.345703125" y="677.4016723632812" x="1074.380615234375" class="er relationshipLabelBox"/><text style="text-anchor: middle; dominant-baseline: middle; font-size: 12px;" y="684.4016723632812" x="1101.053466796875" id="rel5" class="er relationshipLabel">pageTexts</text><rect height="14" width="22.958984375" y="210.01524353027344" x="662.6864624023438" class="er relationshipLabelBox"/><text style="text-anchor: middle; dominant-baseline: middle; font-size: 12px;" y="217.01524353027344" x="674.1659545898438" id="rel6" class="er relationshipLabel">user</text><rect height="14" width="35.685546875" y="313" x="1640.0289306640625" class="er relationshipLabelBox"/><text style="text-anchor: middle; dominant-baseline: middle; font-size: 12px;" y="320" x="1657.8717041015625" id="rel7" class="er relationshipLabel">stories</text><rect height="14" width="73.14453125" y="554.7593994140625" x="1937.244140625" class="er relationshipLabelBox"/><text style="text-anchor: middle; dominant-baseline: middle; font-size: 12px;" y="561.7593994140625" x="1973.81640625" id="rel8" class="er relationshipLabel">pageArtworks</text><rect height="14" width="22.958984375" y="163.94482421875" x="1159.938232421875" class="er relationshipLabelBox"/><text style="text-anchor: middle; dominant-baseline: middle; font-size: 12px;" y="170.94482421875" x="1171.417724609375" id="rel9" class="er relationshipLabel">user</text><rect height="14" width="53.345703125" y="798.6121215820312" x="382.296630859375" class="er relationshipLabelBox"/><text style="text-anchor: middle; dominant-baseline: middle; font-size: 12px;" y="805.6121215820312" x="408.969482421875" id="rel10" class="er relationshipLabel">pageTexts</text><rect height="14" width="107.640625" y="1538" x="75.8668212890625" class="er relationshipLabelBox"/><text style="text-anchor: middle; dominant-baseline: middle; font-size: 12px;" y="1545" x="129.6871337890625" id="rel11" class="er relationshipLabel">dreamboothTraining</text><rect height="14" width="35.87890625" y="1321.7720947265625" x="751.1809692382812" class="er relationshipLabelBox"/><text style="text-anchor: middle; dominant-baseline: middle; font-size: 12px;" y="1328.7720947265625" x="769.1204223632812" id="rel12" class="er relationshipLabel">photos</text><rect height="14" width="44.345703125" y="1538" x="26.56189727783203" class="er relationshipLabelBox"/><text style="text-anchor: middle; dominant-baseline: middle; font-size: 12px;" y="1545" x="48.73474884033203" id="rel13" class="er relationshipLabel">Concept</text><rect height="14" width="22.958984375" y="839.6373291015625" x="262.3369140625" class="er relationshipLabelBox"/><text style="text-anchor: middle; dominant-baseline: middle; font-size: 12px;" y="846.6373291015625" x="273.81640625" id="rel14" class="er relationshipLabel">user</text><rect height="14" width="18.37109375" y="1677.6427001953125" x="780.915283203125" class="er relationshipLabelBox"/><text style="text-anchor: middle; dominant-baseline: middle; font-size: 12px;" y="1684.6427001953125" x="790.100830078125" id="rel15" class="er relationshipLabel">pdf</text><rect height="14" width="31.439453125" y="1363" x="1217.8740234375" class="er relationshipLabelBox"/><text style="text-anchor: middle; dominant-baseline: middle; font-size: 12px;" y="1370" x="1233.59375" id="rel16" class="er relationshipLabel">photo</text><rect height="14" width="18.37109375" y="1538" x="1872.9642333984375" class="er relationshipLabelBox"/><text style="text-anchor: middle; dominant-baseline: middle; font-size: 12px;" y="1545" x="1882.1497802734375" id="rel17" class="er relationshipLabel">pdf</text><rect height="14" width="18.396484375" y="1363" x="1872.9515380859375" class="er relationshipLabelBox"/><text style="text-anchor: middle; dominant-baseline: middle; font-size: 12px;" y="1370" x="1882.1497802734375" id="rel18" class="er relationshipLabel">file</text><rect height="14" width="73.14453125" y="1190.0147705078125" x="730.2798461914062" class="er relationshipLabelBox"/><text style="text-anchor: middle; dominant-baseline: middle; font-size: 12px;" y="1197.0147705078125" x="766.8521118164062" id="rel19" class="er relationshipLabel">pageArtworks</text><rect height="14" width="47.8671875" y="1323.1956787109375" x="774.700439453125" class="er relationshipLabelBox"/><text style="text-anchor: middle; dominant-baseline: middle; font-size: 12px;" y="1330.1956787109375" x="798.634033203125" id="rel20" class="er relationshipLabel">concepts</text><rect height="14" width="18.396484375" y="1537.9998779296875" x="757.7288208007812" class="er relationshipLabelBox"/><text style="text-anchor: middle; dominant-baseline: middle; font-size: 12px;" y="1544.9998779296875" x="766.9270629882812" id="rel21" class="er relationshipLabel">file</text><rect height="14" width="37.828125" y="1750.3232421875" x="1254.5316162109375" class="er relationshipLabelBox"/><text style="text-anchor: middle; dominant-baseline: middle; font-size: 12px;" y="1757.3232421875" x="1273.4456787109375" id="rel22" class="er relationshipLabel">edition</text><rect height="14" width="29.005859375" y="313" x="1143.3687744140625" class="er relationshipLabelBox"/><text style="text-anchor: middle; dominant-baseline: middle; font-size: 12px;" y="320" x="1157.8717041015625" id="rel23" class="er relationshipLabel">artist</text><rect height="14" width="35.615234375" y="453.0607604980469" x="1043.5335693359375" class="er relationshipLabelBox"/><text style="text-anchor: middle; dominant-baseline: middle; font-size: 12px;" y="460.0607604980469" x="1061.3411865234375" id="rel24" class="er relationshipLabel">author</text><rect height="14" width="30.55859375" y="525.7876586914062" x="1721.9180908203125" class="er relationshipLabelBox"/><text style="text-anchor: middle; dominant-baseline: middle; font-size: 12px;" y="532.7876586914062" x="1737.1973876953125" id="rel25" class="er relationshipLabel">pages</text><rect height="14" width="73.14453125" y="643.9019165039062" x="1837.244140625" class="er relationshipLabelBox"/><text style="text-anchor: middle; dominant-baseline: middle; font-size: 12px;" y="650.9019165039062" x="1873.81640625" id="rel26" class="er relationshipLabel">pageArtworks</text><rect height="14" width="53.345703125" y="617.4280395507812" x="1092.5087890625" class="er relationshipLabelBox"/><text style="text-anchor: middle; dominant-baseline: middle; font-size: 12px;" y="624.4280395507812" x="1119.181640625" id="rel27" class="er relationshipLabel">pageTexts</text><rect height="14" width="26.013671875" y="996.2142333984375" x="1521.6142578125" class="er relationshipLabelBox"/><text style="text-anchor: middle; dominant-baseline: middle; font-size: 12px;" y="1003.2142333984375" x="1534.62109375" id="rel28" class="er relationshipLabel">page</text><rect height="14" width="26.71875" y="795.8533935546875" x="1335.45703125" class="er relationshipLabelBox"/><text style="text-anchor: middle; dominant-baseline: middle; font-size: 12px;" y="802.8533935546875" x="1348.81640625" id="rel29" class="er relationshipLabel">story</text><rect height="14" width="29.005859375" y="770.212890625" x="359.3134765625" class="er relationshipLabelBox"/><text style="text-anchor: middle; dominant-baseline: middle; font-size: 12px;" y="777.212890625" x="373.81640625" id="rel30" class="er relationshipLabel">artist</text><rect height="14" width="31.439453125" y="1190.1192626953125" x="1833.5203857421875" class="er relationshipLabelBox"/><text style="text-anchor: middle; dominant-baseline: middle; font-size: 12px;" y="1197.1192626953125" x="1849.2401123046875" id="rel31" class="er relationshipLabel">photo</text><rect height="14" width="26.013671875" y="799.246826171875" x="1260.3984375" class="er relationshipLabelBox"/><text style="text-anchor: middle; dominant-baseline: middle; font-size: 12px;" y="806.246826171875" x="1273.4052734375" id="rel32" class="er relationshipLabel">page</text><rect height="14" width="26.71875" y="473.7001953125" x="751.8593139648438" class="er relationshipLabelBox"/><text style="text-anchor: middle; dominant-baseline: middle; font-size: 12px;" y="480.7001953125" x="765.2186889648438" id="rel33" class="er relationshipLabel">story</text><rect height="14" width="35.615234375" y="648.611328125" x="579.5238037109375" class="er relationshipLabelBox"/><text style="text-anchor: middle; dominant-baseline: middle; font-size: 12px;" y="655.611328125" x="597.3314208984375" id="rel34" class="er relationshipLabel">author</text><rect height="14" width="53.181640625" y="801.5906982421875" x="413.7115478515625" class="er relationshipLabelBox"/><text style="text-anchor: middle; dominant-baseline: middle; font-size: 12px;" y="808.5906982421875" x="440.3023681640625" id="rel35" class="er relationshipLabel">translator</text><rect height="14" width="26.71875" y="614.5059204101562" x="1535.45703125" class="er relationshipLabelBox"/><text style="text-anchor: middle; dominant-baseline: middle; font-size: 12px;" y="621.5059204101562" x="1548.81640625" id="rel36" class="er relationshipLabel">story</text><rect height="14" width="46.8125" y="1035.1005859375" x="1666.80517578125" class="er relationshipLabelBox"/><text style="text-anchor: middle; dominant-baseline: middle; font-size: 12px;" y="1042.1005859375" x="1690.21142578125" id="rel37" class="er relationshipLabel">artworks</text><rect height="14" width="27.072265625" y="811.17578125" x="1228.4267578125" class="er relationshipLabelBox"/><text style="text-anchor: middle; dominant-baseline: middle; font-size: 12px;" y="818.17578125" x="1241.962890625" id="rel38" class="er relationshipLabel">texts</text></svg>