<svg aria-roledescription="er" role="graphics-document document" viewBox="0 0 1720.1090087890625 1340" style="max-width: 1720.11px; background-color: white;" xmlns:xlink="http://www.w3.org/1999/xlink" xmlns="http://www.w3.org/2000/svg" width="100%" id="mermaid-0"><style>#mermaid-0{font-family:"trebuchet ms",verdana,arial,sans-serif;font-size:16px;fill:#333;}#mermaid-0 .error-icon{fill:#552222;}#mermaid-0 .error-text{fill:#552222;stroke:#552222;}#mermaid-0 .edge-thickness-normal{stroke-width:2px;}#mermaid-0 .edge-thickness-thick{stroke-width:3.5px;}#mermaid-0 .edge-pattern-solid{stroke-dasharray:0;}#mermaid-0 .edge-pattern-dashed{stroke-dasharray:3;}#mermaid-0 .edge-pattern-dotted{stroke-dasharray:2;}#mermaid-0 .marker{fill:#333333;stroke:#333333;}#mermaid-0 .marker.cross{stroke:#333333;}#mermaid-0 svg{font-family:"trebuchet ms",verdana,arial,sans-serif;font-size:16px;}#mermaid-0 .entityBox{fill:#ECECFF;stroke:#9370DB;}#mermaid-0 .attributeBoxOdd{fill:#ffffff;stroke:#9370DB;}#mermaid-0 .attributeBoxEven{fill:#f2f2f2;stroke:#9370DB;}#mermaid-0 .relationshipLabelBox{fill:hsl(80, 100%, 96.2745098039%);opacity:0.7;background-color:hsl(80, 100%, 96.2745098039%);}#mermaid-0 .relationshipLabelBox rect{opacity:0.5;}#mermaid-0 .relationshipLine{stroke:#333333;}#mermaid-0 .entityTitleText{text-anchor:middle;font-size:18px;fill:#333;}#mermaid-0 :root{--mermaid-font-family:"trebuchet ms",verdana,arial,sans-serif;}</style><g/><defs><marker orient="auto" markerHeight="18" markerWidth="18" refY="9" refX="0" id="ONLY_ONE_START"><path d="M9,0 L9,18 M15,0 L15,18" fill="none" stroke="gray"/></marker></defs><defs><marker orient="auto" markerHeight="18" markerWidth="18" refY="9" refX="18" id="ONLY_ONE_END"><path d="M3,0 L3,18 M9,0 L9,18" fill="none" stroke="gray"/></marker></defs><defs><marker orient="auto" markerHeight="18" markerWidth="30" refY="9" refX="0" id="ZERO_OR_ONE_START"><circle r="6" cy="9" cx="21" fill="white" stroke="gray"/><path d="M9,0 L9,18" fill="none" stroke="gray"/></marker></defs><defs><marker orient="auto" markerHeight="18" markerWidth="30" refY="9" refX="30" id="ZERO_OR_ONE_END"><circle r="6" cy="9" cx="9" fill="white" stroke="gray"/><path d="M21,0 L21,18" fill="none" stroke="gray"/></marker></defs><defs><marker orient="auto" markerHeight="36" markerWidth="45" refY="18" refX="18" id="ONE_OR_MORE_START"><path d="M0,18 Q 18,0 36,18 Q 18,36 0,18 M42,9 L42,27" fill="none" stroke="gray"/></marker></defs><defs><marker orient="auto" markerHeight="36" markerWidth="45" refY="18" refX="27" id="ONE_OR_MORE_END"><path d="M3,9 L3,27 M9,18 Q27,0 45,18 Q27,36 9,18" fill="none" stroke="gray"/></marker></defs><defs><marker orient="auto" markerHeight="36" markerWidth="57" refY="18" refX="18" id="ZERO_OR_MORE_START"><circle r="6" cy="18" cx="48" fill="white" stroke="gray"/><path d="M0,18 Q18,0 36,18 Q18,36 0,18" fill="none" stroke="gray"/></marker></defs><defs><marker orient="auto" markerHeight="36" markerWidth="57" refY="18" refX="39" id="ZERO_OR_MORE_END"><circle r="6" cy="18" cx="9" fill="white" stroke="gray"/><path d="M21,18 Q39,0 57,18 Q39,36 21,18" fill="none" stroke="gray"/></marker></defs><path style="stroke: gray; fill: none;" marker-start="url(#ZERO_OR_MORE_START)" marker-end="url(#ZERO_OR_MORE_END)" d="M220,67.56660135359836L284.1009114583333,80.4721677946653C348.2018229166667,93.37773423573223,476.4036458333333,119.18886711786611,535.7426525297619,140.4277668922664C595.0816592261905,161.66666666666666,585.557849702381,178.33333333333334,580.7959449404763,186.66666666666666L576.0340401785714,195" class="er relationshipLine"/><path style="stroke: gray; fill: none;" marker-start="url(#ZERO_OR_MORE_START)" marker-end="url(#ZERO_OR_MORE_END)" d="M170,95L170,103.33333333333333C170,111.66666666666667,170,128.33333333333334,160.47619047619048,145C150.95238095238096,161.66666666666666,131.9047619047619,178.33333333333334,122.3809523809524,186.66666666666666L112.85714285714286,195" class="er relationshipLine"/><path style="stroke: gray; fill: none;" marker-start="url(#ZERO_OR_ONE_START)" marker-end="url(#ONLY_ONE_END)" d="M504.60546875,217.12784281969283L465.5045572916667,205.10653568307737C426.4036458333333,193.08522854646188,348.2018229166667,169.04261427323095,299.5771019345238,148.68797380328215C250.95238095238096,128.33333333333334,231.90476190476193,111.66666666666667,222.3809523809524,103.33333333333333L212.85714285714286,95" class="er relationshipLine"/><path style="stroke: gray; fill: none;" marker-start="url(#ZERO_OR_MORE_START)" marker-end="url(#ZERO_OR_MORE_END)" d="M604.60546875,243.18100973688476L664.5397135416666,255.98417478073728C724.4739583333334,268.7873398245899,844.3424479166666,294.3936699122949,899.5147879464286,315.5301682894808C954.6871279761905,336.6666666666667,945.1633184523811,353.3333333333333,940.4014136904763,361.6666666666667L935.6395089285714,370" class="er relationshipLine"/><path style="stroke: gray; fill: none;" marker-start="url(#ZERO_OR_MORE_START)" marker-end="url(#ZERO_OR_MORE_END)" d="M518.3459821428571,270L510.2883184523809,278.3333333333333C502.23065476190476,286.6666666666667,486.11532738095235,303.3333333333333,476.59151785714283,320C467.0677083333333,336.6666666666667,464.1354166666667,353.3333333333333,462.6692708333333,361.6666666666667L461.203125,370" class="er relationshipLine"/><path style="stroke: gray; fill: none;" marker-start="url(#ZERO_OR_ONE_START)" marker-end="url(#ONLY_ONE_END)" d="M70,195L70,186.66666666666666C70,178.33333333333334,70,161.66666666666666,79.52380952380952,145C89.04761904761904,128.33333333333334,108.09523809523809,111.66666666666667,117.6190476190476,103.33333333333333L127.14285714285714,95" class="er relationshipLine"/><path style="stroke: gray; fill: none;" marker-start="url(#ZERO_OR_MORE_START)" marker-end="url(#ZERO_OR_MORE_END)" d="M112.85714285714286,270L122.3809523809524,278.3333333333333C131.9047619047619,286.6666666666667,150.95238095238096,303.3333333333333,150.95238095238096,320C150.95238095238096,336.6666666666667,131.9047619047619,353.3333333333333,122.3809523809524,361.6666666666667L112.85714285714286,370" class="er relationshipLine"/><path style="stroke: gray; fill: none;" marker-start="url(#ZERO_OR_MORE_START)" marker-end="url(#ZERO_OR_MORE_END)" d="M70,545L70,536.6666666666666C70,528.3333333333334,70,511.6666666666667,70,495C70,478.3333333333333,70,461.6666666666667,70,453.3333333333333L70,445" class="er relationshipLine"/><path style="stroke: gray; fill: none;" marker-start="url(#ZERO_OR_MORE_START)" marker-end="url(#ZERO_OR_MORE_END)" d="M1392.7823660714287,895L1388.0204613095239,886.6666666666666C1383.258556547619,878.3333333333334,1373.7347470238094,861.6666666666666,1314.806175595238,840.6944444444445C1255.8776041666667,819.7222222222222,1147.5442708333333,794.4444444444443,1093.3776041666667,781.8055555555555L1039.2109375,769.1666666666666" class="er relationshipLine"/><path style="stroke: gray; fill: none;" marker-start="url(#ZERO_OR_MORE_START)" marker-end="url(#ZERO_OR_MORE_END)" d="M1464.2109375,944.1666666666666L1518.3776041666667,956.8055555555555C1572.5442708333333,969.4444444444443,1680.8776041666667,994.7222222222222,1689.5719401041667,1019.6858016064598C1698.2662760416667,1044.6493809906972,1607.3216145833333,1069.2987619813944,1561.8492838541667,1081.623452476743L1516.376953125,1093.9481429720915" class="er relationshipLine"/><path style="stroke: gray; fill: none;" marker-start="url(#ZERO_OR_MORE_START)" marker-end="url(#ZERO_OR_MORE_END)" d="M666.376953125,911.840939064993L639.4150390625,900.7007825541608C612.453125,889.5606260433287,558.529296875,867.2803130216644,604.0016276041666,843.061483594451C649.4739583333334,818.8426541672376,794.3424479166666,792.6853083344753,866.7766927083334,779.606635418094L939.2109375,766.5279625017129" class="er relationshipLine"/><path style="stroke: gray; fill: none;" marker-start="url(#ZERO_OR_MORE_START)" marker-end="url(#ZERO_OR_MORE_END)" d="M666.376953125,921.4625267929734L608.6474609375,908.7187723274778C550.91796875,895.9750178619823,435.458984375,870.4875089309911,377.7294921875,843.1604211321622C320,815.8333333333334,320,786.6666666666666,320,757.5C320,728.3333333333334,320,699.1666666666666,320,670C320,640.8333333333334,320,611.6666666666666,320,582.5C320,553.3333333333334,320,524.1666666666666,409.9798177083333,496.3334357757355C499.9596354166667,468.50020488480436,679.9192708333334,442.0004097696087,769.8990885416666,428.75051221201085L859.87890625,415.500614654413" class="er relationshipLine"/><path style="stroke: gray; fill: none;" marker-start="url(#ZERO_OR_MORE_START)" marker-end="url(#ZERO_OR_MORE_END)" d="M1444.9483816964287,1245L1440.1864769345239,1236.6666666666667C1435.424572172619,1228.3333333333333,1425.9007626488094,1211.6666666666667,1425.9007626488094,1195C1425.9007626488094,1178.3333333333333,1435.424572172619,1161.6666666666667,1440.1864769345239,1153.3333333333333L1444.9483816964287,1145" class="er relationshipLine"/><path style="stroke: gray; fill: none;" marker-start="url(#ZERO_OR_ONE_START)" marker-end="url(#ZERO_OR_ONE_END)" d="M989.2109375,795L989.2109375,803.3333333333334C989.2109375,811.6666666666666,989.2109375,828.3333333333334,952.0719401041666,848.5774345996998C914.9329427083334,868.8215358660664,840.6549479166666,892.6430717321326,803.5159505208334,904.5538396651658L766.376953125,916.4646075981989" class="er relationshipLine"/><path style="stroke: gray; fill: none;" marker-start="url(#ZERO_OR_ONE_START)" marker-end="url(#ZERO_OR_ONE_END)" d="M1039.2109375,766.7105263157895L1110.0442708333333,779.7587719298245C1180.8776041666667,792.8070175438597,1322.5442708333333,818.9035087719299,1388.6156994047617,840.2850877192982C1454.6871279761906,861.6666666666666,1445.163318452381,878.3333333333334,1440.4014136904761,886.6666666666666L1435.6395089285713,895" class="er relationshipLine"/><path style="stroke: gray; fill: none;" marker-start="url(#ZERO_OR_MORE_START)" marker-end="url(#ZERO_OR_MORE_END)" d="M957.0680803571429,720L949.9252232142858,711.6666666666666C942.7823660714286,703.3333333333334,928.4966517857143,686.6666666666666,984.2147972470239,665.4569866047274C1039.9329427083333,644.2473065427881,1165.6549479166667,618.4946130855764,1228.5159505208333,605.6182663569705L1291.376953125,592.7419196283646" class="er relationshipLine"/><path style="stroke: gray; fill: none;" marker-start="url(#ZERO_OR_MORE_START)" marker-end="url(#ZERO_OR_MORE_END)" d="M939.2109375,732.5L918.3776041666666,722.0833333333334C897.5442708333334,711.6666666666666,855.8776041666666,690.8333333333334,835.0442708333334,665.8333333333334C814.2109375,640.8333333333334,814.2109375,611.6666666666666,814.2109375,582.5C814.2109375,553.3333333333334,814.2109375,524.1666666666666,823.7347470238095,501.25C833.2585565476189,478.3333333333333,852.3061755952381,461.6666666666667,861.8299851190476,453.3333333333333L871.3537946428571,445" class="er relationshipLine"/><path style="stroke: gray; fill: none;" marker-start="url(#ZERO_OR_MORE_START)" marker-end="url(#ZERO_OR_MORE_END)" d="M1039.2109375,763.75L1147.5442708333333,777.2916666666666C1255.8776041666667,790.8333333333334,1472.5442708333333,817.9166666666666,1580.8776041666667,846.0416666666666C1689.2109375,874.1666666666666,1689.2109375,903.3333333333334,1689.2109375,932.5C1689.2109375,961.6666666666666,1689.2109375,990.8333333333334,1660.4052734375,1016.7277582514542C1631.599609375,1042.622183169575,1573.98828125,1065.2443663391502,1545.1826171875,1076.5554579239379L1516.376953125,1087.8665495087255" class="er relationshipLine"/><path style="stroke: gray; fill: none;" marker-start="url(#ZERO_OR_ONE_START)" marker-end="url(#ONLY_ONE_END)" d="M968.54296875,416.518132037094L1047.3486328125,429.598443364245C1126.154296875,442.678754691396,1283.765625,468.839377345698,1353.0474795386906,490.25302200618233C1422.329334077381,511.6666666666667,1403.2817150297622,528.3333333333334,1393.7579055059523,536.6666666666666L1384.234095982143,545" class="er relationshipLine"/><path style="stroke: gray; fill: none;" marker-start="url(#ZERO_OR_ONE_START)" marker-end="url(#ONLY_ONE_END)" d="M968.54296875,431.270263671875L992.8209635416666,441.8918863932292C1017.0989583333334,452.5135091145833,1065.6549479166667,473.7567545572917,1089.9329427083333,498.9617106119792C1114.2109375,524.1666666666666,1114.2109375,553.3333333333334,1114.2109375,582.5C1114.2109375,611.6666666666666,1114.2109375,640.8333333333334,1101.7109375,664.1666666666666C1089.2109375,687.5,1064.2109375,705,1051.7109375,713.75L1039.2109375,722.5" class="er relationshipLine"/><path style="stroke: gray; fill: none;" marker-start="url(#ZERO_OR_ONE_START)" marker-end="url(#ONLY_ONE_END)" d="M859.87890625,428.6291232638889L831.4342447916666,439.6909360532407C802.9895833333334,450.7527488425926,746.1002604166666,472.8763744212963,717.6555989583334,498.52152054398147C689.2109375,524.1666666666666,689.2109375,553.3333333333334,689.2109375,582.5C689.2109375,611.6666666666666,689.2109375,640.8333333333334,689.2109375,670C689.2109375,699.1666666666666,689.2109375,728.3333333333334,689.2109375,757.5C689.2109375,786.6666666666666,689.2109375,815.8333333333334,691.7981770833334,838.75C694.3854166666666,861.6666666666666,699.5598958333334,878.3333333333334,702.1471354166666,886.6666666666666L704.734375,895" class="er relationshipLine"/><path style="stroke: gray; fill: none;" marker-start="url(#ZERO_OR_ONE_START)" marker-end="url(#ONLY_ONE_END)" d="M859.87890625,393.68854831022037L811.5657552083334,381.4071235918503C763.2526041666666,369.1256988734802,666.6263020833334,344.5628494367401,616.8470052083334,323.9480913850367C567.0677083333334,303.3333333333333,564.1354166666666,286.6666666666667,562.6692708333334,278.3333333333333L561.203125,270" class="er relationshipLine"/><path style="stroke: gray; fill: none;" marker-start="url(#ZERO_OR_ONE_START)" marker-end="url(#ONLY_ONE_END)" d="M1416.376953125,1088.2409572775966L1386.8492838541667,1076.8674643979973C1357.3216145833333,1065.4939715183978,1298.2662760416667,1042.7469857591989,1268.7386067708333,1016.7901595462662C1239.2109375,990.8333333333334,1239.2109375,961.6666666666666,1239.2109375,932.5C1239.2109375,903.3333333333334,1239.2109375,874.1666666666666,1239.2109375,845C1239.2109375,815.8333333333334,1239.2109375,786.6666666666666,1239.2109375,757.5C1239.2109375,728.3333333333334,1239.2109375,699.1666666666666,1248.9410342261906,676.25C1258.671130952381,653.3333333333334,1278.131324404762,636.6666666666666,1287.8614211309525,628.3333333333334L1297.591517857143,620" class="er relationshipLine"/><path style="stroke: gray; fill: none;" marker-start="url(#ZERO_OR_ONE_START)" marker-end="url(#ONLY_ONE_END)" d="M1416.376953125,1104.0588490579082L1212.8141276041667,1090.0490408815901C1009.2513020833334,1076.039232705272,602.1256510416666,1048.0196163526361,398.5628255208333,1019.4264748429847C195,990.8333333333334,195,961.6666666666666,195,932.5C195,903.3333333333334,195,874.1666666666666,319.03515625,845.9181020208081C443.0703125,817.6695373749495,691.140625,790.3390747498992,815.17578125,776.6738434373741L939.2109375,763.0086121248488" class="er relationshipLine"/><path style="stroke: gray; fill: none;" marker-start="url(#ZERO_OR_ONE_START)" marker-end="url(#ZERO_OR_ONE_END)" d="M1416.376953125,1104.3097757585683L1196.1474609375,1090.2581464654736C975.91796875,1076.2065171723789,535.458984375,1048.1032585861894,526.7646484375,1020.0210253572667C518.0703125,991.9387921283437,941.140625,963.8775842566874,1152.67578125,949.8469803208594L1364.2109375,935.8163763850313" class="er relationshipLine"/><path style="stroke: gray; fill: none;" marker-start="url(#ZERO_OR_ONE_START)" marker-end="url(#ZERO_OR_ONE_END)" d="M1487.8055245535713,1145L1492.5674293154761,1153.3333333333333C1497.329334077381,1161.6666666666667,1506.8531436011906,1178.3333333333333,1506.8531436011906,1195C1506.8531436011906,1211.6666666666667,1497.329334077381,1228.3333333333333,1492.5674293154761,1236.6666666666667L1487.8055245535713,1245" class="er relationshipLine"/><path style="stroke: gray; fill: none;" marker-start="url(#ZERO_OR_ONE_START)" marker-end="url(#ONLY_ONE_END)" d="M1291.376953125,595.8724158104937L1245.1826171875,608.2270131754115C1198.98828125,620.5816105403292,1106.599609375,645.2908052701646,1058.0243210565475,665.9787359684157C1009.4490327380953,686.6666666666666,1004.6871279761905,703.3333333333334,1002.3061755952381,711.6666666666666L999.9252232142857,720" class="er relationshipLine"/><path style="stroke: gray; fill: none;" marker-start="url(#ZERO_OR_MORE_START)" marker-end="url(#ZERO_OR_MORE_END)" d="M1297.591517857143,545L1287.8614211309525,536.6666666666666C1278.131324404762,528.3333333333334,1258.671130952381,511.6666666666667,1203.8297061011906,491.18797576121796C1148.98828125,470.7092848557692,1058.765625,446.4185697115384,1013.654296875,434.27321213942304L968.54296875,422.1278545673077" class="er relationshipLine"/><path style="stroke: gray; fill: none;" marker-start="url(#ZERO_OR_MORE_START)" marker-end="url(#ZERO_OR_MORE_END)" d="M1391.376953125,600.152946229441L1424.3492838541667,611.7941218578675C1457.3216145833333,623.435297486294,1523.2662760416667,646.717648743147,1556.2386067708333,672.9421577049069C1589.2109375,699.1666666666666,1589.2109375,728.3333333333334,1589.2109375,757.5C1589.2109375,786.6666666666666,1589.2109375,815.8333333333334,1589.2109375,845C1589.2109375,874.1666666666666,1589.2109375,903.3333333333334,1589.2109375,932.5C1589.2109375,961.6666666666666,1589.2109375,990.8333333333334,1577.0719401041667,1014.0638035118963C1564.9329427083333,1037.294273690459,1540.6549479166667,1054.5885473809183,1528.5159505208333,1063.235684226148L1516.376953125,1071.8828210713775" class="er relationshipLine"/><path style="stroke: gray; fill: none;" marker-start="url(#ZERO_OR_ONE_START)" marker-end="url(#ONLY_ONE_END)" d="M120,442.5L132.5,451.25C145,460,170,477.5,170,495C170,512.5,145,530,132.5,538.75L120,547.5" class="er relationshipLine"/><path style="stroke: gray; fill: none;" marker-start="url(#ZERO_OR_ONE_START)" marker-end="url(#ONLY_ONE_END)" d="M70,370L70,361.6666666666667C70,353.3333333333333,70,336.6666666666667,70,320C70,303.3333333333333,70,286.6666666666667,70,278.3333333333333L70,270" class="er relationshipLine"/><path style="stroke: gray; fill: none;" marker-start="url(#ZERO_OR_ONE_START)" marker-end="url(#ZERO_OR_ONE_END)" d="M497.46261160714283,445L506.98642113095235,453.3333333333333C516.5102306547619,461.6666666666667,535.557849702381,478.3333333333333,540.3197544642857,495C545.0816592261905,511.6666666666667,535.557849702381,528.3333333333334,530.7959449404763,536.6666666666666L526.0340401785714,545" class="er relationshipLine"/><path style="stroke: gray; fill: none;" marker-start="url(#ZERO_OR_MORE_START)" marker-end="url(#ZERO_OR_MORE_END)" d="M404.60546875,383.8008104276434L382.1712239583333,373.16734202303616C359.7369791666667,362.53387361842897,314.8684895833333,341.2669368092145,331.53515625,318.6121612679918C348.2018229166667,295.957385726769,426.4036458333333,271.9147714535381,465.5045572916667,259.89346431692263L504.60546875,247.87215718030717" class="er relationshipLine"/><path style="stroke: gray; fill: none;" marker-start="url(#ZERO_OR_MORE_START)" marker-end="url(#ZERO_OR_MORE_END)" d="M483.17689732142856,545L478.4149925595238,536.6666666666666C473.65308779761904,528.3333333333334,464.12927827380946,511.6666666666667,459.36737351190476,495C454.60546875,478.3333333333333,454.60546875,461.6666666666667,454.60546875,453.3333333333333L454.60546875,445" class="er relationshipLine"/><g transform="translate(120,20 )" id="entity-cloudfiles-bec280a5-4255-5a75-a844-10b0df5ee92d"><rect height="75" width="100" y="0" x="0" class="er entityBox"/><text style="dominant-baseline: middle; text-anchor: middle; font-size: 12px;" transform="translate(50,37.5)" y="0" x="0" id="text-entity-cloudfiles-bec280a5-4255-5a75-a844-10b0df5ee92d" class="er entityLabel">cloud_files</text></g><g transform="translate(504.60546875,195 )" id="entity-photos-5fc1034e-7064-5039-8fdd-86c2671473f3"><rect height="75" width="100" y="0" x="0" class="er entityBox"/><text style="dominant-baseline: middle; text-anchor: middle; font-size: 12px;" transform="translate(50,37.5)" y="0" x="0" id="text-entity-photos-5fc1034e-7064-5039-8fdd-86c2671473f3" class="er entityLabel">photos</text></g><g transform="translate(20,195 )" id="entity-pdfs-684f5ce7-c15f-5cc4-b990-b87235db5ed3"><rect height="75" width="100" y="0" x="0" class="er entityBox"/><text style="dominant-baseline: middle; text-anchor: middle; font-size: 12px;" transform="translate(50,37.5)" y="0" x="0" id="text-entity-pdfs-684f5ce7-c15f-5cc4-b990-b87235db5ed3" class="er entityLabel">pdfs</text></g><g transform="translate(20,545 )" id="entity-users-33ae1e26-be31-5c1d-bf65-e859e9d0308e"><rect height="75" width="100" y="0" x="0" class="er entityBox"/><text style="dominant-baseline: middle; text-anchor: middle; font-size: 12px;" transform="translate(50,37.5)" y="0" x="0" id="text-entity-users-33ae1e26-be31-5c1d-bf65-e859e9d0308e" class="er entityLabel">users</text></g><g transform="translate(1364.2109375,895 )" id="entity-Author-17acff7c-e0a9-5e68-a8c8-82d7688f389c"><rect height="75" width="100" y="0" x="0" class="er entityBox"/><text style="dominant-baseline: middle; text-anchor: middle; font-size: 12px;" transform="translate(50,37.5)" y="0" x="0" id="text-entity-Author-17acff7c-e0a9-5e68-a8c8-82d7688f389c" class="er entityLabel">Author</text></g><g transform="translate(666.376953125,895 )" id="entity-Artist-57a72993-74d6-5d47-9b6a-c32ca1bc9c44"><rect height="75" width="100" y="0" x="0" class="er entityBox"/><text style="dominant-baseline: middle; text-anchor: middle; font-size: 12px;" transform="translate(50,37.5)" y="0" x="0" id="text-entity-Artist-57a72993-74d6-5d47-9b6a-c32ca1bc9c44" class="er entityLabel">Artist</text></g><g transform="translate(1416.376953125,1245 )" id="entity-Translator-4ca5e3d1-183a-5457-a07c-c5989bb83097"><rect height="75" width="100" y="0" x="0" class="er entityBox"/><text style="dominant-baseline: middle; text-anchor: middle; font-size: 12px;" transform="translate(50,37.5)" y="0" x="0" id="text-entity-Translator-4ca5e3d1-183a-5457-a07c-c5989bb83097" class="er entityLabel">Translator</text></g><g transform="translate(939.2109375,720 )" id="entity-stories-2809256d-c184-5d2c-bc20-1bbabab3f3b6"><rect height="75" width="100" y="0" x="0" class="er entityBox"/><text style="dominant-baseline: middle; text-anchor: middle; font-size: 12px;" transform="translate(50,37.5)" y="0" x="0" id="text-entity-stories-2809256d-c184-5d2c-bc20-1bbabab3f3b6" class="er entityLabel">stories</text></g><g transform="translate(859.87890625,370 )" id="entity-pageartworks-a7eab14e-b22e-5c9b-8324-e39e37602eee"><rect height="75" width="108.6640625" y="0" x="0" class="er entityBox"/><text style="dominant-baseline: middle; text-anchor: middle; font-size: 12px;" transform="translate(54.33203125,37.5)" y="0" x="0" id="text-entity-pageartworks-a7eab14e-b22e-5c9b-8324-e39e37602eee" class="er entityLabel">page_artworks</text></g><g transform="translate(1416.376953125,1070 )" id="entity-pagetexts-32c866fa-30da-552d-8244-754db7f80206"><rect height="75" width="100" y="0" x="0" class="er entityBox"/><text style="dominant-baseline: middle; text-anchor: middle; font-size: 12px;" transform="translate(50,37.5)" y="0" x="0" id="text-entity-pagetexts-32c866fa-30da-552d-8244-754db7f80206" class="er entityLabel">page_texts</text></g><g transform="translate(1291.376953125,545 )" id="entity-pages-39cce197-6933-52c8-bffd-261df920aba6"><rect height="75" width="100" y="0" x="0" class="er entityBox"/><text style="dominant-baseline: middle; text-anchor: middle; font-size: 12px;" transform="translate(50,37.5)" y="0" x="0" id="text-entity-pages-39cce197-6933-52c8-bffd-261df920aba6" class="er entityLabel">pages</text></g><g transform="translate(20,370 )" id="entity-editions-ec9a561b-7f02-57e4-a4dc-d5ffa7296067"><rect height="75" width="100" y="0" x="0" class="er entityBox"/><text style="dominant-baseline: middle; text-anchor: middle; font-size: 12px;" transform="translate(50,37.5)" y="0" x="0" id="text-entity-editions-ec9a561b-7f02-57e4-a4dc-d5ffa7296067" class="er entityLabel">editions</text></g><g transform="translate(404.60546875,370 )" id="entity-concepts-e5c30013-81a7-5b12-b32b-265112a68fc8"><rect height="75" width="100" y="0" x="0" class="er entityBox"/><text style="dominant-baseline: middle; text-anchor: middle; font-size: 12px;" transform="translate(50,37.5)" y="0" x="0" id="text-entity-concepts-e5c30013-81a7-5b12-b32b-265112a68fc8" class="er entityLabel">concepts</text></g><g transform="translate(320,20 )" id="entity-predictions-1893ac28-1bf0-5313-b476-d32c8a0be2a7"><rect height="75" width="100" y="0" x="0" class="er entityBox"/><text style="dominant-baseline: middle; text-anchor: middle; font-size: 12px;" transform="translate(50,37.5)" y="0" x="0" id="text-entity-predictions-1893ac28-1bf0-5313-b476-d32c8a0be2a7" class="er entityLabel">predictions</text></g><g transform="translate(435.39453125,545 )" id="entity-DreamBoothTraining-4430ac17-2208-57b9-966f-4b6b27de35a1"><rect height="75" width="138.421875" y="0" x="0" class="er entityBox"/><text style="dominant-baseline: middle; text-anchor: middle; font-size: 12px;" transform="translate(69.2109375,37.5)" y="0" x="0" id="text-entity-DreamBoothTraining-4430ac17-2208-57b9-966f-4b6b27de35a1" class="er entityLabel">DreamBoothTraining</text></g><rect height="14" width="31.439453125" y="102.19292449951172" x="404.20501708984375" class="er relationshipLabelBox"/><text style="text-anchor: middle; dominant-baseline: middle; font-size: 12px;" y="109.19292449951172" x="419.92474365234375" id="rel1" class="er relationshipLabel">photo</text><rect height="14" width="18.37109375" y="145.43545532226562" x="146.45263671875" class="er relationshipLabelBox"/><text style="text-anchor: middle; dominant-baseline: middle; font-size: 12px;" y="152.43545532226562" x="155.63818359375" id="rel2" class="er relationshipLabel">pdf</text><rect height="14" width="18.396484375" y="161.71844482421875" x="343.52874755859375" class="er relationshipLabelBox"/><text style="text-anchor: middle; dominant-baseline: middle; font-size: 12px;" y="168.71844482421875" x="352.72698974609375" id="rel3" class="er relationshipLabel">file</text><rect height="14" width="73.14453125" y="277.7332458496094" x="755.9295654296875" class="er relationshipLabelBox"/><text style="text-anchor: middle; dominant-baseline: middle; font-size: 12px;" y="284.7332458496094" x="792.5018310546875" id="rel4" class="er relationshipLabel">pageArtworks</text><rect height="14" width="47.8671875" y="307.5908203125" x="455.96875" class="er relationshipLabelBox"/><text style="text-anchor: middle; dominant-baseline: middle; font-size: 12px;" y="314.5908203125" x="479.90234375" id="rel5" class="er relationshipLabel">concepts</text><rect height="14" width="18.396484375" y="130.56451416015625" x="75.16352844238281" class="er relationshipLabelBox"/><text style="text-anchor: middle; dominant-baseline: middle; font-size: 12px;" y="137.56451416015625" x="84.36177062988281" id="rel6" class="er relationshipLabel">file</text><rect height="14" width="37.828125" y="313" x="132.03831481933594" class="er relationshipLabelBox"/><text style="text-anchor: middle; dominant-baseline: middle; font-size: 12px;" y="320" x="150.95237731933594" id="rel7" class="er relationshipLabel">edition</text><rect height="14" width="37.71875" y="488" x="51.140625" class="er relationshipLabelBox"/><text style="text-anchor: middle; dominant-baseline: middle; font-size: 12px;" y="495" x="70" id="rel8" class="er relationshipLabel">Edition</text><rect height="14" width="35.685546875" y="807.0629272460938" x="1207.3382568359375" class="er relationshipLabelBox"/><text style="text-anchor: middle; dominant-baseline: middle; font-size: 12px;" y="814.0629272460938" x="1225.1810302734375" id="rel9" class="er relationshipLabel">stories</text><rect height="14" width="53.345703125" y="997.6213989257812" x="1646.6920166015625" class="er relationshipLabelBox"/><text style="text-anchor: middle; dominant-baseline: middle; font-size: 12px;" y="1004.6213989257812" x="1673.3648681640625" id="rel10" class="er relationshipLabel">pageTexts</text><rect height="14" width="35.685546875" y="803.8390502929688" x="691.0493774414062" class="er relationshipLabelBox"/><text style="text-anchor: middle; dominant-baseline: middle; font-size: 12px;" y="810.8390502929688" x="708.8921508789062" id="rel11" class="er relationshipLabel">stories</text><rect height="14" width="73.14453125" y="571.4608764648438" x="283.43670654296875" class="er relationshipLabelBox"/><text style="text-anchor: middle; dominant-baseline: middle; font-size: 12px;" y="578.4608764648438" x="320.00897216796875" id="rel12" class="er relationshipLabel">pageArtworks</text><rect height="14" width="53.345703125" y="1188" x="1399.2279052734375" class="er relationshipLabelBox"/><text style="text-anchor: middle; dominant-baseline: middle; font-size: 12px;" y="1195" x="1425.9007568359375" id="rel13" class="er relationshipLabel">pageTexts</text><rect height="14" width="29.005859375" y="866.9563598632812" x="878.968017578125" class="er relationshipLabelBox"/><text style="text-anchor: middle; dominant-baseline: middle; font-size: 12px;" y="873.9563598632812" x="893.470947265625" id="rel14" class="er relationshipLabel">artist</text><rect height="14" width="35.615234375" y="801.4576416015625" x="1240.828125" class="er relationshipLabelBox"/><text style="text-anchor: middle; dominant-baseline: middle; font-size: 12px;" y="808.4576416015625" x="1258.6357421875" id="rel15" class="er relationshipLabel">author</text><rect height="14" width="30.55859375" y="627.0233764648438" x="1081.4892578125" class="er relationshipLabelBox"/><text style="text-anchor: middle; dominant-baseline: middle; font-size: 12px;" y="634.0233764648438" x="1096.7685546875" id="rel16" class="er relationshipLabel">pages</text><rect height="14" width="73.14453125" y="603.3087158203125" x="778.3173217773438" class="er relationshipLabelBox"/><text style="text-anchor: middle; dominant-baseline: middle; font-size: 12px;" y="610.3087158203125" x="814.8895874023438" id="rel17" class="er relationshipLabel">pageArtworks</text><rect height="14" width="53.345703125" y="823.7130737304688" x="1484.8055419921875" class="er relationshipLabelBox"/><text style="text-anchor: middle; dominant-baseline: middle; font-size: 12px;" y="830.7130737304688" x="1511.4783935546875" id="rel18" class="er relationshipLabel">pageTexts</text><rect height="14" width="26.013671875" y="450.50518798828125" x="1194.50830078125" class="er relationshipLabelBox"/><text style="text-anchor: middle; dominant-baseline: middle; font-size: 12px;" y="457.50518798828125" x="1207.51513671875" id="rel19" class="er relationshipLabel">page</text><rect height="14" width="26.71875" y="545.7398071289062" x="1099.8807373046875" class="er relationshipLabelBox"/><text style="text-anchor: middle; dominant-baseline: middle; font-size: 12px;" y="552.7398071289062" x="1113.2401123046875" id="rel20" class="er relationshipLabel">story</text><rect height="14" width="29.005859375" y="606.9776611328125" x="674.7080078125" class="er relationshipLabelBox"/><text style="text-anchor: middle; dominant-baseline: middle; font-size: 12px;" y="613.9776611328125" x="689.2109375" id="rel21" class="er relationshipLabel">artist</text><rect height="14" width="31.439453125" y="343.9410400390625" x="682.0421142578125" class="er relationshipLabelBox"/><text style="text-anchor: middle; dominant-baseline: middle; font-size: 12px;" y="350.9410400390625" x="697.7618408203125" id="rel22" class="er relationshipLabel">photo</text><rect height="14" width="26.013671875" y="888.026123046875" x="1226.2041015625" class="er relationshipLabelBox"/><text style="text-anchor: middle; dominant-baseline: middle; font-size: 12px;" y="895.026123046875" x="1239.2109375" id="rel23" class="er relationshipLabel">page</text><rect height="14" width="26.71875" y="1011.8399658203125" x="381.0608825683594" class="er relationshipLabelBox"/><text style="text-anchor: middle; dominant-baseline: middle; font-size: 12px;" y="1018.8399658203125" x="394.4202575683594" id="rel24" class="er relationshipLabel">story</text><rect height="14" width="35.615234375" y="1023.528076171875" x="531.1931762695312" class="er relationshipLabelBox"/><text style="text-anchor: middle; dominant-baseline: middle; font-size: 12px;" y="1030.528076171875" x="549.0007934570312" id="rel25" class="er relationshipLabel">author</text><rect height="14" width="53.181640625" y="1188" x="1480.2623291015625" class="er relationshipLabelBox"/><text style="text-anchor: middle; dominant-baseline: middle; font-size: 12px;" y="1195" x="1506.8531494140625" id="rel26" class="er relationshipLabel">translator</text><rect height="14" width="26.71875" y="632.5768432617188" x="1120.4912109375" class="er relationshipLabelBox"/><text style="text-anchor: middle; dominant-baseline: middle; font-size: 12px;" y="639.5768432617188" x="1133.8505859375" id="rel27" class="er relationshipLabel">story</text><rect height="14" width="46.8125" y="462.704345703125" x="1115.702392578125" class="er relationshipLabelBox"/><text style="text-anchor: middle; dominant-baseline: middle; font-size: 12px;" y="469.704345703125" x="1139.108642578125" id="rel28" class="er relationshipLabel">artworks</text><rect height="14" width="27.072265625" y="784.089111328125" x="1575.6748046875" class="er relationshipLabelBox"/><text style="text-anchor: middle; dominant-baseline: middle; font-size: 12px;" y="791.089111328125" x="1589.2109375" id="rel29" class="er relationshipLabel">texts</text><rect height="14" width="22.958984375" y="488" x="158.5205078125" class="er relationshipLabelBox"/><text style="text-anchor: middle; dominant-baseline: middle; font-size: 12px;" y="495" x="170" id="rel30" class="er relationshipLabel">user</text><rect height="14" width="18.37109375" y="313" x="60.814453125" class="er relationshipLabelBox"/><text style="text-anchor: middle; dominant-baseline: middle; font-size: 12px;" y="320" x="70" id="rel31" class="er relationshipLabel">pdf</text><rect height="14" width="107.640625" y="481.883056640625" x="484.1461181640625" class="er relationshipLabelBox"/><text style="text-anchor: middle; dominant-baseline: middle; font-size: 12px;" y="488.883056640625" x="537.9664306640625" id="rel32" class="er relationshipLabel">dreamboothTraining</text><rect height="14" width="35.87890625" y="289.3361511230469" x="346.3238525390625" class="er relationshipLabelBox"/><text style="text-anchor: middle; dominant-baseline: middle; font-size: 12px;" y="296.3361511230469" x="364.2633056640625" id="rel33" class="er relationshipLabel">photos</text><rect height="14" width="44.345703125" y="490.4472351074219" x="437.92730712890625" class="er relationshipLabelBox"/><text style="text-anchor: middle; dominant-baseline: middle; font-size: 12px;" y="497.4472351074219" x="460.10015869140625" id="rel34" class="er relationshipLabel">Concept</text></svg>