<svg aria-roledescription="er" role="graphics-document document" viewBox="-7.582126617431641 0 1501.9141845703125 1340" style="max-width: 1501.91px; background-color: white;" xmlns:xlink="http://www.w3.org/1999/xlink" xmlns="http://www.w3.org/2000/svg" width="100%" id="mermaid-0"><style>#mermaid-0{font-family:"trebuchet ms",verdana,arial,sans-serif;font-size:16px;fill:#333;}#mermaid-0 .error-icon{fill:#552222;}#mermaid-0 .error-text{fill:#552222;stroke:#552222;}#mermaid-0 .edge-thickness-normal{stroke-width:2px;}#mermaid-0 .edge-thickness-thick{stroke-width:3.5px;}#mermaid-0 .edge-pattern-solid{stroke-dasharray:0;}#mermaid-0 .edge-pattern-dashed{stroke-dasharray:3;}#mermaid-0 .edge-pattern-dotted{stroke-dasharray:2;}#mermaid-0 .marker{fill:#333333;stroke:#333333;}#mermaid-0 .marker.cross{stroke:#333333;}#mermaid-0 svg{font-family:"trebuchet ms",verdana,arial,sans-serif;font-size:16px;}#mermaid-0 .entityBox{fill:#ECECFF;stroke:#9370DB;}#mermaid-0 .attributeBoxOdd{fill:#ffffff;stroke:#9370DB;}#mermaid-0 .attributeBoxEven{fill:#f2f2f2;stroke:#9370DB;}#mermaid-0 .relationshipLabelBox{fill:hsl(80, 100%, 96.2745098039%);opacity:0.7;background-color:hsl(80, 100%, 96.2745098039%);}#mermaid-0 .relationshipLabelBox rect{opacity:0.5;}#mermaid-0 .relationshipLine{stroke:#333333;}#mermaid-0 .entityTitleText{text-anchor:middle;font-size:18px;fill:#333;}#mermaid-0 :root{--mermaid-font-family:"trebuchet ms",verdana,arial,sans-serif;}</style><g/><defs><marker orient="auto" markerHeight="18" markerWidth="18" refY="9" refX="0" id="ONLY_ONE_START"><path d="M9,0 L9,18 M15,0 L15,18" fill="none" stroke="gray"/></marker></defs><defs><marker orient="auto" markerHeight="18" markerWidth="18" refY="9" refX="18" id="ONLY_ONE_END"><path d="M3,0 L3,18 M9,0 L9,18" fill="none" stroke="gray"/></marker></defs><defs><marker orient="auto" markerHeight="18" markerWidth="30" refY="9" refX="0" id="ZERO_OR_ONE_START"><circle r="6" cy="9" cx="21" fill="white" stroke="gray"/><path d="M9,0 L9,18" fill="none" stroke="gray"/></marker></defs><defs><marker orient="auto" markerHeight="18" markerWidth="30" refY="9" refX="30" id="ZERO_OR_ONE_END"><circle r="6" cy="9" cx="9" fill="white" stroke="gray"/><path d="M21,0 L21,18" fill="none" stroke="gray"/></marker></defs><defs><marker orient="auto" markerHeight="36" markerWidth="45" refY="18" refX="18" id="ONE_OR_MORE_START"><path d="M0,18 Q 18,0 36,18 Q 18,36 0,18 M42,9 L42,27" fill="none" stroke="gray"/></marker></defs><defs><marker orient="auto" markerHeight="36" markerWidth="45" refY="18" refX="27" id="ONE_OR_MORE_END"><path d="M3,9 L3,27 M9,18 Q27,0 45,18 Q27,36 9,18" fill="none" stroke="gray"/></marker></defs><defs><marker orient="auto" markerHeight="36" markerWidth="57" refY="18" refX="18" id="ZERO_OR_MORE_START"><circle r="6" cy="18" cx="48" fill="white" stroke="gray"/><path d="M0,18 Q18,0 36,18 Q18,36 0,18" fill="none" stroke="gray"/></marker></defs><defs><marker orient="auto" markerHeight="36" markerWidth="57" refY="18" refX="39" id="ZERO_OR_MORE_END"><circle r="6" cy="18" cx="9" fill="white" stroke="gray"/><path d="M21,18 Q39,0 57,18 Q39,36 21,18" fill="none" stroke="gray"/></marker></defs><path style="stroke: gray; fill: none;" marker-start="url(#ZERO_OR_MORE_START)" marker-end="url(#ZERO_OR_MORE_END)" d="M222.166015625,63.53448275862069L334.666015625,77.11206896551724C447.166015625,90.6896551724138,672.166015625,117.8448275862069,779.9041108630953,139.75574712643677C887.6422061011905,161.66666666666666,878.1183965773811,178.33333333333334,873.3564918154763,186.66666666666666L868.5945870535714,195" class="er relationshipLine"/><path style="stroke: gray; fill: none;" marker-start="url(#ZERO_OR_MORE_START)" marker-end="url(#ZERO_OR_MORE_END)" d="M150.73744419642858,95L145.97553943452382,103.33333333333333C141.21363467261907,111.66666666666667,131.68982514880952,128.33333333333334,121.95972842261904,145C112.22963169642857,161.66666666666666,102.29324776785715,178.33333333333334,97.32505580357144,186.66666666666666L92.35686383928572,195" class="er relationshipLine"/><path style="stroke: gray; fill: none;" marker-start="url(#ZERO_OR_ONE_START)" marker-end="url(#ONLY_ONE_END)" d="M797.166015625,225.47565625872164L701.6936848958334,212.06304688226805C606.2213541666666,198.65043750581444,415.2766927083333,171.8252187529072,314.83617001488096,150.07927604312027C214.39564732142858,128.33333333333334,204.45926339285714,111.66666666666667,199.49107142857144,103.33333333333333L194.52287946428572,95" class="er relationshipLine"/><path style="stroke: gray; fill: none;" marker-start="url(#ZERO_OR_MORE_START)" marker-end="url(#ZERO_OR_MORE_END)" d="M825.7374441964286,270L820.9755394345239,278.3333333333333C816.2136346726189,286.6666666666667,806.6898251488095,303.3333333333333,797.166015625,320C787.6422061011905,336.6666666666667,778.1183965773811,353.3333333333333,773.3564918154761,361.6666666666667L768.5945870535714,370" class="er relationshipLine"/><path style="stroke: gray; fill: none;" marker-start="url(#ZERO_OR_MORE_START)" marker-end="url(#ZERO_OR_MORE_END)" d="M897.166015625,260.8479713483004L914.5546875,270.7066427902503C931.943359375,280.56531423220025,966.720703125,300.28265711610015,979.3474702380953,318.4746618913834C991.9742373511905,336.6666666666667,982.4504278273811,353.3333333333333,977.6885230654763,361.6666666666667L972.9266183035714,370" class="er relationshipLine"/><path style="stroke: gray; fill: none;" marker-start="url(#ZERO_OR_ONE_START)" marker-end="url(#ONLY_ONE_END)" d="M49.49972098214286,195L44.94410342261906,186.66666666666666C40.38848586309524,178.33333333333334,31.27725074404762,161.66666666666666,43.38829985119048,143.61111111111111C55.499348958333336,125.55555555555556,88.83268229166667,106.11111111111113,105.49934895833333,96.3888888888889L122.166015625,86.66666666666667" class="er relationshipLine"/><path style="stroke: gray; fill: none;" marker-start="url(#ZERO_OR_MORE_START)" marker-end="url(#ZERO_OR_MORE_END)" d="M93.28515625,270L98.45963541666667,278.3333333333333C103.63411458333333,286.6666666666667,113.98307291666667,303.3333333333333,113.98307291666667,320C113.98307291666667,336.6666666666667,103.63411458333333,353.3333333333333,98.45963541666667,361.6666666666667L93.28515625,370" class="er relationshipLine"/><path style="stroke: gray; fill: none;" marker-start="url(#ZERO_OR_MORE_START)" marker-end="url(#ZERO_OR_MORE_END)" d="M49.49972098214286,545L44.94410342261906,536.6666666666666C40.38848586309524,528.3333333333334,31.27725074404762,511.6666666666667,31.27725074404762,495C31.27725074404762,478.3333333333333,40.38848586309524,461.6666666666667,44.94410342261906,453.3333333333333L49.49972098214286,445" class="er relationshipLine"/><path style="stroke: gray; fill: none;" marker-start="url(#ZERO_OR_MORE_START)" marker-end="url(#ZERO_OR_MORE_END)" d="M1177.9034598214287,895L1173.1415550595239,886.6666666666666C1168.379650297619,878.3333333333334,1158.8558407738094,861.6666666666666,1082.8996000744048,840.2781194443647C1006.943359375,818.8895722220631,864.5546875,792.779144444126,793.3603515625,779.7239305551575L722.166015625,766.6687166661891" class="er relationshipLine"/><path style="stroke: gray; fill: none;" marker-start="url(#ZERO_OR_MORE_START)" marker-end="url(#ZERO_OR_MORE_END)" d="M1249.33203125,944.1666666666666L1303.4986979166667,956.8055555555555C1357.6653645833333,969.4444444444443,1465.9986979166667,994.7222222222222,1448.9710286458333,1020.4163250000796C1431.943359375,1046.110427777937,1289.5546875,1072.2208555558739,1218.3603515625,1085.2760694448425L1147.166015625,1098.331283333811" class="er relationshipLine"/><path style="stroke: gray; fill: none;" marker-start="url(#ZERO_OR_MORE_START)" marker-end="url(#ZERO_OR_MORE_END)" d="M348.0943080357143,895L348.30059523809524,886.6666666666666C348.50688244047615,878.3333333333334,348.9194568452381,861.6666666666666,394.5980747767857,841.0086428379847C440.2766927083333,820.3506190093027,531.2213541666666,795.7012380186055,576.6936848958334,783.376547523257L622.166015625,771.0518570279083" class="er relationshipLine"/><path style="stroke: gray; fill: none;" marker-start="url(#ZERO_OR_MORE_START)" marker-end="url(#ZERO_OR_MORE_END)" d="M305.23716517857144,895L295.9196428571429,886.6666666666666C286.6021205357143,878.3333333333334,267.96707589285717,861.6666666666666,258.6495535714286,838.75C249.33203125,815.8333333333334,249.33203125,786.6666666666666,249.33203125,757.5C249.33203125,728.3333333333334,249.33203125,699.1666666666666,249.33203125,670C249.33203125,640.8333333333334,249.33203125,611.6666666666666,249.33203125,582.5C249.33203125,553.3333333333334,249.33203125,524.1666666666666,323.2490234375,496.59157901482075C397.166015625,469.0164913629748,545,443.0329827259495,618.9169921875,430.0412284074369L692.833984375,417.0494740889243" class="er relationshipLine"/><path style="stroke: gray; fill: none;" marker-start="url(#ZERO_OR_MORE_START)" marker-end="url(#ZERO_OR_MORE_END)" d="M1075.7374441964287,1245L1070.9755394345239,1236.6666666666667C1066.213634672619,1228.3333333333333,1056.6898251488094,1211.6666666666667,1056.6898251488094,1195C1056.6898251488094,1178.3333333333333,1066.213634672619,1161.6666666666667,1070.9755394345239,1153.3333333333333L1075.7374441964287,1145" class="er relationshipLine"/><path style="stroke: gray; fill: none;" marker-start="url(#ZERO_OR_ONE_START)" marker-end="url(#ZERO_OR_ONE_END)" d="M672.166015625,795L672.166015625,803.3333333333334C672.166015625,811.6666666666666,672.166015625,828.3333333333334,626.3326822916666,849.0064102564103C580.4993489583334,869.6794871794872,488.8326822916667,894.3589743589743,442.9993489583333,906.6987179487179L397.166015625,919.0384615384615" class="er relationshipLine"/><path style="stroke: gray; fill: none;" marker-start="url(#ZERO_OR_ONE_START)" marker-end="url(#ZERO_OR_ONE_END)" d="M722.166015625,765.0801413831728L810.0270182291666,778.4001178193106C897.8880208333334,791.7200942554485,1073.6100260416667,818.3600471277242,1156.7091238839287,840.0133568971954C1239.8082217261906,861.6666666666666,1230.284412202381,878.3333333333334,1225.5225074404761,886.6666666666666L1220.7606026785713,895" class="er relationshipLine"/><path style="stroke: gray; fill: none;" marker-start="url(#ZERO_OR_MORE_START)" marker-end="url(#ZERO_OR_MORE_END)" d="M662.3800223214286,720L660.2053571428571,711.6666666666666C658.0306919642857,703.3333333333334,653.6813616071428,686.6666666666666,713.6456938244047,665.4744750744065C773.6100260416666,644.2822834821463,897.8880208333334,618.5645669642926,960.0270182291666,605.7057087053657L1022.166015625,592.8468504464389" class="er relationshipLine"/><path style="stroke: gray; fill: none;" marker-start="url(#ZERO_OR_MORE_START)" marker-end="url(#ZERO_OR_MORE_END)" d="M622.166015625,721.8828210713775L610.0270182291666,713.2356842261479C597.8880208333334,704.5885473809184,573.6100260416666,687.2942736904591,561.4710286458334,664.0638035118963C549.33203125,640.8333333333334,549.33203125,611.6666666666666,549.33203125,582.5C549.33203125,553.3333333333334,549.33203125,524.1666666666666,573.2490234375,499.00508600632503C597.166015625,473.8435053459834,645,452.6870106919667,668.9169921875,442.1087633649584L692.833984375,431.53051603795006" class="er relationshipLine"/><path style="stroke: gray; fill: none;" marker-start="url(#ZERO_OR_MORE_START)" marker-end="url(#ZERO_OR_MORE_END)" d="M722.166015625,762.9539832338712L847.5270182291666,776.6283193615594C972.8880208333334,790.3026554892475,1223.6100260416667,817.6513277446238,1348.9710286458333,845.9089972056453C1474.33203125,874.1666666666666,1474.33203125,903.3333333333334,1474.33203125,932.5C1474.33203125,961.6666666666666,1474.33203125,990.8333333333334,1419.8043619791667,1018.066722248402C1365.2766927083333,1045.3001111634705,1256.2213541666667,1070.6002223269413,1201.6936848958333,1083.2502779086767L1147.166015625,1095.900333490412" class="er relationshipLine"/><path style="stroke: gray; fill: none;" marker-start="url(#ZERO_OR_ONE_START)" marker-end="url(#ONLY_ONE_END)" d="M801.498046875,419.3851318359375L859.109375,431.98760986328125C916.720703125,444.590087890625,1031.943359375,469.7950439453125,1082.411830357143,490.73085530598956C1132.8803013392856,511.6666666666667,1118.5945870535713,528.3333333333334,1111.4517299107142,536.6666666666666L1104.308872767857,545" class="er relationshipLine"/><path style="stroke: gray; fill: none;" marker-start="url(#ZERO_OR_ONE_START)" marker-end="url(#ONLY_ONE_END)" d="M790.9514508928571,445L800.6815476190476,453.3333333333333C810.4116443452381,461.6666666666667,829.8718377976189,478.3333333333333,839.6019345238095,501.25C849.33203125,524.1666666666666,849.33203125,553.3333333333334,849.33203125,582.5C849.33203125,611.6666666666666,849.33203125,640.8333333333334,828.1376953125,665.884274621776C806.943359375,690.9352159102185,764.5546875,711.8704318204368,743.3603515625,722.338039775546L722.166015625,732.8056477306552" class="er relationshipLine"/><path style="stroke: gray; fill: none;" marker-start="url(#ZERO_OR_ONE_START)" marker-end="url(#ONLY_ONE_END)" d="M692.833984375,423.4620895659416L652.2503255208334,435.3850746382847C611.6666666666666,447.30805971062773,530.4993489583334,471.15402985531387,489.9156901041667,497.6603482609903C449.33203125,524.1666666666666,449.33203125,553.3333333333334,449.33203125,582.5C449.33203125,611.6666666666666,449.33203125,640.8333333333334,449.33203125,670C449.33203125,699.1666666666666,449.33203125,728.3333333333334,449.33203125,757.5C449.33203125,786.6666666666666,449.33203125,815.8333333333334,439.6019345238096,838.75C429.87183779761904,861.6666666666666,410.4116443452381,878.3333333333334,400.68154761904765,886.6666666666666L390.95145089285717,895" class="er relationshipLine"/><path style="stroke: gray; fill: none;" marker-start="url(#ZERO_OR_ONE_START)" marker-end="url(#ONLY_ONE_END)" d="M692.833984375,398.40714667284294L614.7503255208334,385.33928889403575C536.6666666666666,372.2714311152286,380.4993489583333,346.1357155576143,397.8880208333333,319.6552484023535C415.2766927083333,293.17478124709277,606.2213541666666,266.3495624941856,701.6936848958334,252.93695311773195L797.166015625,239.52434374127836" class="er relationshipLine"/><path style="stroke: gray; fill: none;" marker-start="url(#ZERO_OR_ONE_START)" marker-end="url(#ONLY_ONE_END)" d="M1065.951450892857,1070L1059.014880952381,1061.6666666666667C1052.0783110119048,1053.3333333333333,1038.2051711309523,1036.6666666666667,1031.2686011904761,1013.75C1024.33203125,990.8333333333334,1024.33203125,961.6666666666666,1024.33203125,932.5C1024.33203125,903.3333333333334,1024.33203125,874.1666666666666,1024.33203125,845C1024.33203125,815.8333333333334,1024.33203125,786.6666666666666,1024.33203125,757.5C1024.33203125,728.3333333333334,1024.33203125,699.1666666666666,1028.8876488095239,676.25C1033.4432663690477,653.3333333333334,1042.5545014880952,636.6666666666666,1047.110119047619,628.3333333333334L1051.665736607143,620" class="er relationshipLine"/><path style="stroke: gray; fill: none;" marker-start="url(#ZERO_OR_ONE_START)" marker-end="url(#ONLY_ONE_END)" d="M1047.166015625,1102.8947368421052L897.166015625,1089.078947368421C747.166015625,1075.2631578947369,447.166015625,1047.6315789473683,297.166015625,1019.2324561403508C147.166015625,990.8333333333334,147.166015625,961.6666666666666,147.166015625,932.5C147.166015625,903.3333333333334,147.166015625,874.1666666666666,226.33268229166666,846.3888888888888C305.4993489583333,818.6111111111112,463.8326822916667,792.2222222222223,542.9993489583334,779.0277777777778L622.166015625,765.8333333333334" class="er relationshipLine"/><path style="stroke: gray; fill: none;" marker-start="url(#ZERO_OR_ONE_START)" marker-end="url(#ZERO_OR_ONE_END)" d="M1047.166015625,1103.3333333333333L880.4993489583334,1089.4444444444443C713.8326822916666,1075.5555555555554,380.4993489583333,1047.7777777777776,397.5270182291667,1019.9384215286688C414.5546875,992.09906527956,781.943359375,964.1981305591202,965.6376953125,950.2476631989002L1149.33203125,936.2971958386802" class="er relationshipLine"/><path style="stroke: gray; fill: none;" marker-start="url(#ZERO_OR_ONE_START)" marker-end="url(#ZERO_OR_ONE_END)" d="M1118.5945870535713,1145L1123.3564918154761,1153.3333333333333C1128.118396577381,1161.6666666666667,1137.6422061011906,1178.3333333333333,1137.6422061011906,1195C1137.6422061011906,1211.6666666666667,1128.118396577381,1228.3333333333333,1123.3564918154761,1236.6666666666667L1118.5945870535713,1245" class="er relationshipLine"/><path style="stroke: gray; fill: none;" marker-start="url(#ZERO_OR_ONE_START)" marker-end="url(#ONLY_ONE_END)" d="M1022.166015625,596.0518570279083L976.6936848958334,608.3765475232569C931.2213541666666,620.7012380186055,840.2766927083334,645.3506190093027,787.4552176339286,666.0086428379847C734.6337425595239,686.6666666666666,719.9354538690477,703.3333333333334,712.5863095238095,711.6666666666666L705.2371651785714,720" class="er relationshipLine"/><path style="stroke: gray; fill: none;" marker-start="url(#ZERO_OR_MORE_START)" marker-end="url(#ZERO_OR_MORE_END)" d="M1030.2371651785713,545L1020.9196428571428,536.6666666666666C1011.6021205357142,528.3333333333334,992.9670758928572,511.6666666666667,954.8438895089286,492.2379430367957C916.720703125,472.8092194069247,859.109375,450.6184388138493,830.3037109375,439.5230485173117L801.498046875,428.427658220774" class="er relationshipLine"/><path style="stroke: gray; fill: none;" marker-start="url(#ZERO_OR_MORE_START)" marker-end="url(#ZERO_OR_MORE_END)" d="M1122.166015625,596.9787956744598L1164.1936848958333,609.1489963953832C1206.2213541666667,621.3191971163066,1290.2766927083333,645.6595985581533,1332.3043619791667,672.41313261241C1374.33203125,699.1666666666666,1374.33203125,728.3333333333334,1374.33203125,757.5C1374.33203125,786.6666666666666,1374.33203125,815.8333333333334,1374.33203125,845C1374.33203125,874.1666666666666,1374.33203125,903.3333333333334,1374.33203125,932.5C1374.33203125,961.6666666666666,1374.33203125,990.8333333333334,1336.4710286458333,1017.3692060874691C1298.6100260416667,1043.905078841605,1222.8880208333333,1067.8101576832103,1185.0270182291667,1079.7626971040127L1147.166015625,1091.7152365248153" class="er relationshipLine"/><path style="stroke: gray; fill: none;" marker-start="url(#ZERO_OR_ONE_START)" marker-end="url(#ONLY_ONE_END)" d="M93.28515625,445L98.45963541666667,453.3333333333333C103.63411458333333,461.6666666666667,113.98307291666667,478.3333333333333,113.98307291666667,495C113.98307291666667,511.6666666666667,103.63411458333333,528.3333333333334,98.45963541666667,536.6666666666666L93.28515625,545" class="er relationshipLine"/><path style="stroke: gray; fill: none;" marker-start="url(#ZERO_OR_ONE_START)" marker-end="url(#ONLY_ONE_END)" d="M49.49972098214286,370L44.94410342261906,361.6666666666667C40.38848586309524,353.3333333333333,31.27725074404762,336.6666666666667,31.27725074404762,320C31.27725074404762,303.3333333333333,40.38848586309524,286.6666666666667,44.94410342261906,278.3333333333333L49.49972098214286,270" class="er relationshipLine"/><path style="stroke: gray; fill: none;" marker-start="url(#ZERO_OR_MORE_START)" marker-end="url(#ZERO_OR_MORE_END)" d="M929.1411830357143,370L924.1729910714286,361.6666666666667C919.2047991071428,353.3333333333333,909.2684151785714,336.6666666666667,899.33203125,320C889.3956473214286,303.3333333333333,879.4592633928572,286.6666666666667,874.4910714285714,278.3333333333333L869.5228794642857,270" class="er relationshipLine"/><g transform="translate(122.166015625,20 )" id="entity-cloudfiles-bec280a5-4255-5a75-a844-10b0df5ee92d"><rect height="75" width="100" y="0" x="0" class="er entityBox"/><text style="dominant-baseline: middle; text-anchor: middle; font-size: 12px;" transform="translate(50,37.5)" y="0" x="0" id="text-entity-cloudfiles-bec280a5-4255-5a75-a844-10b0df5ee92d" class="er entityLabel">cloud_files</text></g><g transform="translate(797.166015625,195 )" id="entity-photos-5fc1034e-7064-5039-8fdd-86c2671473f3"><rect height="75" width="100" y="0" x="0" class="er entityBox"/><text style="dominant-baseline: middle; text-anchor: middle; font-size: 12px;" transform="translate(50,37.5)" y="0" x="0" id="text-entity-photos-5fc1034e-7064-5039-8fdd-86c2671473f3" class="er entityLabel">photos</text></g><g transform="translate(20,195 )" id="entity-pdfs-684f5ce7-c15f-5cc4-b990-b87235db5ed3"><rect height="75" width="100" y="0" x="0" class="er entityBox"/><text style="dominant-baseline: middle; text-anchor: middle; font-size: 12px;" transform="translate(50,37.5)" y="0" x="0" id="text-entity-pdfs-684f5ce7-c15f-5cc4-b990-b87235db5ed3" class="er entityLabel">pdfs</text></g><g transform="translate(20,545 )" id="entity-users-33ae1e26-be31-5c1d-bf65-e859e9d0308e"><rect height="75" width="100" y="0" x="0" class="er entityBox"/><text style="dominant-baseline: middle; text-anchor: middle; font-size: 12px;" transform="translate(50,37.5)" y="0" x="0" id="text-entity-users-33ae1e26-be31-5c1d-bf65-e859e9d0308e" class="er entityLabel">users</text></g><g transform="translate(1149.33203125,895 )" id="entity-Author-17acff7c-e0a9-5e68-a8c8-82d7688f389c"><rect height="75" width="100" y="0" x="0" class="er entityBox"/><text style="dominant-baseline: middle; text-anchor: middle; font-size: 12px;" transform="translate(50,37.5)" y="0" x="0" id="text-entity-Author-17acff7c-e0a9-5e68-a8c8-82d7688f389c" class="er entityLabel">Author</text></g><g transform="translate(297.166015625,895 )" id="entity-Artist-57a72993-74d6-5d47-9b6a-c32ca1bc9c44"><rect height="75" width="100" y="0" x="0" class="er entityBox"/><text style="dominant-baseline: middle; text-anchor: middle; font-size: 12px;" transform="translate(50,37.5)" y="0" x="0" id="text-entity-Artist-57a72993-74d6-5d47-9b6a-c32ca1bc9c44" class="er entityLabel">Artist</text></g><g transform="translate(1047.166015625,1245 )" id="entity-Translator-4ca5e3d1-183a-5457-a07c-c5989bb83097"><rect height="75" width="100" y="0" x="0" class="er entityBox"/><text style="dominant-baseline: middle; text-anchor: middle; font-size: 12px;" transform="translate(50,37.5)" y="0" x="0" id="text-entity-Translator-4ca5e3d1-183a-5457-a07c-c5989bb83097" class="er entityLabel">Translator</text></g><g transform="translate(622.166015625,720 )" id="entity-stories-2809256d-c184-5d2c-bc20-1bbabab3f3b6"><rect height="75" width="100" y="0" x="0" class="er entityBox"/><text style="dominant-baseline: middle; text-anchor: middle; font-size: 12px;" transform="translate(50,37.5)" y="0" x="0" id="text-entity-stories-2809256d-c184-5d2c-bc20-1bbabab3f3b6" class="er entityLabel">stories</text></g><g transform="translate(692.833984375,370 )" id="entity-pageartworks-a7eab14e-b22e-5c9b-8324-e39e37602eee"><rect height="75" width="108.6640625" y="0" x="0" class="er entityBox"/><text style="dominant-baseline: middle; text-anchor: middle; font-size: 12px;" transform="translate(54.33203125,37.5)" y="0" x="0" id="text-entity-pageartworks-a7eab14e-b22e-5c9b-8324-e39e37602eee" class="er entityLabel">page_artworks</text></g><g transform="translate(1047.166015625,1070 )" id="entity-pagetexts-32c866fa-30da-552d-8244-754db7f80206"><rect height="75" width="100" y="0" x="0" class="er entityBox"/><text style="dominant-baseline: middle; text-anchor: middle; font-size: 12px;" transform="translate(50,37.5)" y="0" x="0" id="text-entity-pagetexts-32c866fa-30da-552d-8244-754db7f80206" class="er entityLabel">page_texts</text></g><g transform="translate(1022.166015625,545 )" id="entity-pages-39cce197-6933-52c8-bffd-261df920aba6"><rect height="75" width="100" y="0" x="0" class="er entityBox"/><text style="dominant-baseline: middle; text-anchor: middle; font-size: 12px;" transform="translate(50,37.5)" y="0" x="0" id="text-entity-pages-39cce197-6933-52c8-bffd-261df920aba6" class="er entityLabel">pages</text></g><g transform="translate(20,370 )" id="entity-editions-ec9a561b-7f02-57e4-a4dc-d5ffa7296067"><rect height="75" width="100" y="0" x="0" class="er entityBox"/><text style="dominant-baseline: middle; text-anchor: middle; font-size: 12px;" transform="translate(50,37.5)" y="0" x="0" id="text-entity-editions-ec9a561b-7f02-57e4-a4dc-d5ffa7296067" class="er entityLabel">editions</text></g><g transform="translate(901.498046875,370 )" id="entity-concepts-e5c30013-81a7-5b12-b32b-265112a68fc8"><rect height="75" width="100" y="0" x="0" class="er entityBox"/><text style="dominant-baseline: middle; text-anchor: middle; font-size: 12px;" transform="translate(50,37.5)" y="0" x="0" id="text-entity-concepts-e5c30013-81a7-5b12-b32b-265112a68fc8" class="er entityLabel">concepts</text></g><g transform="translate(322.166015625,20 )" id="entity-predictions-1893ac28-1bf0-5313-b476-d32c8a0be2a7"><rect height="75" width="100" y="0" x="0" class="er entityBox"/><text style="dominant-baseline: middle; text-anchor: middle; font-size: 12px;" transform="translate(50,37.5)" y="0" x="0" id="text-entity-predictions-1893ac28-1bf0-5313-b476-d32c8a0be2a7" class="er entityLabel">predictions</text></g><rect height="14" width="31.439453125" y="98.91226196289062" x="547.8255615234375" class="er relationshipLabelBox"/><text style="text-anchor: middle; dominant-baseline: middle; font-size: 12px;" y="105.91226196289062" x="563.5452880859375" id="rel1" class="er relationshipLabel">photo</text><rect height="14" width="18.37109375" y="138.17958068847656" x="112.6692123413086" class="er relationshipLabelBox"/><text style="text-anchor: middle; dominant-baseline: middle; font-size: 12px;" y="145.17958068847656" x="121.8547592163086" id="rel2" class="er relationshipLabel">pdf</text><rect height="14" width="18.396484375" y="173.75552368164062" x="478.75103759765625" class="er relationshipLabelBox"/><text style="text-anchor: middle; dominant-baseline: middle; font-size: 12px;" y="180.75552368164062" x="487.94927978515625" id="rel3" class="er relationshipLabel">file</text><rect height="14" width="73.14453125" y="313" x="760.59375" class="er relationshipLabelBox"/><text style="text-anchor: middle; dominant-baseline: middle; font-size: 12px;" y="320" x="797.166015625" id="rel4" class="er relationshipLabel">pageArtworks</text><rect height="14" width="47.8671875" y="295.3622741699219" x="939.5855712890625" class="er relationshipLabelBox"/><text style="text-anchor: middle; dominant-baseline: middle; font-size: 12px;" y="302.3622741699219" x="963.5191650390625" id="rel5" class="er relationshipLabel">concepts</text><rect height="14" width="18.396484375" y="121.16006469726562" x="48.75975799560547" class="er relationshipLabelBox"/><text style="text-anchor: middle; dominant-baseline: middle; font-size: 12px;" y="128.16006469726562" x="57.95800018310547" id="rel6" class="er relationshipLabel">file</text><rect height="14" width="37.828125" y="313" x="95.06900787353516" class="er relationshipLabelBox"/><text style="text-anchor: middle; dominant-baseline: middle; font-size: 12px;" y="320" x="113.98307037353516" id="rel7" class="er relationshipLabel">edition</text><rect height="14" width="37.71875" y="488" x="12.417875289916992" class="er relationshipLabelBox"/><text style="text-anchor: middle; dominant-baseline: middle; font-size: 12px;" y="495" x="31.277250289916992" id="rel8" class="er relationshipLabel">Edition</text><rect height="14" width="35.685546875" y="804.4218139648438" x="940.8666381835938" class="er relationshipLabelBox"/><text style="text-anchor: middle; dominant-baseline: middle; font-size: 12px;" y="811.4218139648438" x="958.7094116210938" id="rel9" class="er relationshipLabel">stories</text><rect height="14" width="53.345703125" y="1034.6634521484375" x="1383.219482421875" class="er relationshipLabelBox"/><text style="text-anchor: middle; dominant-baseline: middle; font-size: 12px;" y="1041.6634521484375" x="1409.892333984375" id="rel10" class="er relationshipLabel">pageTexts</text><rect height="14" width="35.685546875" y="806.7568969726562" x="452.5684814453125" class="er relationshipLabelBox"/><text style="text-anchor: middle; dominant-baseline: middle; font-size: 12px;" y="813.7568969726562" x="470.4112548828125" id="rel11" class="er relationshipLabel">stories</text><rect height="14" width="73.14453125" y="505.501708984375" x="251.9896240234375" class="er relationshipLabelBox"/><text style="text-anchor: middle; dominant-baseline: middle; font-size: 12px;" y="512.501708984375" x="288.5618896484375" id="rel12" class="er relationshipLabel">pageArtworks</text><rect height="14" width="53.345703125" y="1188" x="1030.0169677734375" class="er relationshipLabelBox"/><text style="text-anchor: middle; dominant-baseline: middle; font-size: 12px;" y="1195" x="1056.6898193359375" id="rel13" class="er relationshipLabel">pageTexts</text><rect height="14" width="29.005859375" y="869.4117431640625" x="535.1671142578125" class="er relationshipLabelBox"/><text style="text-anchor: middle; dominant-baseline: middle; font-size: 12px;" y="876.4117431640625" x="549.6700439453125" id="rel14" class="er relationshipLabel">artist</text><rect height="14" width="35.615234375" y="800.1113891601562" x="973.4006958007812" class="er relationshipLabelBox"/><text style="text-anchor: middle; dominant-baseline: middle; font-size: 12px;" y="807.1113891601562" x="991.2083129882812" id="rel15" class="er relationshipLabel">author</text><rect height="14" width="30.55859375" y="628.0086669921875" x="809.8089599609375" class="er relationshipLabelBox"/><text style="text-anchor: middle; dominant-baseline: middle; font-size: 12px;" y="635.0086669921875" x="825.0882568359375" id="rel16" class="er relationshipLabel">pages</text><rect height="14" width="73.14453125" y="545.7450561523438" x="513.7158203125" class="er relationshipLabelBox"/><text style="text-anchor: middle; dominant-baseline: middle; font-size: 12px;" y="552.7450561523438" x="550.2880859375" id="rel17" class="er relationshipLabel">pageArtworks</text><rect height="14" width="53.345703125" y="831.5690307617188" x="1286.92724609375" class="er relationshipLabelBox"/><text style="text-anchor: middle; dominant-baseline: middle; font-size: 12px;" y="838.5690307617188" x="1313.60009765625" id="rel18" class="er relationshipLabel">pageTexts</text><rect height="14" width="26.013671875" y="453.1499328613281" x="968.098876953125" class="er relationshipLabelBox"/><text style="text-anchor: middle; dominant-baseline: middle; font-size: 12px;" y="460.1499328613281" x="981.105712890625" id="rel19" class="er relationshipLabel">page</text><rect height="14" width="26.71875" y="603.8673706054688" x="835.2392578125" class="er relationshipLabelBox"/><text style="text-anchor: middle; dominant-baseline: middle; font-size: 12px;" y="610.8673706054688" x="848.5986328125" id="rel20" class="er relationshipLabel">story</text><rect height="14" width="29.005859375" y="583.6519775390625" x="434.8291015625" class="er relationshipLabelBox"/><text style="text-anchor: middle; dominant-baseline: middle; font-size: 12px;" y="590.6519775390625" x="449.33203125" id="rel21" class="er relationshipLabel">artist</text><rect height="14" width="31.439453125" y="292.6150817871094" x="424.6727600097656" class="er relationshipLabelBox"/><text style="text-anchor: middle; dominant-baseline: middle; font-size: 12px;" y="299.6150817871094" x="440.3924865722656" id="rel22" class="er relationshipLabel">photo</text><rect height="14" width="26.013671875" y="840.9810791015625" x="1011.3251953125" class="er relationshipLabelBox"/><text style="text-anchor: middle; dominant-baseline: middle; font-size: 12px;" y="847.9810791015625" x="1024.33203125" id="rel23" class="er relationshipLabel">page</text><rect height="13.99993896484375" width="26.71875" y="1015.2515563964844" x="300.3305969238281" class="er relationshipLabelBox"/><text style="text-anchor: middle; dominant-baseline: middle; font-size: 12px;" y="1022.2515258789062" x="313.6899719238281" id="rel24" class="er relationshipLabel">story</text><rect height="14" width="35.615234375" y="996.8680419921875" x="425.1127014160156" class="er relationshipLabelBox"/><text style="text-anchor: middle; dominant-baseline: middle; font-size: 12px;" y="1003.8680419921875" x="442.9203186035156" id="rel25" class="er relationshipLabel">author</text><rect height="14" width="53.181640625" y="1188" x="1111.0513916015625" class="er relationshipLabelBox"/><text style="text-anchor: middle; dominant-baseline: middle; font-size: 12px;" y="1195" x="1137.6422119140625" id="rel26" class="er relationshipLabel">translator</text><rect height="14" width="26.71875" y="635.6513671875" x="842.898193359375" class="er relationshipLabelBox"/><text style="text-anchor: middle; dominant-baseline: middle; font-size: 12px;" y="642.6513671875" x="856.257568359375" id="rel27" class="er relationshipLabel">story</text><rect height="14" width="46.8125" y="469.5286865234375" x="898.05908203125" class="er relationshipLabelBox"/><text style="text-anchor: middle; dominant-baseline: middle; font-size: 12px;" y="476.5286865234375" x="921.46533203125" id="rel28" class="er relationshipLabel">artworks</text><rect height="14" width="27.072265625" y="826.7264404296875" x="1360.7958984375" class="er relationshipLabelBox"/><text style="text-anchor: middle; dominant-baseline: middle; font-size: 12px;" y="833.7264404296875" x="1374.33203125" id="rel29" class="er relationshipLabel">texts</text><rect height="14" width="22.958984375" y="488" x="102.50357818603516" class="er relationshipLabelBox"/><text style="text-anchor: middle; dominant-baseline: middle; font-size: 12px;" y="495" x="113.98307037353516" id="rel30" class="er relationshipLabel">user</text><rect height="14" width="18.37109375" y="313" x="22.091703414916992" class="er relationshipLabelBox"/><text style="text-anchor: middle; dominant-baseline: middle; font-size: 12px;" y="320" x="31.277250289916992" id="rel31" class="er relationshipLabel">pdf</text><rect height="14" width="35.87890625" y="313" x="881.392578125" class="er relationshipLabelBox"/><text style="text-anchor: middle; dominant-baseline: middle; font-size: 12px;" y="320" x="899.33203125" id="rel32" class="er relationshipLabel">photos</text></svg>